<?xml version="1.0" encoding="UTF-8"?>
<svg id="Layer_2" data-name="Layer 2" xmlns="http://www.w3.org/2000/svg" viewBox="0 0 670.88 768">
  <defs>
    <style>
      .cls-1 {
        fill: #4e5150;
        stroke-width: 0px;
      }
    </style>
  </defs>
  <g id="Layer_1-2" data-name="Layer 1">
    <g>
      <g>
        <g>
          <path class="cls-1" d="m669.46,173.84c-3.67-12.09-13.96-21.21-27.04-17.37-5.73,1.68-5.07,11.52,1.4,10.84,5.48-.58,10.84,2.11,14.47,6.22,5.42,6.16,3.98,14.76,1.44,21.87-4.23,11.86-13.14,22.99-19.79,33.69-12.86,20.69-27.07,40.73-44,58.3-35.59,36.94-82.65,63.07-132.93,73.49-50.99,10.56-105.44,1.22-153.32-17.53-50.14-19.64-93.65-50.78-139.94-77.59-25.54-14.79-52.86-28.18-82.32-32.65-28.79-4.36-55.75.09-81.62,13.42-2.6,1.34-.37,4.9,2.18,3.85,26.39-10.87,57.81-6.6,84.41,1.38,27.05,8.11,51.79,22.19,75.47,37.34,48.04,30.74,95.61,61.7,149.86,80.6,26.55,9.25,54.71,15.66,82.88,16.64,27.75.96,55.62-3.94,82.19-11.75,51.98-15.28,98.09-46.61,133.97-86.97,19.34-21.76,35.48-45.02,46.35-72.13,4.98-12.41,10.39-28.25,6.33-41.63Z"/>
          <path class="cls-1" d="m647.74,165.74c-19.78-18.97-42.3-34.56-63.2-52.03-21.34-17.84-42.18-36.34-63.84-53.73-21.66-17.38-43.85-33.66-68.85-44.62C426.4,4.2,399.18.23,371.91.01c-48.93-.4-100.2,8.48-139.08,43.65-19.47,17.61-35.72,39.44-53.57,58.96-17.98,19.66-37.58,37.31-59.05,52.15-22.59,15.6-46.59,26.91-70.52,39.56-10.49,5.54-21.74,11.78-30.2,20.78-7.74,8.23-12.78,19.98-16.23,31.02-1.22,3.9,4.47,6.5,6.11,2.74,4.59-10.5,12.07-15.84,20.57-22.09,8.56-6.28,17.75-11.3,27.2-15.72,20.76-9.69,41.35-18.47,60.72-31.41,20.75-13.86,39.99-31,57.02-50.03,17-18.99,30.39-41.39,47.2-60.54,17.23-19.64,37.41-34.55,61.11-42.84,23.46-8.2,48.02-10.49,72.52-9.96,25.95.57,52.37,3.54,77.11,12.58,24.64,9,46.97,24.95,68,41.42,23.19,18.16,45.54,37.58,68.74,55.73,22.95,17.96,47.56,37.65,75.14,45.55,2.89.82,5.46-3.49,3.03-5.82Z"/>
          <g>
            <path class="cls-1" d="m313.73,358c-.91-5.7-9.52-6.38-12.03-1.57-1.13,2.17-2.49,4.29-3.22,6.64-.66,2.1-.99,4.34-1.61,6.47-1.14,3.97-2.54,7.85-4.28,11.6-3.61,7.77-8.03,15.4-13.41,22.07-11.38,14.12-24.76,25.79-42.29,31.35-3.3,1.05-2.02,5.97,1.36,5.2,18.71-4.22,37.66-13.23,51.11-27.16,6.9-7.14,12.88-15.22,17.23-24.16,2.24-4.61,4.18-9.4,5.74-14.28.73-2.27,1.49-4.62,1.93-6.96.57-3.09-.03-6.13-.52-9.2Z"/>
            <path class="cls-1" d="m308.15,393.93c-7.64,10.74-17.07,21.1-27.31,29.41-4.99,4.05-10.26,7.8-15.64,11.34-5.64,3.72-11.61,7.91-18.09,9.9-3.3,1.01-1.98,5.71,1.34,5.12,7.31-1.29,14.53-1.79,21.59-4.36,7.55-2.74,14.3-6.58,20.61-11.51,12.27-9.57,21.12-21.64,26.01-36.44,1.77-5.34-5.68-7.47-8.53-3.47Z"/>
            <path class="cls-1" d="m311.39,394.93c-5.25,12.7-12.21,25.17-19.73,36.66-3.62,5.53-7.61,10.82-11.85,15.88-4.61,5.51-10.28,10.45-12.78,17.29-1.06,2.89,2.2,5.68,4.93,4.92,7.02-1.95,12.13-7.96,16.75-13.32,4.92-5.71,9.37-11.83,13.37-18.22,7.91-12.61,12.96-25.93,16.17-40.43.86-3.9-5.16-6.87-6.85-2.79Z"/>
            <path class="cls-1" d="m336.36,384.91c.67-3.63-5.03-4.11-4.86-.63.2,4.27-2.05,9.33-3.02,13.52-.95,4.1-2.21,8.12-3.68,12.06-3.04,8.17-7.01,15.88-11.93,23.07-4.72,6.91-9.67,13.6-15.52,19.6-3.07,3.15-6.31,6.25-9.82,8.91-2.92,2.22-8,5.89-11.83,4.21-5.35-2.35-9.88,5.03-4.58,8.07,9.81,5.63,19.67-.74,27.28-7.03,8.08-6.67,15.16-14.5,20.97-23.22,5.54-8.33,9.68-18.08,12.64-27.62,1.51-4.86,2.61-9.84,3.5-14.85.44-2.47.88-4.98.98-7.49.11-2.83-.62-5.83-.11-8.61Z"/>
            <path class="cls-1" d="m347.93,389.44c-1.21-3.43-7.18-4.43-7.89,0-1.25,7.85-.92,15.8-1.87,23.68-.96,7.97-2.84,15.85-5.04,23.56-4.52,15.84-12.75,30.5-24.45,42.11-1.95,1.94.99,4.84,3.01,3.01,12.78-11.63,23.43-25.63,30.43-41.46,3.44-7.79,5.69-15.95,6.84-24.39,1.2-8.79,1.99-17.99-1.02-26.5Z"/>
            <path class="cls-1" d="m489.96,437.3c-13.83-4.4-25.44-12.28-36.1-21.94-10.21-9.25-21.2-21.75-22.11-36.2-.21-3.36-2.44-6.28-5.92-6.67-3.12-.35-6.84,1.57-7.42,4.95-1.8,10.32,1.84,19.78,7.47,28.35,4.71,7.18,10.32,13.77,17,19.17,13.11,10.59,29.71,16.34,46.43,17.46,3.07.2,3.36-4.26.66-5.12Z"/>
            <path class="cls-1" d="m477.56,448.61c-16.38,4.7-32.87-8.41-41.58-21.07-4.97-7.23-8.79-15.18-12.56-23.08-2.12-4.44-4.24-8.87-5.74-13.57-1.59-4.98-1.4-10.15-6.12-13.33-1.69-1.14-4.07-.54-5.47.74-4.83,4.45-2.22,11.7-.34,17.01,1.86,5.28,4.28,10.33,6.75,15.34,4.62,9.4,9.4,18.66,15.85,26.96,11.96,15.39,32.31,24.57,50.73,14.73,2.03-1.09.7-4.38-1.52-3.75Z"/>
            <path class="cls-1" d="m446.23,462.38c-9.09-7.02-17.11-14.92-23.82-24.27-3.3-4.59-5.98-9.51-8.8-14.4-3.01-5.22-5.65-10.45-7.18-16.29-.77-2.92-4.91-1.7-4.45,1.17,1,6.16,1.82,12.4,3.56,18.41,1.72,5.95,4.67,11.66,7.82,16.97,4.95,8.31,11.5,15.83,18.99,22.06-8.69-1.95-22.86-24.81-24.85-28.7-7.94-15.56-10.54-31.73-12.94-48.81-.68-4.84-7.87-3.38-8.11,1.04-1.15,21.31,7.95,41.58,17.24,60.16,4.42,8.83,10.41,18.33,18.92,23.73,8.02,5.09,19.23,4.17,24.53-4.24,1.19-1.88.95-5.39-.93-6.84Z"/>
            <path class="cls-1" d="m407.63,476.97c-8.3-12.87-14.73-25.88-18.98-40.62-4.22-14.66-6.8-30.1-9.07-45.17-.39-2.63-4.52-1.96-4.52.58,0,16.44.13,32.52,3.19,48.76,2.93,15.56,9.15,31.91,20.83,42.97,4.28,4.06,11.98-1.19,8.55-6.51Z"/>
            <path class="cls-1" d="m363.78,484.48c-2.15.89-8.26,4.47-9.2,1.66-.38-1.14-.03-3.91.03-5.09.1-1.81.54-3.52.97-5.26,2.13-8.6,4.08-16.98,4.9-25.83,1.61-17.33.24-33.66-2.84-50.7-.25-1.39-2.4-.98-2.38.36.32,21.88-3.78,43.96-9.15,65.07-2.11,8.28-7.65,20.17,1.41,26.19,6.94,4.61,13.95,3.27,18.42-3.74.82-1.28-.69-3.29-2.16-2.68Z"/>
            <path class="cls-1" d="m370.49,452.43c-.13-11.95-.4-23.9-.72-35.84-.03-1.22-1.81-1.34-1.9-.1-.95,11.83-2.61,23.6-5.01,35.23-2.33,11.28-5.13,22.84-6.29,34.3-.63,6.27,9.56,8.32,11,2.02,2.62-11.49,3.05-23.86,2.92-35.61Z"/>
          </g>
          <path class="cls-1" d="m308.33,349.44c-48.47,17.51-102.71,21.82-153.46,12.93-25.44-4.46-50.5-12.21-73.7-23.61-21.53-10.58-42.82-24.27-56.15-44.73-13.92-21.37-17.36-50.5-1.77-71.88.97-1.33-1.04-2.47-2.12-1.62-18.66,14.73-24.87,41.89-18.97,64.35,7.01,26.7,27.74,47.12,50.42,61.53,48.45,30.78,109.87,45.18,166.95,39.79,32.61-3.08,63.69-11.77,93.22-25.93,5.96-2.86,1.9-13.12-4.41-10.84Z"/>
          <path class="cls-1" d="m193.77,295.7c-7.69-1.94-17.6,2.71-25.26,4.21-9.71,1.9-19.51,3.07-29.36,3.9-19.33,1.61-38.94,1.53-58.15-1.26-16.86-2.44-35.14-5.92-49.34-15.92-12.26-8.63-24.03-28.63-14.1-42.91,1.27-1.83-1.72-4.14-3.15-2.4-11.11,13.63-12.41,32.04-1.61,46.48,11.98,16.02,32.11,22.51,50.91,26.45,22.14,4.65,45.37,6.65,67.94,4.6,11.43-1.04,22.71-2.94,33.84-5.74,5.66-1.43,11.34-2.96,16.86-4.86,4.54-1.56,9.94-2.92,12.99-6.74,1.57-1.97,1.21-5.11-1.57-5.81Z"/>
          <path class="cls-1" d="m225.47,323.65c-4.5,13.44-14.02,25.87-25.84,33.73-5.84,3.88-12.12,7.43-18.6,10.13-6.62,2.76-14.1,3.24-20.52,6.32-3.96,1.9-3.05,8.55,1.23,9.4,8.01,1.6,16.92-2.12,24.14-5.32,7.34-3.26,13.99-7.82,19.66-13.53,11.16-11.24,19.18-24.52,23.29-39.85.58-2.18-2.65-2.98-3.36-.88Z"/>
          <path class="cls-1" d="m271.55,339.75c-.52-2.58-4.19-1.83-4.35.56-.31,4.59-1.28,9.34-2.77,13.69-.69,2.02-1.53,3.96-2.67,5.77-.59.93-1.21,1.83-1.87,2.71-.13.15-.75.93-.83,1.02-.61.72-1.24,1.41-1.69,2.25-1.2,2.23-.65,4.95,1.36,6.48,1.85,1.42,4.98,1.51,6.61-.41,1.99-2.35,3.06-5.54,4.01-8.44.81-2.48,1.59-4.98,2.13-7.53.56-2.66.98-5.45,1.01-8.17.03-2.64-.41-5.35-.93-7.93Z"/>
          <path class="cls-1" d="m149.39,264.3c-15.76,4.19-34.31,1.9-49.93-2.18-7.77-2.03-15.25-5-22.3-8.83-3.65-1.98-7.19-4.19-10.55-6.64-3.49-2.54-6.5-6.1-10.45-7.89-5.17-2.35-10.63,2.58-7.93,7.92,2.16,4.27,6.44,7.15,10.19,9.97,3.71,2.8,7.6,5.35,11.67,7.61,8.19,4.53,17.07,7.89,26.18,10.01,8.83,2.05,18.02,3.07,27.07,2.14,9.44-.97,18.48-3.77,27.43-6.83,3.3-1.12,2.05-6.2-1.39-5.29Z"/>
          <path class="cls-1" d="m199.15,296.5c-10.92,9.26-21.35,16.48-34.69,21.79-11.79,4.7-23.6,8.84-36.18,10.86-13.48,2.17-27.08,2.28-40.66,1.06-14.67-1.32-30.75-4.19-44.22-10.32-1.85-.84-3.43,1.79-1.59,2.79,13.63,7.36,26.77,13.79,42.21,16.53,14.66,2.59,29.87,2.45,44.48-.43,27.4-5.41,53.04-20.41,71.88-41.05.76-.83-.38-1.94-1.23-1.23Z"/>
          <path class="cls-1" d="m204.26,299.65c-12.64,17.64-31.35,31.9-50.99,40.9-9.58,4.39-19.52,7.67-29.82,9.86-12.43,2.64-23.33,2.01-35.51-1.23-3.54-.94-6.54,3.81-3.67,6.39,9.48,8.52,23.58,8.36,35.47,6.59,12.23-1.82,24.1-5.89,35.12-11.46,22.11-11.17,38.95-28.79,51.45-49.9.78-1.32-1.18-2.36-2.04-1.16Z"/>
          <path class="cls-1" d="m212.91,306.3c-5.09,13.92-13.71,25.7-24.33,35.87-5.01,4.79-10.08,9.37-15.94,13.11-6.37,4.07-13.11,7.39-17.74,13.58-1.23,1.64.16,4.13,1.92,4.56,8.24,2.04,16.31-1.93,23-6.44,6.8-4.59,13.39-9.93,18.53-16.35,10.06-12.56,16.24-27.94,18.23-43.84.28-2.25-3-2.31-3.67-.47Z"/>
          <path class="cls-1" d="m245.99,319.36c-.86-1.46-3.54-1.82-4.3,0-2.07,4.96-3.33,9.77-4.21,15.06-.9,5.36-2.49,10.7-4.49,15.76-4.16,10.53-9.33,19.73-18.66,26.52-2.2,1.6-.28,5.27,2.14,3.77,9.87-6.13,20.21-14.95,25.81-25.3,5.69-10.51,10.22-24.74,3.71-35.81Z"/>
          <path class="cls-1" d="m257.99,333.77c-.42-3.61-5.46-3.75-5.72,0-.39,5.57-1.77,10.89-3.71,16.12-.83,2.23-2.02,4.68-3.26,6.89-1.41,2.51-3.19,4.76-4.68,7.21-1.55,2.54-.54,6.38,2.14,7.75,2.99,1.53,5.87.45,7.75-2.14,1.92-2.64,3.13-5.94,4.28-8.97,1.05-2.75,1.88-5.59,2.49-8.47,1.27-6.01,1.44-12.31.73-18.4Z"/>
          <path class="cls-1" d="m158.74,276.46c-12.34,1.27-24.32,4.92-36.74,5.83-11.47.84-23.14.3-34.41-2.04-10.54-2.2-20.53-5.7-30.1-10.62-7.36-3.78-28.62-14.33-24.15-25.42.87-2.17-2.53-3.33-3.67-1.49-3.24,5.23-4.39,9.48-2.06,15.47,2.33,5.97,7.06,10.43,11.91,14.41,10.47,8.62,22.39,14.7,35.38,18.58,13.64,4.07,28.27,5.24,42.43,4.4,14.63-.87,30.77-2.81,43.87-9.79,4.19-2.23,2.6-9.85-2.46-9.33Z"/>
          <path class="cls-1" d="m616.94,195.23c-14.12,19.29-30.91,37.16-48.04,53.8-17.26,16.77-36.39,31.35-57.52,42.91-20.8,11.38-43.89,18.97-67.23,22.99-24.43,4.2-49.32,5.49-72.77-3.51-1.49-.57-2.16,1.67-.77,2.31,17.67,8.11,36.93,14.59,56.37,16.17,19.81,1.61,39.52-1.39,58.29-7.71,37.83-12.72,70.28-38.4,96.25-68.23,15.19-17.45,27.16-36.59,39.48-56.07,1.68-2.65-2.22-5.19-4.06-2.67Z"/>
          <path class="cls-1" d="m344.32,299.71c-10.16-5.98-19.89-12.54-30.19-18.29-5.04-2.82-10.17-5.52-15.28-8.21-5.01-2.64-10.31-4.86-15.95-5.58-2.02-.26-2.65,2.46-1.53,3.7,3.89,4.32,9.1,7.39,14.24,10,4.98,2.53,9.93,5.14,14.96,7.57,10.49,5.06,21.29,9.28,31.87,14.13,2.2,1.01,4.04-2.05,1.88-3.32Z"/>
          <path class="cls-1" d="m612.91,181.08c-4.3-6.28-10.72-10.21-16.94-14.37-2.9-1.94-5.98-3.57-8.91-5.46-3.08-1.98-6.06-4.11-8.97-6.34-2.41-1.85-5.63,1.07-3.43,3.44,2.46,2.65,4.94,5.29,7.46,7.88,2.58,2.66,5.01,5.47,7.85,7.85,5.83,4.88,12.14,9.88,19.88,10.98,2.06.29,4.55-1.84,3.07-3.99Z"/>
          <path class="cls-1" d="m562.37,144.81c-5.98-8.94-12.65-17.7-20.26-25.33-7.84-7.86-17.01-14.4-25.95-20.94-8.79-6.43-17.84-12.46-27.13-18.15-9.9-6.07-20.61-10.24-30.93-15.48-1.74-.88-3.17,1.6-1.5,2.64,9.33,5.82,17.61,13.11,26.54,19.53,8.99,6.46,17.81,13.17,26.4,20.16,8.22,6.69,15.92,14.01,24.26,20.56,8.55,6.71,17.51,12.96,26.45,19.14,1.26.87,2.97-.88,2.13-2.13Z"/>
          <path class="cls-1" d="m591.98,197.29c-20.95-32.95-54.1-53.54-85.85-74.71-1.73-1.15-3.87,1.6-2.24,2.94,14.7,12.14,27.6,25.93,41.5,38.89,13.69,12.77,27.95,25.48,43.51,35.95,1.85,1.24,4.24-1.24,3.08-3.08Z"/>
          <path class="cls-1" d="m579.83,213.04c-2.31-5.27-5.41-9.54-9.24-13.83-3.53-3.96-7.2-7.83-11.43-11.04-8.33-6.33-17.34-11.82-26.3-17.21-2.71-1.63-4.73,2.36-2.36,4.15,8.13,6.14,14.94,13.53,21.38,21.37,3.13,3.81,6.6,7.34,9.82,11.07,1.65,1.91,3.16,3.95,4.92,5.76,1.85,1.91,3.8,3.61,5.81,5.35,4.11,3.56,9.51-.79,7.39-5.62Z"/>
          <path class="cls-1" d="m237.7,246.67c-28.69-18.93-55.99-39.58-87.21-54.3-23.21-10.94-64.31-28.52-83.15-.73-3.7,5.46,3.76,11.83,8.7,7.55,22.69-19.66,55.44-.68,78.36,9.62,27.69,12.45,54.97,25.77,81.29,40.9,2.02,1.16,3.98-1.74,2-3.05Z"/>
          <path class="cls-1" d="m323.38,46.62c-7.85-10.54-18.99-20.3-31.92-23.7-11.73-3.09-27.42-1.84-37.06,6.09-3.41,2.81.26,7.44,3.85,6.87,4.36-.7,8.65-2.37,13.09-2.5,4.89-.15,10.16.47,14.94,1.43,9.26,1.86,19.32,4.88,26.27,11.58,14.98,14.44,16.65,39.13,10.4,57.96-6.21,18.71-20.59,36.09-37.52,46.12-19.83,11.75-47.89,14.38-66.58-1.12-8.46-7.02-14.5-16.97-17.27-27.57-3.12-11.96-4.94-23.01,2.93-33.57,1.62-2.18-2.03-5.05-3.8-2.96-7.36,8.7-14.04,20.84-14.36,32.49-.34,12.49,6.01,24.23,15.13,32.42,19.85,17.84,49.43,20.34,73.99,12.53,24.46-7.78,46.37-22.61,56.77-46.8,9.88-22.98,5.98-49.35-8.86-69.27Z"/>
          <path class="cls-1" d="m552.61,103.37c.01,5.03.43,10.55-1.25,15.33-1.66,4.73-4.14,9.18-7.1,13.21-6.06,8.25-14.71,14.65-24.32,18.2-19.19,7.09-42.13.28-59.02-9.62-19.48-11.42-31.37-29.51-36.88-51.21-2.78-10.95-4.96-23.48-1.84-34.54,2.83-10.04,7.78-23.33,18.26-27.73,3.72-1.56,1.15-7.73-2.66-6.53-9.38,2.95-16.65,6.93-21.54,15.91-5.28,9.7-4.84,19.53-4.09,30.25,1.47,20.94,7.59,40.49,18.69,58.31,11.33,18.2,25.74,31.81,46.71,37.97,18.6,5.47,39.62,2.09,55.84-8.61,16.38-10.81,30.23-30.85,30.81-50.93.22-7.48-11.64-7.5-11.62,0Z"/>
          <path class="cls-1" d="m401.81,181.74c-1.68-10.56-3.18-21.73-8.61-31.13-5.05-8.75-13.73-17.01-23.61-19.89-7.55-2.2-21.89-.27-27.32,7.6-9.63,7.98-17.14,18.61-23.12,29.81-5.13,9.61-8.54,21.19-4.56,31.76,3.65,9.68,12.67,14.18,21.58,18.04,10.92,4.72,21.36,10.54,33.63,10.42,11.14-.11,20.57-5.19,27.19-14.06,3.12-4.17,5.19-8.73,6.18-13.85,1.16-5.97-.42-12.74-1.37-18.7Zm-13.61,21.46c-3.87,7.1-10.2,12.39-18.36,13.67-9.02,1.41-18.82-1.29-27.32-4.12-6.82-2.28-16.65-6.12-19.99-13.06-4.26-8.87,4.74-19.01,8.89-26.13,5.64-9.67,11.42-20.66,19.4-29.06,5.16-2.47,9.9-3.82,16.2-3.25,8.17.74,14.12,4.17,19.04,10.82,4.96,6.7,8.9,15.51,9.75,23.84,1.01,9.91-2.99,18.79-7.62,27.3Z"/>
          <path class="cls-1" d="m499.41,183.74c-3.99-3.62-8.78-4.99-13.72-6.78-6.43-2.33-13.36-4.5-20.24-3.18-2.94.56-6,2-8.46,4.07-1.02-.14-2.08.09-2.92,1.02-3.64,4.02-6.96,8.94-7.43,14.43-.49,5.77,1.14,11.3,4.74,15.83,6.53,8.21,17.11,12.01,27.32,10.39,5.53-.88,10.28-3.59,14.94-6.54,5.04-3.2,9.46-7.39,10.76-13.46,1.23-5.75-.62-11.81-5-15.77Zm-7.33,15.96c-.86,1.76-1.73,3.46-2.99,4.97-2.44,2.93-6.01,5.17-9.55,6.53-6.35,2.45-14.94.94-18.75-5.21-1.99-3.21-2.99-7.16-3.1-10.68-.03-.83,0-1.99.06-2.64.07-.81.04-1.45.03-2.12,1.08-.23,2.12-.86,2.9-2.07,1.66-2.59,3.51-4.12,6.69-4.92,4.13-1.05,8.43.23,12.31,1.7,3.55,1.35,6.5,3.04,9.56,5.26.1.07,1.12.84.63.45-.48-.39.46.42.55.51.37.34.7.71,1.06,1.06.04.04.14.17.23.28.42.57.82,1.17,1.13,1.82-.13-.28-.19-.86.06.24.17.76.15.27.22,1.15.09,1.23-.41,2.42-1.02,3.68Z"/>
          <path class="cls-1" d="m454.33,251.4c-1.12-2.09-2.67-3.86-4.35-5.52-.82-.81-1.65-1.55-2.56-2.25-.5-.38-1.01-.72-1.52-1.07.42.3-.12-.11-.17-.14-.42-.32-.81-.68-1.25-.97-5.32-3.55-12.64-2.76-17.23,1.65,0,0-.16.15-.22.21-.24.19-.96.76-1.11.89-.04.03-.08.07-.12.11-1.34.53-2.65,1.17-3.84,2-4.75,3.32-7.63,8.26-8.22,14.01-.58,5.75,1.6,11.56,5.67,15.65,3.99,4,9.03,6.13,14.66,6.33,9.92.35,19.55-7.3,22.01-16.82,1.22-4.74.56-9.77-1.76-14.08Zm-8.9,17.69c-.84.78-2.09,1.58-3.52,2.24-.17.05-.75.27-.76.27-.29.08-.59.12-.88.19-.21.05-.23.06-.3.09-.07,0-.09-.02-.3-.01-.6.01-1.19.04-1.78.02-.33-.02-.66-.05-.99-.09-.16-.03-.44-.07-.56-.09-.81-.16-1.59-.41-2.38-.65-.12-.04-.08-.02-.15-.03-.06-.04-.02-.03-.13-.08-.4-.21-.8-.39-1.2-.61-.79-.44-1.58-.89-2.35-1.36-.13-.08-.35-.19-.56-.31-.23-.18-.46-.38-.68-.57-.57-.5-1.09-1.04-1.59-1.6-.09-.1-.28-.28-.46-.46-.17-.24-.34-.48-.5-.73-.27-.41-.52-.83-.74-1.27-.08-.14-.21-.41-.3-.6-.19-.47-.52-1.25-.66-1.55-.2-.54-.37-1.09-.51-1.65-.1-.41-.18-.84-.24-1.26,0-.14-.04-.82-.04-.93,0-.11.02-.22.01-.33.15-.15.35-.2.46-.4,1.62-2.89,3.66-5.39,6.43-6.79.17-.09.2-.11.27-.15.01,0,.02.02.16-.02.35-.1.7-.18,1.06-.25.08-.02.89-.11.87-.12.3-.02.61-.03.92-.06.76-.06,1.44-.2,2.17-.35.09-.02.02,0,.08-.02,1.01-.08,2.01-.02,3.01-.05.81-.02,1.6-.05,2.42.02.31.03.66.04.97.09.06.03.04.01.21.11,1.62.91,2.67,1.47,3.84,2.95,1.78,2.26,2.89,5.31,2.68,8.32-.21,3.05-1.82,6.13-3.96,8.11Z"/>
          <path class="cls-1" d="m152.65,196.05c-14.03.32-27.95,7.79-35.27,19.99-6.92,11.52-5.99,26.75,2.9,36.99,2.59,2.99,7.97-1.01,5.61-4.27-6.19-8.54-3.02-19.68,2.66-27.67,2.87-4.04,6.9-7.3,11.18-9.85,2.43-1.45,4.62-3.23,7.02-4.72,2.47-1.54,5.03-2.9,7.5-4.46,2.61-1.65,1.76-6.08-1.58-6Z"/>
          <path class="cls-1" d="m210.95,218.52c-.48-3.12-1.23-6.16-2.39-9.1-2.21-5.56-5.86-10.7-11.16-13.69-5.53-3.13-12.52-3.43-18.7-2.7-6.83.81-13.41,2.32-20.07,4.01-2.74.7-2.31,5.28.65,5.03,5.69-.47,11.44-.42,17.16-.34,5.12.08,10.98-.61,15.7,1.8,3.72,1.9,6.24,5.47,7.72,9.3,2.1,5.46,1.73,11.28,3.26,16.82,1.39,5.03,8.02,3.6,8.53-1.1.37-3.34-.18-6.72-.69-10.03Z"/>
          <path class="cls-1" d="m212.92,245.64c-1.01-4.97-3.65-9.09-4.98-13.91-.55-1.99-3.65-1.18-3.1.81,1.23,4.47.27,9.51.08,14.13-.18,4.16-.5,8.41-1.03,12.54-.54,4.27-1.56,8.48-2.71,12.61-1.23,4.4-3.9,8.94-3.73,13.54.16,4.3,4.84,5.75,7.92,3.28,3.92-3.14,5.26-9.32,6.5-14.02,1.25-4.74,1.87-9.68,2.14-14.58.27-4.9-.11-9.61-1.09-14.42Z"/>
          <path class="cls-1" d="m637.84,169.62c-2.97,7.67-5.33,15.47-8.65,23.03-3.28,7.46-6.86,14.81-10.79,21.95-3.8,6.91-7.95,13.63-12.38,20.16-4.88,7.2-9.1,14.9-14.45,21.75-.81,1.04.52,2.51,1.5,1.5,5.93-6.1,12.29-11.69,17.47-18.5,5.18-6.81,10.04-13.85,14.6-21.09,9.01-14.29,17.88-29.96,23.35-46.01,2.31-6.79-8.14-9.27-10.65-2.79Z"/>
          <path class="cls-1" d="m580.46,267.68c-5.35,4.37-10.15,9.32-15.38,13.84-5.36,4.63-10.93,9.08-16.43,13.54-10.79,8.74-21.42,18.13-33.66,24.81-2.44,1.33-.35,4.78,2.09,3.69,13.46-6,26.82-11.64,38.61-20.66,5.69-4.36,10.75-9.08,15.61-14.35,5.03-5.44,9.98-10.98,13.65-17.44,1.68-2.95-2.11-5.38-4.5-3.43Z"/>
          <path class="cls-1" d="m648.01,196.17c-6.76,15.08-15.62,28.82-24.76,42.54-9.48,14.25-19.62,27.94-31.08,40.67-22.43,24.91-48.58,46.29-76.8,64.29-4.19,2.67-.6,9.08,3.82,6.74,30.72-16.3,57.75-38.76,80.23-65.21,10.86-12.77,21.08-26.39,29.56-40.86,8.75-14.92,15.16-31.09,21.48-47.16.55-1.4-1.85-2.4-2.47-1.01Z"/>
          <path class="cls-1" d="m493.89,354.13c-17.8.92-35.5,2.97-53.36,2.99-18.22.02-36.16-1.78-54.03-5.35-34.83-6.95-70.66-20.18-99.89-40.62-1.45-1.02-3.31,1.38-1.91,2.51,29.59,23.68,61.62,41.1,98.78,49.64,35.21,8.09,77.07,10.8,111.2-3.07,2.96-1.2,3.07-6.29-.79-6.09Z"/>
          <path class="cls-1" d="m500.75,331.83c-4.56-1.32-9,.42-13.27,1.95-4.38,1.56-8.81,2.8-13.37,3.73-9.13,1.85-18.38,3.21-27.71,3.16-2.59-.01-2.43,3.62,0,3.91,9.72,1.19,19.45,1.76,29.19.58,4.78-.58,9.57-1.3,14.29-2.22,4.86-.95,9.85-2.44,12.68-6.82,1.06-1.64-.08-3.79-1.81-4.29Z"/>
          <path class="cls-1" d="m417.16,338.11c-14.55-5.07-29.76-8.3-44.54-12.66-14.8-4.37-29.34-9.73-43.62-15.56-28.59-11.67-56.43-25.52-84.07-39.27-1.17-.58-2.12,1.07-1.01,1.77,27.16,17.03,54.25,33.99,83.43,47.45,27.08,12.48,58.7,25.73,89.16,23.25,2.88-.24,3.4-4.01.64-4.97Z"/>
          <path class="cls-1" d="m149.22,220.96c-15.01-7.41-29.4-15.88-45.37-21.17-8.08-2.68-16.22-4.34-24.73-4.87-7.53-.47-17.78-1.05-24.13,3.62-3.01,2.21-3.17,7.45,1.11,8.46,7.26,1.71,15.57-.42,23.03-.14,7.68.29,15.47,1.33,23,2.86,15.49,3.14,30.75,8.26,45.28,14.44,2.12.9,3.97-2.12,1.81-3.19Z"/>
          <path class="cls-1" d="m235.33,292.92c-16.58-11.8-33.06-23.83-50.65-34.09-17.08-9.96-34.51-19.47-52.17-28.38-17.14-8.65-35.31-15.07-54.08-19.09-17.47-3.74-39.54-5.81-56.21,2.06-4.95,2.34-2.77,11.07,2.78,10.52,9.5-.94,18.6-3.33,28.24-3.45,9.02-.11,18.3.49,27.15,2.3,18.7,3.83,36.37,11.6,53.66,19.48,16.96,7.73,33.42,16.55,49.64,25.75,16.63,9.43,33.5,18.2,49.69,28.38,2.21,1.39,4.03-2.01,1.97-3.47Z"/>
          <path class="cls-1" d="m228,261.02c-3.77-4.84-9.06-7.7-14.23-10.86-4.96-3.03-10.11-6-15.41-8.39-10.88-4.92-21.95-9.39-32.85-14.28-1.65-.74-3.08,1.69-1.41,2.48,10.81,5.13,20.78,11.39,30.63,18.18,4.81,3.32,9.84,6.37,14.79,9.48,5.11,3.21,9.75,6.72,15.62,8.37,3.12.88,4.53-2.83,2.86-4.98Z"/>
          <path class="cls-1" d="m271.37,301.65c-3.61-3.14-7.93-5.38-12.03-7.8-1.96-1.16-3.89-2.36-5.95-3.35-2.12-1.03-4.21-2.1-6.28-3.22-1.12-.6-2.58-.24-3.22.89-.7,1.22-.14,2.46.89,3.22,1.75,1.3,3.47,2.64,5.16,4.01,1.87,1.52,3.88,2.85,5.87,4.21,3.73,2.55,7.4,5.46,11.55,7.3,1.52.67,3.24.52,4.29-.9.92-1.25,1-3.26-.27-4.37Z"/>
          <path class="cls-1" d="m239.26,76.3c-7.72,7.55-15.92,14.65-23.69,22.2-7.98,7.76-15.87,15.62-23.75,23.49-7.65,7.64-15.13,15.47-22.61,23.28-7.77,8.11-14.46,16.97-21.74,25.49-3.23,3.78,1.86,9.07,5.53,5.53,7.82-7.53,16.01-14.52,23.43-22.46,7.6-8.14,15.16-16.36,22.54-24.7,7.18-8.12,14.36-16.24,21.44-24.45,7.3-8.47,14.14-17.36,21.45-25.79,1.53-1.77-.89-4.26-2.59-2.59Z"/>
          <path class="cls-1" d="m349.4,5.11c-9.39-.56-17.92.19-26.78,3.39-8.99,3.25-17.41,7.58-25.44,12.76-16.74,10.82-29.91,25.74-44.21,39.41-1.92,1.83.91,4.55,2.88,2.88,14.33-12.12,29.8-22.95,45.86-32.66,7.52-4.55,15.49-8.61,23.7-11.76,8.06-3.09,16.36-6.32,24.71-8.5,3.18-.83,2.41-5.35-.71-5.53Z"/>
          <path class="cls-1" d="m300.88,53.32c-6.66,2.33-12.23,6.2-17.98,10.25-5.84,4.11-11.34,8.71-16.6,13.54-10.43,9.57-19.06,20.65-28.76,30.88-1.87,1.98,1.03,4.9,3,3,9.85-9.54,21.52-17.3,32.36-25.68,5.27-4.07,10.64-8.05,15.75-12.33,5.37-4.51,11.01-8.63,15.45-14.06,1.87-2.3.24-6.8-3.21-5.6Z"/>
        </g>
        <g>
          <path class="cls-1" d="m439.27,536.67c-1.04-15.91-3.56-31.94-7.82-47.31-1.95-7.03-4.43-15.03-8.32-21.25-4.16-6.67-7.78-13.08-13.43-18.6-.95-.93-2.7-.02-2.31,1.32.79,2.69,1.33,5.51,2.3,8.14,1.29,3.48,3.01,6.28,3.82,9.99,1.39,6.32,3.41,12.46,5.06,18.73,3.37,12.87,5.81,25.82,7.05,39.08,2.53,27.25,3.08,54.86,1.19,82.17-1.01,14.57-2.72,29.06-6.26,43.26-3.12,12.5-6.35,24.62-12.74,35.91-12.27,21.69-32.88,39.92-56.38,48.42-2.72.98-5.51,1.11-8.28,1.92-3.18.93-6.2,2.53-9.13,4.04-6.17,3.17-11.62,7.05-17.25,11.07-10.9,7.78-28.61,12.69-41.03,5.55-10.58-6.08-22.53-11.81-31.57-20.17-10.17-9.41-17.4-21.07-23.49-33.41-6.06-12.27-13.67-23.59-18.42-36.51-2.33-6.35-3.73-12.94-5.51-19.46-1.81-6.62-3.66-13.64-3.68-20.54-.07-24.13,10.93-46.79,24.71-65.93,14.51-20.16,33.9-36.58,51.11-54.37,17.34-17.92,32.79-37.15,43.65-59.74,1.81-3.77-3.37-6.76-5.67-3.22-12.97,20.01-30.43,36.93-46.94,54-16.52,17.07-32.16,34.43-46.2,53.63-14.06,19.22-24.64,41.75-27.61,65.54-1.8,14.42-3.81,29.7-.59,44.02,3.08,13.71,8.75,27.34,16.86,38.88,8.64,12.29,21.8,20.43,31.15,32.09,7.99,9.96,14.09,21.95,24.96,29.22,6.23,4.16,11.58,4.22,18.73,4.57,6.8.34,13.2.39,19.97-.61,13.58-2.02,27-5.7,39.08-12.35,3.04-1.68,6.26-3.05,9.29-4.73,3.8-2.11,7.02-4.73,11-6.57,6.62-3.06,13.71-5.7,19.89-9.6,10.32-6.51,19.09-15.19,26.47-24.84,16.21-21.21,27.21-46.83,32.05-72.97,5.98-32.29,6.45-66.62,4.3-99.34Z"/>
          <path class="cls-1" d="m225.6,574.66c-10.39,14.18-22.22,27.91-29.77,43.89-6.67,14.12-12.67,33.58-5.41,48.54,2.14,4.41,8.24,1.93,8.54-2.25.55-7.86-.47-15.63.48-23.51.92-7.61,2.81-15.3,5.41-22.51,5.59-15.49,13.92-29.29,23.34-42.7,1.1-1.57-1.47-2.99-2.58-1.47Z"/>
          <path class="cls-1" d="m271.37,535.14c-10.83,12.59-21.66,25.22-31.7,38.46-10.43,13.75-20.96,27.44-27.93,43.34-12.8,29.19-17.2,65.19.65,93.45,2.35,3.73,8.72,1.53,7.39-3.01-2.11-7.19-4.27-14.56-4.94-22.05-.66-7.39-.22-14.84.14-22.24.72-14.99,4.31-30.07,9.69-44.06,5.62-14.61,12.48-28.91,21.25-41.9,8.99-13.32,19.09-25.79,29.21-38.26,2.11-2.6-1.5-6.35-3.74-3.74Z"/>
          <path class="cls-1" d="m404.04,539.08c-.16-2.27-3.44-2.3-3.55,0-.85,17.88-.88,35.79-1.75,53.67-.86,17.9-3.69,35.8-7.5,53.3-3.38,15.5-7.18,30.84-12.58,45.79-2.63,7.29-5.57,14.43-9.07,21.35-3.7,7.34-8.42,14.09-12.21,21.33-1.96,3.73,2.83,7.53,5.94,4.52,11.16-10.81,19.23-26.92,25.3-41.02,6.58-15.28,11.29-31.58,13.63-48.06,2.54-17.89,2.67-35.83,3.05-53.86.4-19.03.06-38.03-1.27-57.02Z"/>
          <path class="cls-1" d="m383.67,593.12c-1.44,27.3-8.5,53.81-17.83,79.44-4.6,12.65-9.88,25.05-16.04,37.02-6.22,12.07-13.82,23.2-20.61,34.93-2.73,4.72,4.39,10.09,7.92,5.71,8.74-10.83,15.43-23.47,21.53-35.92,6.12-12.51,11.45-25.46,15.64-38.74,8.4-26.68,11.47-54.65,12.65-82.51.09-2.11-3.15-1.99-3.26.09Z"/>
          <path class="cls-1" d="m267.18,652.04c-9.9,17.65-17.06,37.63-19.4,57.78-1.11,9.53-1.15,19.37.66,28.82,1.56,8.12,4.97,18.78,13.32,22.02,3.64,1.41,7.03-2.8,6.15-6.15-1.03-3.9-3.86-7-5.48-10.69-1.47-3.33-2.34-6.94-2.97-10.51-1.47-8.31-1.69-16.9-1.57-25.31.28-19.1,3.88-37.06,11.95-54.45.81-1.75-1.67-3.24-2.65-1.5Z"/>
          <path class="cls-1" d="m297.4,627.39c.89-1.49-1.39-2.76-2.33-1.32-13.39,20.35-23.6,42.2-28.89,66.05-2.52,11.37-4.32,23.24-4.49,34.9-.17,12.01.09,25.59,4.01,37.05,1.91,5.61,11.3,5.26,10.9-1.41-.67-11.28-2.99-22.35-3.29-33.71-.31-11.9-.11-23.75,1.58-35.56,3.29-23.04,10.55-46,22.5-66.02Z"/>
          <path class="cls-1" d="m329.68,676.53c-2.32,16.17-6.6,32.33-12.33,47.63-2.83,7.56-6.12,14.96-9.8,22.15-1.71,3.36-3.55,6.9-6.49,9.37-2.49,2.09-5.8,3.36-8.7,4.78-2.17,1.07-2.33,4.84,0,5.86,17.37,7.61,26.26-22.15,30.14-33.44,6.25-18.17,9.69-36.73,11.03-55.86.15-2.18-3.53-2.71-3.85-.5Z"/>
          <path class="cls-1" d="m228.36,706.05c-1.29-5.77-2.92-11.38-3.49-17.29-1.17-12.13-.03-24.85,4.27-36.29.38-1.01-1.22-1.61-1.73-.7-6.58,11.67-10.5,24.13-10.89,37.58-.19,6.55.14,13.57,2.11,19.86,1.76,5.6,5.91,10.31,9.86,14.3.87.88,2.11-.04,1.94-1.11-.83-5.26-.87-10.96-2.08-16.34Z"/>
          <path class="cls-1" d="m388.9,512.26c-1.3-15.54-6.04-30.53-10.43-45.41-.65-2.21-3.92-1.17-3.4,1.04,3.58,14.96,4.07,30.3,4.98,45.59.9,15.02,1.02,29.74.58,44.78-.09,3.23,4.96,3.61,5.58.49,3.02-14.99,3.96-31.26,2.68-46.49Z"/>
          <path class="cls-1" d="m400.74,500.79c-.49-3.66-1.09-7.55-2.47-10.99-1.42-3.53-3.17-6.92-4.61-10.44-.7-1.71-3.34-.5-2.93,1.19.93,3.78.98,7.42,1.38,11.25.37,3.49,1.04,6.97,1.49,10.45.93,7.07,1.69,14.18,2.79,21.22.28,1.78,2.96,1.59,3.36,0,1.86-7.36,1.98-15.2.98-22.68Z"/>
          <path class="cls-1" d="m349.63,509.06c-3.16,10.28-8.05,19.91-11.95,29.93-1.9,4.89-3.97,9.68-5.58,14.68-1.64,5.07-3.63,10.15-5.01,15.29-.49,1.83,1.87,2.5,2.86,1.16,6.4-8.6,11.03-18.71,14.69-28.73,3.74-10.26,5.39-20.99,7.93-31.56.46-1.91-2.37-2.64-2.94-.77Z"/>
          <path class="cls-1" d="m320.71,587.15c-1.06-.6-2.52-.23-3.11.86-.88,1.61-1.71,3.26-2.73,4.78-.95,1.42-1.98,2.82-2.87,4.29-.94,1.56-1.96,3.3-2.58,5-.28.77-.57,1.6-.74,2.41-.21.97-.16,1.9-.45,2.86-.28.92.29,1.95,1.16,2.29.98.38,1.83-.02,2.43-.83.47-.63,1.12-1.01,1.65-1.57.65-.69,1.27-1.6,1.8-2.39.98-1.48,1.76-3.36,2.43-5.01.66-1.63,1.22-3.31,1.82-4.97.57-1.58,1.35-3.09,2.06-4.62.52-1.12.27-2.47-.86-3.11Z"/>
          <path class="cls-1" d="m335.13,470.79c-9.09,20.14-19.76,39.29-31.53,57.97-5.79,9.18-11.8,18.21-17.66,27.34-5.99,9.34-13.02,18.19-18.21,28-1.35,2.56,1.87,4.97,4,3.05,7.98-7.22,14.22-16.46,20.53-25.13,6.59-9.05,12.43-18.61,17.89-28.38,10.91-19.52,20.19-40.1,28.64-60.79,1-2.44-2.53-4.58-3.66-2.07Z"/>
          <path class="cls-1" d="m312.84,546.72c-6.89,10.59-14.91,20.37-22.12,30.73-7.11,10.22-14.88,20.34-20.43,31.53-1.01,2.04,1.48,4.03,3.2,2.44,9.24-8.58,16.25-19.46,23.15-29.93,7.03-10.66,12.4-22.28,18.53-33.45.84-1.52-1.39-2.76-2.33-1.32Z"/>
          <path class="cls-1" d="m330.42,628.7c-8.48,24.04-17.38,47.87-24.73,72.29-3.55,11.8-7,23.62-10.41,35.47-2.41,8.39-8.3,25.61-20.62,19.88-4.94-2.3-8.55,4.18-4.15,7.31,8.95,6.36,20.23,1.71,26.34-6.27,8.08-10.55,10.64-25.75,14.22-38.27,8.47-29.68,15.48-59.55,22.51-89.59.48-2.07-2.46-2.79-3.15-.83Z"/>
        </g>
      </g>
      <path class="cls-1" d="m207,80.24c-2.12,16.4-4.52,32.79-6.02,49.26-.13,1.46,2.33,1.8,2.57.33,2.64-16.33,4.4-32.79,6.42-49.21.21-1.68-2.75-2.08-2.97-.38Z"/>
      <path class="cls-1" d="m220.78,63.54c-6.84,27.1-13.18,54.74-15.52,82.63-.16,1.92,3.01,2.35,3.37.43,5.21-27.41,9.25-54.97,15.54-82.18.51-2.19-2.84-3.09-3.39-.89Z"/>
      <path class="cls-1" d="m232.86,58.07c-2.94,14.62-6.03,29.2-9.15,43.78-1.56,7.29-3.12,14.57-4.68,21.86-.72,3.36-1.46,6.72-2.14,10.09-.7,3.46-1.94,7.23-1.53,10.75.2,1.72,2.53,2.73,3.51.93,1.7-3.13,1.97-6.99,2.6-10.47.62-3.39,1.17-6.8,1.75-10.2,1.25-7.37,2.5-14.74,3.75-22.11,2.5-14.73,5.02-29.46,7.7-44.16.21-1.18-1.57-1.67-1.81-.48Z"/>
      <path class="cls-1" d="m252.3,35.05c-4.47,20.84-9.37,41.57-14.08,62.36-4.68,20.63-10.55,41.56-13.57,62.5-.44,3.04,3.86,4.35,4.73,1.24,5.71-20.38,8.82-41.91,12.86-62.68,4.08-20.95,8.01-41.92,12.35-62.82.31-1.48-1.97-2.09-2.29-.6Z"/>
      <path class="cls-1" d="m266.45,37.76c-4.76,21.26-9.8,42.46-14.45,63.74-2.28,10.44-4.64,20.87-6.83,31.34-2.14,10.2-5.1,20.67-5.84,31.07-.24,3.4,4.62,3.63,5.61.72,3.39-9.98,4.71-21.02,6.71-31.37,2.03-10.52,3.91-21.06,5.86-31.59,3.91-21.07,7.43-42.22,11.23-63.31.27-1.48-1.95-2.1-2.29-.6Z"/>
      <path class="cls-1" d="m288.29,34.42c-9.18,40.81-19.94,81.26-32.29,121.23-1.1,3.55,4.54,5.05,5.6,1.47,11.88-40.15,21.64-80.86,29.21-122.03.3-1.63-2.15-2.32-2.52-.66Z"/>
      <path class="cls-1" d="m303.23,38.88c-3.95,19.69-8.05,39.34-12.24,58.98-2.09,9.82-4.12,19.65-6.13,29.49-.93,4.54-1.86,9.08-2.79,13.62-.95,4.66-2.69,9.68-2.17,14.43.25,2.29,3.37,3.61,4.65,1.23,2.28-4.24,2.57-9.41,3.43-14.11.83-4.57,1.66-9.13,2.49-13.7,1.8-9.9,3.58-19.79,5.3-29.7,3.44-19.82,6.96-39.62,10.62-59.4.38-2.04-2.74-2.9-3.15-.83Z"/>
      <path class="cls-1" d="m318.6,51.35c-2.7,15.42-5.4,30.83-8.11,46.25-2.62,14.92-6.12,29.99-7.21,45.12-.16,2.21,3.21,2.54,3.77.49,4.02-14.73,5.69-30.24,8.19-45.29l7.54-45.46c.45-2.71-3.7-3.85-4.18-1.1Z"/>
      <path class="cls-1" d="m124.79,221.57c-.37-1.48-2.64-.88-2.29.6,1.62,6.75,3.24,13.5,4.86,20.25.38,1.58,2.84.94,2.45-.64-1.67-6.74-3.34-13.47-5.01-20.21Z"/>
      <path class="cls-1" d="m141.82,254.99c-.59-2.33-1.16-4.66-1.73-6.99-1.04-4.33-2.03-8.68-2.97-13.04-1.95-9.05-3.66-18.14-5.17-27.27-.29-1.77-2.96-1.04-2.68.7,1.44,9.15,3.09,18.26,4.96,27.33.9,4.36,1.86,8.72,2.87,13.06.54,2.34,1.1,4.67,1.67,7,.51,2.1.84,4.33,2.02,6.16.65,1.01,2.14.61,2.21-.58.14-2.17-.66-4.29-1.19-6.38Z"/>
      <path class="cls-1" d="m140.75,206.59c-.29-2.09-3.94-1.64-3.69.48,2.46,21.1,5.18,42.79,11.57,63.11.69,2.19,3.75,1.31,3.39-.89-3.45-20.97-8.39-41.61-11.27-62.7Z"/>
      <path class="cls-1" d="m150.44,200.12c-.43-2.33-3.96-1.38-3.55.93,4.36,24.75,7.62,50.02,13.88,74.37.36,1.39,2.72,1.18,2.57-.33-2.62-25.15-8.35-50.11-12.9-74.97Z"/>
      <path class="cls-1" d="m170.46,256.48c-1-6.52-2-13.05-3.01-19.57-2-13.04-4.01-26.09-6.01-39.13-.23-1.49-2.83-1.18-2.65.34l4.71,39.3c.79,6.55,1.57,13.1,2.36,19.65.72,6.03.59,12.98,2.45,18.76.85,2.64,4.7,2.21,4.81-.62.24-6.09-1.74-12.71-2.67-18.73Z"/>
      <path class="cls-1" d="m186.25,257.63c-.77-6.84-1.64-13.67-2.63-20.48-2.05-14.15-4.6-28.21-7.6-42.19-.22-1.04-1.77-.61-1.58.41,2.64,14.24,4.83,28.55,6.49,42.94.8,6.96,1.49,13.94,2.06,20.93.53,6.56.46,13.34,1.49,19.84.34,2.12,3.55,1.54,3.61-.47.19-6.92-1.07-14.12-1.84-20.99Z"/>
      <path class="cls-1" d="m195.33,247.27c-1.31-16.04-2.63-32.08-3.86-48.12-.09-1.14-1.85-1.16-1.79,0,.81,16.04,1.52,32.08,2.25,48.12.72,15.94.56,32.28,2.43,48.12.34,2.89,4.67,3.07,4.65,0-.14-15.97-2.38-32.2-3.67-48.12Z"/>
      <path class="cls-1" d="m358.33,143.72c-4.78,2.7-9.57,5.41-14.35,8.11-2.35,1.33-4.7,2.66-7.06,3.99-1.14.64-2.27,1.28-3.41,1.93-1.2.68-2.61,1.25-3.54,2.29-.73.82-.03,2.07,1.06,1.84,1.36-.28,2.56-1.21,3.74-1.91,1.12-.66,2.25-1.32,3.37-1.99,2.33-1.37,4.66-2.74,6.98-4.11,4.74-2.79,9.47-5.58,14.21-8.37,1.13-.67.14-2.42-1.01-1.77Z"/>
      <path class="cls-1" d="m378.28,140.59c-7.89,3.96-15.65,8.12-23.41,12.34-3.81,2.07-7.62,4.14-11.42,6.21-3.71,2.02-8.05,3.76-11.32,6.43-1.35,1.1.09,3.47,1.68,2.93,3.98-1.34,7.79-4.1,11.46-6.16,3.78-2.12,7.57-4.23,11.35-6.35,7.7-4.31,15.36-8.65,22.91-13.22,1.4-.85.2-2.93-1.25-2.2Z"/>
      <path class="cls-1" d="m387.74,150.03c-22.07,10.39-44.53,19.93-66.51,30.5-3.17,1.52-.45,6.28,2.7,4.75,21.87-10.64,43.23-22.3,65.02-33.13,1.42-.71.2-2.79-1.21-2.13Z"/>
      <path class="cls-1" d="m394.95,160.31c-12.75,6.21-25.56,12.23-38.46,18.11-6.33,2.88-12.59,5.94-18.87,8.94-5.95,2.84-13.2,5.49-18.32,9.67-1.91,1.55.16,4.48,2.27,3.96,6.16-1.52,12.46-5.64,18.07-8.56,6.38-3.32,12.79-6.59,19.1-10.03,12.42-6.77,24.9-13.36,37.5-19.81,1.5-.77.21-3-1.29-2.27Z"/>
      <path class="cls-1" d="m398.6,174.22c-21.43,10.81-42.93,21.46-64.25,32.48-2.66,1.37-.34,5.44,2.3,4.04,21.18-11.25,42.15-22.86,63.21-34.33,1.44-.78.2-2.93-1.25-2.2Z"/>
      <path class="cls-1" d="m396.35,190.31c-8.6,3.96-17.26,7.77-25.8,11.85-4.12,1.97-8.24,3.94-12.36,5.9-2.06.98-4.1,1.99-6.15,3.01-2.16,1.08-4.56,1.97-6.39,3.57-1.44,1.26.09,3.45,1.76,3.07,2.2-.49,4.2-1.85,6.2-2.89,2.17-1.12,4.33-2.26,6.47-3.42,4.01-2.16,8.01-4.33,12.02-6.49,8.3-4.49,16.45-9.22,24.69-13.82.51-.29.07-1.02-.44-.78Z"/>
      <path class="cls-1" d="m431.98,17.58c-2.09,13.26-4.19,26.52-6.28,39.78-2.03,12.87-4.92,25.91-5.59,38.92-.13,2.43,3.56,2.84,4.17.54,3.34-12.63,4.56-26,6.55-38.91l6.04-39.05c.49-3.18-4.38-4.51-4.89-1.28Z"/>
      <path class="cls-1" d="m446.03,20.08c-2.55,15.8-4.86,31.62-6.74,47.52-1.92,16.21-4.81,33.03-4.04,49.38.05,1.11,1.76,1.44,2,.26,3.23-15.58,3.5-31.93,5.05-47.74,1.61-16.42,3.29-32.84,5.17-49.23.09-.82-1.31-1.01-1.44-.19Z"/>
      <path class="cls-1" d="m454.34,36.94c-3.02,16.33-5.74,32.71-7.86,49.18-1,7.79-1.93,15.59-2.77,23.4-.88,8.11-2.42,16.7-2,24.85.11,2.12,3.36,2.77,3.85.5,1.62-7.59,1.63-15.71,2.33-23.44.72-7.96,1.52-15.91,2.41-23.85,1.86-16.71,3.88-33.42,6.25-50.06.2-1.42-1.94-2.05-2.21-.58Z"/>
      <path class="cls-1" d="m464,47.46c-3.91,30.73-7.85,61.41-10.35,92.29-.11,1.32,2.14,1.64,2.33.3,4.2-30.78,6.95-61.66,9.74-92.59.1-1.11-1.58-1.07-1.71,0Z"/>
      <path class="cls-1" d="m476.91,42.98c-1.88,18.05-3.77,36.1-5.65,54.15-.92,8.85-1.85,17.7-2.77,26.55-.94,9.04-2.76,18.52-2.52,27.61.07,2.58,4.11,3.33,4.65.6,1.66-8.46,1.52-17.48,2.07-26.08.59-9.2,1.17-18.41,1.76-27.61,1.18-18.4,2.35-36.81,3.53-55.22.05-.69-.99-.67-1.06,0Z"/>
      <path class="cls-1" d="m491.03,50.47c-1.73,16.95-3.46,33.9-5.19,50.85-.85,8.31-1.7,16.62-2.54,24.93-.87,8.53-2.58,17.36-2.6,25.92,0,2.21,3.49,2.79,3.93.51,1.52-7.95,1.54-16.37,2.26-24.44.78-8.64,1.56-17.28,2.33-25.92,1.55-17.28,3.11-34.57,4.66-51.85.17-1.84-2.67-1.81-2.85,0Z"/>
      <path class="cls-1" d="m500.5,59.75c-2.19,16.48-4.38,32.96-6.64,49.43-1.13,8.23-2.28,16.46-3.39,24.7-1.05,7.78-2.59,15.79-2.73,23.64-.06,3.14,4.88,3.89,5.53.71,1.57-7.7,1.85-15.84,2.52-23.66.71-8.29,1.39-16.58,2.08-24.86,1.39-16.58,2.84-33.15,4.31-49.73.08-.96-1.56-1.18-1.68-.22Z"/>
      <path class="cls-1" d="m512.5,66.97c-2.56,32.11-5,64.22-7.28,96.35-.15,2.1,3.11,2.08,3.26,0,2.39-32.11,4.6-64.22,6.7-96.35.11-1.74-2.55-1.71-2.69,0Z"/>
      <path class="cls-1" d="m527.02,76.65c-3.54,25.01-7.29,50-10.46,75.06-.4,3.15,4.62,3.17,4.97,0,2.74-24.91,4.88-49.88,7.26-74.83.1-1-1.62-1.24-1.76-.23Z"/>
      <path class="cls-1" d="m534.81,84.79c-.96,11.25-2.13,22.49-3.28,33.72-.56,5.5-1.17,11-1.83,16.5-.65,5.46-2.3,11.65-1.7,17.12.23,2.08,2.87,2.48,3.61.47,1.8-4.94,1.63-11.07,2.09-16.27.51-5.71.98-11.43,1.39-17.15.83-11.45,1.24-22.91,1.51-34.38.03-1.17-1.7-1.13-1.79,0Z"/>
      <path class="cls-1" d="m549.68,95.76c-.77-.6-2.12-.52-2.35.64-1.59,7.85-3,15.74-4.46,23.61-.73,3.94-1.46,7.88-2.18,11.82-.71,3.82-1.7,7.68-1.77,11.57-.05,2.66,3.74,3.01,4.49.58,1.18-3.81,1.42-7.93,1.96-11.88.54-3.99,1.09-7.98,1.63-11.96.89-6.51,1.76-13.02,2.58-19.53.79.55,2.09.27,2.02-.96-.08-1.62-.63-2.86-1.92-3.88Z"/>
      <path class="cls-1" d="m468.16,178.79c-4.22,6.78-8.45,13.57-12.67,20.35-.67,1.07,1.03,2.03,1.7.97,4.3-6.74,8.59-13.48,12.89-20.23.76-1.19-1.16-2.29-1.91-1.09Z"/>
      <path class="cls-1" d="m473.85,182.53c-3.18,4.91-6.37,9.82-9.55,14.72-1.59,2.45-3.17,4.91-4.73,7.39-.73,1.15-1.46,2.31-2.19,3.46-.78,1.23-1.87,2.5-2.16,3.95-.32,1.62,1.44,2.52,2.66,1.53,1.14-.92,1.76-2.52,2.48-3.78.68-1.18,1.36-2.36,2.04-3.54,1.46-2.53,2.89-5.07,4.31-7.62l8.55-15.29c.51-.92-.85-1.68-1.42-.81Z"/>
      <path class="cls-1" d="m482.94,183.28c-2.99,5.12-5.99,10.24-8.98,15.36-1.47,2.52-2.94,5.03-4.41,7.55-1.48,2.53-3.4,5.11-4.36,7.89-.69,2,2.32,3.8,3.69,2.12,1.86-2.29,3.05-5.27,4.42-7.87,1.36-2.58,2.73-5.16,4.09-7.73,2.77-5.25,5.54-10.49,8.32-15.74.95-1.8-1.73-3.34-2.76-1.57Z"/>
      <path class="cls-1" d="m489.82,190.05c-5.36,8.73-10.73,17.47-16.09,26.2-1.54,2.51,2.63,4.88,3.97,2.25,4.65-9.13,9.31-18.27,13.96-27.41.62-1.21-1.13-2.22-1.84-1.05Z"/>
      <path class="cls-1" d="m431.7,261.3c-1.15-4.47-2.11-8.99-2.9-13.53-.29-1.68-2.73-.96-2.52.66.6,4.59,1.36,9.16,2.32,13.69.92,4.39,1.71,9.2,3.82,13.19.64,1.22,2.93.77,2.74-.72-.57-4.51-2.32-8.89-3.45-13.28Z"/>
      <path class="cls-1" d="m433.69,245.83c-.37-1.03-2.03-.6-1.66.43,3.37,9.46,6.2,19.11,8.48,28.89.25,1.08,1.91.64,1.66-.43-2.27-9.78-5.1-19.43-8.48-28.89Z"/>
      <path class="cls-1" d="m445.48,255.23c-1.19-4.28-2.18-8.6-3-12.97-.44-2.37-4.09-1.41-3.63.95,1.7,8.77,3.94,17.75,7.51,25.97.77,1.78,3.73.55,3.14-1.28-1.35-4.23-2.85-8.39-4.04-12.67Z"/>
      <path class="cls-1" d="m246.72,657.27c4.31-10.63,8.79-21.47,14.54-31.39.84-1.45-1.31-3.22-2.41-1.84-7.71,9.59-15.76,18.46-21.62,29.36-5.71,10.63-10.36,23.53-10.93,35.65-.52,11-.15,23.85,3.48,34.38,1.69,4.92,4.27,9.52,6.72,14.09,2.6,4.86,4.86,10.26,8.86,14.15,4.62,4.49,11.3-2.29,7.04-7.04-3.5-3.9-7.66-6.71-10.26-11.43-2.52-4.58-3.67-9.72-4.95-14.74-2.79-11.01-2.03-20.35.31-31.31,2.21-10.36,5.24-20.05,9.22-29.88Z"/>
      <path class="cls-1" d="m297.79,701c-4.65,9.71-8.25,19.85-12.5,29.72-1.85,4.3-3.95,8.5-6.56,12.39-2.7,4.02-6.5,6.65-9.88,10.01-2.93,2.93-2.93,7.92,0,10.84,3.13,3.13,7.67,2.69,10.84,0,3.98-3.38,6.38-8.66,8.49-13.33,2.2-4.87,3.91-9.94,5.19-15.13,2.74-11.11,3.16-22.65,6.94-33.49.51-1.46-1.86-2.44-2.53-1.03Z"/>
    </g>
  </g>
</svg>