<?xml version="1.0" encoding="UTF-8"?>
<svg id="Layer_2" data-name="Layer 2" xmlns="http://www.w3.org/2000/svg" viewBox="0 0 34.78 35.66">
  <defs>
    <style>
      .cls-1 {
        fill: #4e5150;
        stroke-width: 0px;
      }
    </style>
  </defs>
  <g id="OBJECTS">
    <g>
      <path class="cls-1" d="m32.79,15.17c-.28.3-.58.59-.87.88h0c-.33.34-.65.69-1,1.01-.07.06-.14.09-.22.14-.68.54-1.47,1.01-2.17,1.32-1.15.5-2.48.91-3.75.97-2.79.13-5.7-1.15-7.49-3.18-1-1.14-1.83-2.6-1.86-4.1-.04-1.53.68-2.94,1.53-4.19.83-1.23,1.84-2.37,3.1-3.21.66-.43,1.32-.75,2.08-.98.78-.24,1.83-.63,2.67-.51.12.02.22-.04.3-.12.3,0,.49-.39.18-.6-5.17-3.49-11.79-3.41-17.05-.04C3.16,5.81-.2,11.88,0,17.97c.21,5.94,3.62,12.37,8.99,15.2,2.88,1.52,6.35,2.49,9.61,2.49,3.21,0,6.14-1.39,8.95-2.76,5.72-2.79,9.84-12.36,5.23-17.73Zm-1.12,9.26c-.67,2.64-2.26,4.63-4.2,6.45-2.23,2.09-4.77,2.87-7.81,2.79-2.96-.08-5.76-.56-8.27-2.24-4.21-2.82-7.5-6.9-8.43-11.97-.93-5.07.79-10.5,4.52-14.07,3.71-3.55,9.46-4.57,14.44-3.3-.28.03-.56.07-.84.15-1.5.42-2.79,1.25-3.88,2.3-2.07,2-4.02,4.9-3.88,7.81.13,2.83,2.1,5.48,4.36,7.2,2.29,1.74,5.12,2.66,8.06,2.3,1.62-.2,2.99-.73,4.27-1.7.65-.49,1.13-1.01,1.52-1.57.37,1.94.63,3.89.13,5.84Z"/>
      <path class="cls-1" d="m31.28,17.84c-.44,2.21-1.54,3.89-3.47,5.08-1.94,1.2-4.17,1.83-6.45,1.81-4.3-.04-8.29-2.34-10.7-5.86-.05-.07-.16-.01-.11.07,2.25,4.13,6.57,6.73,11.28,6.83,2.47.05,5.14-.48,7.23-1.84,1.98-1.29,3.7-3.43,3.62-5.9-.03-.77-1.23-1-1.39-.18Z"/>
      <path class="cls-1" d="m31.05,19.48c-.6,1.13-.99,2.31-1.79,3.34-.73.94-1.65,1.74-2.67,2.35-2.42,1.45-5.42,1.89-8.18,1.44-4.74-.77-9.03-3.99-10.99-8.4-.05-.1-.22-.03-.18.07,1.91,4.89,6.27,8.68,11.5,9.58,3.02.52,6.22.12,8.9-1.41,2.27-1.3,4.77-3.81,4.96-6.57.06-.83-1.17-1.12-1.54-.41Z"/>
      <path class="cls-1" d="m32.3,20.99c-.12-.91-1.56-.68-1.56.2.02,3.93-4.08,6.75-7.45,7.85-3.8,1.24-8.29.72-11.69-1.42-.16-.1-.29.14-.14.25,3.77,2.74,8.36,3.68,12.86,2.26,3.83-1.21,8.6-4.58,7.97-9.14Z"/>
      <path class="cls-1" d="m31.38,23.72c-.52,1-.88,2.04-1.52,2.98-.64.94-1.45,1.78-2.34,2.47-2,1.54-4.47,2.4-6.98,2.52-5.22.25-10.46-2.43-13.79-6.37-.07-.09-.19.04-.12.12,3.63,4.52,8.51,7.83,14.53,7.53,2.72-.13,5.33-1.01,7.48-2.69,1.89-1.47,3.8-3.76,4.1-6.21.09-.73-1.04-.97-1.35-.36Z"/>
      <path class="cls-1" d="m7.08,7.06c.77-1.42,1.78-2.55,2.86-3.74.4-.44-.12-1.11-.61-.72-2.51,1.97-4.11,5.34-4.61,8.44-.55,3.44.23,6.79,2.05,9.72.05.08.17.02.13-.06-1.4-2.81-1.91-6.22-1.35-9.31.27-1.52.79-2.98,1.53-4.33Z"/>
      <path class="cls-1" d="m5.68,5.83c-1.7,2.5-2.77,5.49-2.82,8.52-.06,3.1.88,6.19,2.49,8.83.13.21.45.03.34-.19-2.8-5.23-2.37-11.72.95-16.62.39-.58-.56-1.12-.95-.54Z"/>
      <path class="cls-1" d="m12.49,1.34c-1.42.13-2.43,1.32-3.24,2.39-.88,1.16-1.56,2.45-2.05,3.81-.95,2.61-.81,5.67-.12,8.33.03.1.18.06.16-.04-.52-2.6-.09-5.05.81-7.51.42-1.14.95-2.23,1.64-3.24.75-1.09,1.66-2.25,2.93-2.72.51-.19.51-1.09-.13-1.03Z"/>
      <path class="cls-1" d="m15.78.53c-3.43.19-5.6,3.5-6.71,6.42-1.23,3.22-1.21,6.77-.16,10.03.05.16.3.1.26-.07-.72-2.98-.46-6.11.54-9,.93-2.67,2.88-6.23,6.06-6.41.62-.03.62-1,0-.97Z"/>
      <path class="cls-1" d="m18.41.42c-1.03-.68-2.87.35-3.72.96-1.24.89-2.08,2.15-2.68,3.53-1.35,3.1-1.68,6.73-1.18,10.06.01.09.14.06.13-.03-.24-3.13.25-6.25,1.55-9.11.55-1.21,1.3-2.4,2.31-3.28.52-.46,1.12-.82,1.78-1.05.56-.2,1.28-.12,1.77-.44.23-.15.29-.47.04-.64Z"/>
      <path class="cls-1" d="m20.86.6c-.99-.04-2.05.35-2.93.77-.91.43-1.78,1.11-2.48,1.83-1.33,1.37-2.15,3.31-2.39,5.19-.01.09.15.11.16.02.35-1.88,1.3-3.45,2.72-4.72.7-.63,1.48-1.08,2.34-1.44.88-.37,1.78-.5,2.69-.73.53-.13.4-.9-.12-.92Z"/>
      <path class="cls-1" d="m31.56,18.59c-2.34,2.29-4.93,4.13-8.33,4.24-3.28.11-6.56-1.23-8.82-3.62-.11-.12-.28.05-.18.18,2.2,2.79,5.55,4.55,9.13,4.51,3.43-.03,7.3-1.57,9.2-4.55.39-.62-.5-1.26-1.01-.77Z"/>
    </g>
  </g>
</svg>