<?xml version="1.0" encoding="UTF-8"?>
<svg id="Layer_2" data-name="Layer 2" xmlns="http://www.w3.org/2000/svg" viewBox="0 0 153.09 135.94">
  <defs>
    <style>
      .cls-1 {
        fill: #4e5150;
        stroke-width: 0px;
      }
    </style>
  </defs>
  <g id="OBJECTS">
    <g>
      <path class="cls-1" d="m40.61,69.61c-6.45-6.23-14.01-11.49-21.54-16.31-.62-.39-1.14.57-.56.98,3.66,2.57,7.24,5.26,10.71,8.08,3.42,2.78,6.69,5.74,10.06,8.58.91.77,2.21-.48,1.33-1.33Z"/>
      <path class="cls-1" d="m21.38,68.07c-.59-4.75-1.2-9.48-1.86-14.22-.11-.76-1.41-.6-1.35.17.4,4.82.84,9.63,1.31,14.45.47,4.74.75,9.59,1.74,14.25.19.91,1.61.71,1.6-.21-.05-4.82-.86-9.67-1.45-14.45Z"/>
      <path class="cls-1" d="m39.46,70.37c-2.91,5.7-6.01,11.36-8.19,17.39-.3.84.96,1.28,1.4.57,3.31-5.4,5.76-11.3,8.37-17.06.47-1.05-1.04-1.95-1.58-.9Z"/>
      <path class="cls-1" d="m32.01,86.63c-3.22-1.55-6.49-2.98-9.78-4.35-.72-.3-1.2.76-.51,1.14,3.14,1.73,6.29,3.4,9.51,4.97,1.08.53,1.87-1.23.78-1.75Z"/>
      <path class="cls-1" d="m21.44,81.74c-.99.16-1.66.87-2.39,1.51-.72.63-1.44,1.25-2.15,1.88-1.51,1.35-3,2.71-4.51,4.06-2.96,2.67-6.03,5.24-9.08,7.81-.59.5.25,1.32.84.84,3.14-2.56,6.28-5.12,9.51-7.57,1.56-1.18,3.12-2.36,4.67-3.55.74-.57,1.47-1.15,2.21-1.73.84-.66,1.58-1.17,1.96-2.19.24-.67-.48-1.16-1.06-1.06Z"/>
      <path class="cls-1" d="m18.04,53.82c-3.23,4.25-6.2,8.72-9.17,13.15-2.97,4.43-6.01,8.81-8.74,13.4-.57.96.84,1.68,1.47.83,3.17-4.3,6.04-8.81,8.98-13.26,2.93-4.44,5.89-8.9,8.54-13.51.41-.71-.61-1.23-1.08-.61Z"/>
      <path class="cls-1" d="m3.56,93.27c-.27-1.4-.54-2.8-.83-4.2-.55-2.74-1.15-5.47-1.7-8.21-.11-.54-1.02-.44-.97.12.28,2.79.61,5.57,1.09,8.34.23,1.35.51,2.7.81,4.04.31,1.39.56,2.81,1.16,4.11.24.52,1.06.26,1.05-.28-.01-1.33-.36-2.62-.62-3.92Z"/>
      <path class="cls-1" d="m47.04,65.47c-1.96-1.41-4.35-2.42-6.54-3.47-2.35-1.12-4.72-2.24-7.12-3.27-4.68-2.01-9.42-3.85-14.27-5.44-.54-.18-.91.65-.38.88,4.64,2.05,9.28,4.1,13.88,6.23,2.24,1.04,4.49,2.06,6.72,3.14,2.26,1.09,4.53,2.43,6.92,3.23.74.25,1.44-.83.79-1.3Z"/>
      <path class="cls-1" d="m46.13,71.36c-.45-.23-.99-.32-1.47-.45-.43-.12-.86-.24-1.29-.36-.89-.25-1.8-.46-2.7-.68-.35-.08-.71.12-.8.47-.1.37.13.69.47.8.88.3,1.76.61,2.64.88.43.13.85.26,1.28.39.49.15.98.35,1.48.4.78.08,1.06-1.12.39-1.46Z"/>
      <path class="cls-1" d="m29.8,126.26c-3.89-5.12-8.18-9.94-12.38-14.82-4.2-4.87-8.41-9.78-12.95-14.34-.61-.62-1.8.21-1.26.96,3.73,5.2,7.85,10.14,11.95,15.06,4.13,4.95,8.17,10,12.59,14.69.98,1.04,2.95-.38,2.05-1.56Z"/>
      <path class="cls-1" d="m42.54,121.95c-1.21-3.3-3.13-6.38-4.77-9.48-1.71-3.24-3.41-6.5-5.09-9.75-3.34-6.45-6.65-12.92-9.88-19.43-.45-.91-1.79-.13-1.37.78,3.04,6.54,6.16,13.03,9.41,19.47,1.63,3.21,3.28,6.41,4.97,9.6,1.66,3.14,3.19,6.55,5.33,9.4.46.62,1.72.32,1.4-.57Z"/>
      <path class="cls-1" d="m41.87,117.37c-.45-1.42-.9-2.83-1.36-4.24l-2.78-8.68c-1.86-5.8-3.91-11.52-5.89-17.27-.26-.76-1.44-.46-1.21.32,1.75,5.89,3.42,11.79,5.29,17.64.93,2.89,1.85,5.79,2.78,8.68.45,1.41.9,2.83,1.36,4.24.48,1.46.86,3.04,1.53,4.43.46.94,1.75.26,1.6-.65-.25-1.5-.87-3.01-1.33-4.46Z"/>
      <path class="cls-1" d="m43.3,121.94c-.19-.47-.64-.63-1.11-.56-2.4.34-4.76,1.35-7.03,2.17-2.32.84-4.57,1.78-6.76,2.9-.86.44-.29,1.88.64,1.57,2.33-.77,4.62-1.6,6.93-2.43,2.3-.82,4.74-1.41,6.93-2.47.42-.21.57-.77.4-1.18Z"/>
      <path class="cls-1" d="m51.65,125.05c-1.46-.75-3.06-1.22-4.61-1.75-1.55-.52-3.11-.98-4.69-1.39-.61-.16-1.04.78-.43,1.06,1.49.68,3,1.3,4.53,1.89,1.52.58,3.05,1.22,4.64,1.56.79.17,1.34-.96.55-1.36Z"/>
      <path class="cls-1" d="m55.44,117.51c-.15-.37-.48-.53-.85-.36-.4.18-.48.57-.63.95-.14.36-.29.72-.43,1.08-.29.75-.58,1.5-.87,2.25-.57,1.47-1.14,2.94-1.71,4.41-.25.65.88,1.13,1.15.47.6-1.46,1.2-2.92,1.8-4.38.29-.72.59-1.44.88-2.15.15-.36.3-.73.44-1.09.15-.38.39-.76.23-1.17Z"/>
      <path class="cls-1" d="m50.86,125.52c-3.69.43-7.35.79-11.07,1-3.69.21-7.39.38-11.08.55-.69.03-.7,1.08,0,1.07,3.7-.05,7.39-.18,11.08-.36,3.69-.18,7.38-.28,11.07-.4,1.22-.04,1.17-2,0-1.87Z"/>
      <path class="cls-1" d="m13.48,105.05c-.55-1.28-1.12-2.55-1.66-3.83-1.09-2.56-2.14-5.13-3.11-7.74-.21-.58-1.12-.36-.94.25.78,2.67,1.62,5.33,2.56,7.94.45,1.24.9,2.49,1.41,3.71.26.62.52,1.24.79,1.86.29.68.52,1.42,1.09,1.91.45.4,1.21.14,1.21-.5,0-1.2-.87-2.52-1.34-3.6Z"/>
      <g>
        <g>
          <path class="cls-1" d="m67.19.66c-1.22.97-2.22,2.33-3.26,3.48-1.1,1.22-2.21,2.42-3.29,3.65-2.14,2.42-4.24,4.88-6.38,7.3-.42.47.25,1.15.7.7,2.3-2.33,4.64-4.62,6.92-6.96,1.11-1.14,2.21-2.29,3.31-3.43,1.14-1.18,2.46-2.33,3.39-3.68.61-.88-.67-1.62-1.38-1.05Z"/>
          <path class="cls-1" d="m69.72,20.64c-.06-2.17-.12-4.34-.17-6.52-.12-4.35-.33-8.69-.55-13.03-.04-.83-1.28-.84-1.29,0-.06,4.34-.09,8.69-.04,13.03.03,2.17.06,4.34.09,6.52.03,2.09-.12,4.27.29,6.32.16.8,1.5.84,1.63,0,.32-2.07.1-4.24.05-6.32Z"/>
          <path class="cls-1" d="m59.14,26.52c-.39-1.18-.79-2.36-1.2-3.54-.84-2.45-1.72-4.88-2.56-7.33-.25-.72-1.37-.45-1.16.31.67,2.49,1.29,5,1.96,7.49.32,1.2.65,2.4.98,3.6.18.64.36,1.29.54,1.93.18.63.3,1.32.67,1.87.53.8,1.88.56,1.88-.5,0-1.26-.71-2.64-1.11-3.83Z"/>
          <path class="cls-1" d="m68.55,26.35c-.52-.19-.97.1-1.43.33-.35.17-.69.34-1.04.5-.75.35-1.5.7-2.25,1.03-1.5.67-3.02,1.32-4.54,1.95-.85.35-.26,1.78.61,1.49,1.62-.54,3.2-1.13,4.77-1.79.76-.32,1.52-.65,2.27-1,.38-.17.75-.34,1.12-.52.5-.24.89-.42,1.07-.99.15-.45-.19-.87-.59-1.02Z"/>
          <path class="cls-1" d="m71.53,36.61c-.66-3.68-1.36-7.35-2.07-11.02-.16-.84-1.38-.48-1.26.33.54,3.64,1.1,7.28,1.7,10.91.59,3.61,1.09,7.28,1.96,10.84.19.78,1.51.65,1.42-.18-.37-3.65-1.1-7.27-1.75-10.87Z"/>
          <path class="cls-1" d="m73.35,47.36c-4.37-5.63-9.02-11.04-13.65-16.44-.44-.51-1.36.18-.95.72,4.35,5.73,8.7,11.47,13.34,16.99.75.89,1.96-.38,1.27-1.27Z"/>
          <path class="cls-1" d="m54.25,15.1c-1.57,4.93-3.27,9.81-5.06,14.66-.88,2.39-1.8,4.78-2.75,7.14-.92,2.3-2.22,4.67-2.43,7.15-.04.49.66.77.98.41,1.61-1.85,2.36-4.42,3.23-6.69.94-2.44,1.84-4.89,2.7-7.36,1.73-4.93,3.25-9.93,4.61-14.98.23-.84-1.04-1.16-1.3-.34Z"/>
          <path class="cls-1" d="m59.98,30.13c-1.6.17-2.76,1.73-3.87,2.77-1.28,1.21-2.56,2.42-3.85,3.62-2.53,2.38-5.02,4.8-7.53,7.2-.67.64.32,1.6,1,1,2.59-2.26,5.19-4.49,7.76-6.77,1.25-1.11,2.49-2.21,3.74-3.32.66-.58,1.32-1.17,1.98-1.76.64-.58,1.21-1.09,1.38-1.97.07-.36-.18-.83-.61-.79Z"/>
          <path class="cls-1" d="m95.85,26.94c-1.86-2.5-4.25-4.63-6.45-6.83-2.24-2.25-4.47-4.52-6.74-6.74-4.54-4.45-9.06-8.94-13.78-13.19-.61-.55-1.45.29-.9.9,4.21,4.76,8.66,9.32,13.08,13.89,2.16,2.24,4.36,4.44,6.55,6.65,2.23,2.26,4.38,4.72,6.92,6.65.75.57,1.9-.58,1.33-1.33Z"/>
          <path class="cls-1" d="m94.24,27.5c-1.86,5.58-3.95,11.09-5.83,16.66-.3.89,1.13,1.49,1.54.63,2.58-5.39,4.41-11.09,5.88-16.87.26-1.03-1.25-1.41-1.58-.42Z"/>
          <path class="cls-1" d="m88.98,43.71c-1.32.12-2.6.48-3.89.77-1.36.31-2.73.61-4.09.92-2.68.6-5.35,1.24-8.02,1.86-1.16.27-.69,2.03.47,1.78,2.63-.57,5.27-1.12,7.9-1.71,1.31-.29,2.63-.59,3.94-.88,1.3-.29,2.67-.5,3.92-.96.89-.33.88-1.88-.23-1.79Z"/>
          <path class="cls-1" d="m89.7,43.29c-.65-1.74-1.75-3.37-2.64-5.01-.92-1.7-1.82-3.41-2.7-5.13-1.8-3.49-3.57-7-5.34-10.5-3.51-6.93-6.74-14.02-9.77-21.18-.14-.34-.72-.1-.6.24,2.64,7.33,5.57,14.52,8.72,21.65,1.56,3.54,3.24,7.03,5.01,10.46.88,1.72,1.78,3.43,2.7,5.13.94,1.75,1.79,3.69,3,5.25.58.75,1.94-.06,1.62-.93Z"/>
          <path class="cls-1" d="m104.22,89.59c-.73-4.95-1.43-9.9-2.12-14.86-1.39-10.03-2.67-20.08-3.86-30.14-.67-5.65-1.39-11.3-2.05-16.95-.08-.73-1.22-.76-1.16,0,1.53,20.17,3.9,40.26,6.83,60.27.4,2.74.8,5.49,1.24,8.22.45,2.85.86,5.76,1.67,8.53.22.77,1.45.66,1.42-.18-.17-4.98-1.24-9.98-1.97-14.9Z"/>
          <path class="cls-1" d="m97.55,100.56c-.64-4.7-1.28-9.41-1.9-14.12-1.23-9.34-2.42-18.69-3.68-28.03-.35-2.62-.68-5.24-1.06-7.85-.38-2.67-.66-5.38-1.22-8.02-.17-.82-1.49-.65-1.46.19.15,4.71.89,9.46,1.45,14.13.55,4.67,1.15,9.33,1.76,13.99,1.23,9.34,2.54,18.67,3.89,27.99.77,5.29,1.42,10.62,2.38,15.88.18.98,1.86.78,1.75-.23-.51-4.66-1.28-9.29-1.91-13.94Z"/>
          <path class="cls-1" d="m64.49,89.12c-1.1-12.28-2.01-24.58-2.83-36.88-.46-6.9-.95-13.8-1.45-20.7-.04-.54-.85-.55-.84,0,.15,24.7,2.13,49.4,4.6,73.97.69,6.89,1.37,13.79,2.37,20.64.16,1.08,2,.85,1.9-.24-1.13-12.27-2.65-24.51-3.75-36.78Z"/>
          <path class="cls-1" d="m52.28,109.02c-.25-2.36-.52-4.71-.77-7.07-.51-4.71-1.02-9.43-1.51-14.15-.98-9.37-1.88-18.74-2.87-28.11-.51-4.87-1.04-9.75-1.65-14.61,0-.03.02-.05.02-.08-.03-.38-.05-.7-.16-1.06-.21-.67-1.32-.62-1.28.15.9,18.85,3.09,37.66,5.1,56.42.28,2.63.56,5.25.86,7.88.29,2.58.34,5.41,1.15,7.89.3.91,1.55.75,1.64-.2.21-2.32-.28-4.76-.53-7.07Z"/>
          <path class="cls-1" d="m68.25,125.38c-1.03-1.07-2.55-1.77-3.81-2.56-1.31-.82-2.62-1.65-3.94-2.45-2.64-1.62-5.29-3.19-7.99-4.71-.95-.53-1.69.85-.82,1.45,2.55,1.77,5.13,3.47,7.75,5.13,1.3.83,2.62,1.65,3.93,2.47,1.26.79,2.54,1.82,3.96,2.28.93.3,1.54-.94.92-1.6Z"/>
          <path class="cls-1" d="m71.66,48.18c-1.11,3.34-1.71,6.88-2.47,10.31-.77,3.45-1.5,6.91-2.25,10.37-.75,3.46-1.49,6.92-2.24,10.38-.73,3.36-1.69,6.79-1.93,10.23-.06.88,1.17.91,1.43.18,1.21-3.29,1.73-6.89,2.46-10.32.74-3.46,1.48-6.92,2.21-10.38.74-3.46,1.49-6.92,2.2-10.39.69-3.38,1.57-6.78,1.92-10.22.08-.8-1.1-.86-1.33-.17Z"/>
          <path class="cls-1" d="m98.44,114.44c-2.63.68-5.19,1.74-7.71,2.73-2.55,1-5.12,1.97-7.69,2.9-5.16,1.87-10.36,3.62-15.57,5.35-1.27.42-.78,2.39.53,2.03,5.36-1.46,10.62-3.19,15.84-5.09,2.58-.94,5.14-1.91,7.69-2.93,2.55-1.02,5.17-2.08,7.52-3.53.76-.47.3-1.7-.6-1.47Z"/>
          <path class="cls-1" d="m104.85,104.55c-.45.35-.73.87-1.03,1.34-.26.41-.53.82-.79,1.23-.58.9-1.17,1.81-1.75,2.71-1.15,1.78-2.23,3.6-3.32,5.41-.52.86.78,1.56,1.34.76,1.21-1.74,2.44-3.48,3.6-5.25.57-.87,1.14-1.74,1.71-2.62.56-.86,1.38-1.78,1.63-2.79.21-.86-.77-1.27-1.38-.79Z"/>
          <path class="cls-1" d="m104.82,104.92c-2.78,10.02-6.13,19.82-9.66,29.59-.35.96,1.16,1.33,1.52.4,3.78-9.65,6.86-19.61,9.6-29.61.26-.94-1.2-1.32-1.46-.38Z"/>
          <path class="cls-1" d="m98.32,114.36c-.66,3.52-1.28,7.04-1.85,10.57-.28,1.74-.53,3.48-.79,5.22-.24,1.59-.75,3.39-.51,4.99.08.55.95.64,1.19.16.7-1.46.72-3.34.96-4.93.27-1.81.55-3.61.79-5.43.47-3.48.9-6.96,1.29-10.45.07-.62-.97-.75-1.08-.14Z"/>
          <path class="cls-1" d="m95.71,134.09c-9.34-2.4-18.56-5.2-27.84-7.83-.76-.21-.99.87-.3,1.15,8.95,3.59,18.3,6.26,27.67,8.5,1.17.28,1.65-1.52.48-1.82Z"/>
        </g>
        <path class="cls-1" d="m96.21,106.94c-2.87,3.04-6.12,5.83-9.31,8.52-3.28,2.76-6.64,5.41-10.07,7.97-.6.45-.03,1.47.58,1.02,3.44-2.52,6.82-5.13,10.11-7.85,3.35-2.76,6.55-5.7,9.9-8.46.83-.69-.44-2.01-1.2-1.2Z"/>
      </g>
      <path class="cls-1" d="m36.12,66.68c-1.02,3.57-2.01,7.14-2.96,10.72-.47,1.76-.94,3.52-1.4,5.28-.44,1.7-1.12,3.5-1.24,5.26-.04.54.79.76,1.03.27.75-1.59,1.04-3.49,1.49-5.19.47-1.76.91-3.52,1.36-5.29.92-3.59,1.8-7.19,2.66-10.8.14-.61-.77-.85-.94-.25Z"/>
      <g>
        <path class="cls-1" d="m109.72,15.35c-2.33,6.32-4.18,12.8-6.11,19.25-1.93,6.45-3.8,12.9-5.58,19.39-.23.83,1.02,1.14,1.29.34,2.14-6.38,4.19-12.8,6.19-19.23,1.99-6.43,4.07-12.83,5.65-19.37.23-.94-1.11-1.26-1.44-.38Z"/>
        <path class="cls-1" d="m136.88,2.59c-1.52.15-3.04.6-4.53.93-1.51.33-3.01.68-4.51,1.02-.71.16-.56,1.28.17,1.14,1.54-.29,3.08-.58,4.62-.88,1.52-.3,3.11-.51,4.59-.99.72-.23.34-1.29-.35-1.22Z"/>
        <path class="cls-1" d="m128.4,4.78c-.62-.33-1.16-.06-1.75.22-.84.39-1.65.84-2.46,1.28-1.58.85-3.15,1.72-4.7,2.62-3.11,1.79-6.12,3.76-9.1,5.75-.74.5-.1,1.74.66,1.24,3.01-1.95,6.1-3.76,9.21-5.55,1.51-.87,3.03-1.71,4.56-2.53.81-.44,1.64-.85,2.45-1.3.63-.35,1.21-.63,1.32-1.38.02-.13-.08-.3-.2-.36Z"/>
        <path class="cls-1" d="m120.79,33.69c-1.47-3.12-3.23-6.11-4.9-9.12-1.68-3.02-3.37-6.02-5.13-8.99-.33-.56-1.17-.08-.88.5,1.56,3.09,3.18,6.13,4.82,9.17,1.64,3.03,3.21,6.13,5.04,9.04.42.66,1.37.1,1.05-.59Z"/>
        <path class="cls-1" d="m127.59,5.04c-1.36,4.84-2.72,9.69-4.07,14.53-.66,2.36-1.32,4.71-2.01,7.06-.36,1.24-.72,2.48-1.08,3.72-.34,1.16-.77,2.31-.93,3.52-.08.65.98.92,1.24.33.47-1.05.68-2.19.98-3.29.33-1.25.67-2.49,1.01-3.74.65-2.43,1.33-4.85,2-7.27,1.36-4.84,2.71-9.69,4.06-14.54.21-.77-.98-1.09-1.2-.31Z"/>
        <path class="cls-1" d="m137.62,2.82c-.02-.12-.19-.22-.3-.18-1.06.42-1.65,1.95-2.2,2.89-.77,1.34-1.54,2.67-2.3,4.02-1.48,2.63-2.93,5.28-4.36,7.94-1.43,2.66-2.93,5.27-4.31,7.96-.67,1.31-1.34,2.63-2,3.95-.68,1.36-1.5,2.74-1.95,4.19-.26.84.9,1.2,1.35.55.86-1.25,1.45-2.75,2.12-4.11.66-1.32,1.32-2.64,1.99-3.96,1.37-2.69,2.66-5.43,4.08-8.1,1.39-2.61,2.81-5.2,4.24-7.78.72-1.29,1.44-2.58,2.16-3.87.55-.98,1.66-2.36,1.5-3.51Z"/>
        <path class="cls-1" d="m149.96,17.33c-1.87-2.57-4-4.94-6.06-7.35-2.08-2.43-4.23-4.81-6.39-7.17-.54-.59-1.33.26-.86.86,1.97,2.48,3.95,4.95,6,7.37,2.04,2.41,4.02,4.87,6.25,7.11.52.52,1.53-.18,1.07-.81Z"/>
        <path class="cls-1" d="m148.87,17.53c-1.73,3.58-3.39,7.19-5.13,10.76-.86,1.76-1.76,3.5-2.64,5.25-.87,1.73-1.91,3.45-2.53,5.28-.19.58.66,1.09,1.06.61,1.26-1.54,2.18-3.43,3.11-5.18.92-1.73,1.78-3.49,2.64-5.25,1.74-3.59,3.34-7.22,4.7-10.97.25-.7-.89-1.16-1.21-.49Z"/>
        <path class="cls-1" d="m139.01,38.18c-1.59-.43-3.14-.92-4.74-1.3-1.48-.34-2.96-.7-4.43-1.05-1.48-.35-2.95-.72-4.42-1.08-1.57-.38-3.16-.93-4.77-1.09-.6-.06-.95.74-.36,1.04,1.38.72,2.98,1.1,4.47,1.55,1.51.46,3.03.89,4.55,1.31,1.52.42,3.05.8,4.59,1.16,1.6.38,3.21.59,4.83.85.92.14,1.17-1.16.28-1.4Z"/>
        <path class="cls-1" d="m152.67,31.1c-.6,0-1.15.32-1.67.58-.54.27-1.06.56-1.59.84-1.13.6-2.24,1.24-3.36,1.88-2.23,1.27-4.43,2.59-6.64,3.89-.8.47-.1,1.7.71,1.25,2.24-1.25,4.49-2.48,6.71-3.77,1.11-.64,2.23-1.27,3.32-1.95.51-.32,1.03-.62,1.53-.95.49-.32,1.05-.64,1.36-1.15.16-.27-.05-.61-.36-.61Z"/>
        <path class="cls-1" d="m153.07,31.47c-.98-4.49-1.96-8.99-2.81-13.51-.12-.62-1.03-.35-.94.26.69,4.57,1.5,9.08,2.55,13.58.18.78,1.37.45,1.2-.33Z"/>
        <path class="cls-1" d="m119.76,33.39c-7.04,13.89-12.63,28.41-18.99,42.61-.44.99,1.04,1.84,1.48.84,6.26-14.32,13.26-28.3,18.83-42.91.29-.76-.95-1.26-1.32-.54Z"/>
        <path class="cls-1" d="m116.09,28.11c-.72,3.53-1.03,7.16-1.69,10.71-.32,1.71-.65,3.42-.97,5.14-.32,1.76-.85,3.56-.83,5.36,0,.63.98.99,1.27.33.72-1.65.92-3.49,1.24-5.26.32-1.79.58-3.58.81-5.39.46-3.55,1.13-7.19,1.21-10.77.01-.59-.91-.72-1.03-.13Z"/>
        <path class="cls-1" d="m138.85,39.02c-7.1,13.36-13.64,26.96-19.83,40.76-1.75,3.91-3.49,7.83-5.06,11.82-.41,1.04,1.34,1.76,1.82.74,3.21-6.8,6.15-13.73,9.3-20.56,3.15-6.84,6.38-13.64,9.58-20.45,1.81-3.86,3.65-7.72,5.5-11.56.42-.87-.85-1.61-1.31-.75Z"/>
        <path class="cls-1" d="m151.94,32.01c-5.55,7.48-10.66,15.32-15.6,23.21-4.94,7.89-9.75,15.87-14.41,23.94-1.31,2.27-2.6,4.56-3.88,6.85-1.23,2.2-2.66,4.45-3.49,6.84-.23.67.78,1.29,1.24.71,1.42-1.77,2.48-3.91,3.59-5.88,1.13-2,2.27-3.99,3.42-5.98,2.33-4.03,4.67-8.06,7.05-12.06,4.77-8,9.69-15.91,14.67-23.77,2.81-4.43,5.65-8.83,8.39-13.3.39-.63-.56-1.12-.98-.56Z"/>
        <path class="cls-1" d="m114.53,91.98c-.51.1-1.01.4-1.48.62-.4.18-.8.37-1.2.55-.86.4-1.71.82-2.56,1.25-1.69.85-3.28,1.89-4.96,2.76-.58.3-.14,1.29.48,1.05,1.76-.7,3.59-1.21,5.34-1.92.88-.36,1.76-.72,2.62-1.11.4-.18.8-.36,1.2-.54.48-.21,1.03-.39,1.44-.7.99-.76.34-2.2-.89-1.95Z"/>
        <path class="cls-1" d="m114.77,91.63c-3.92-.79-7.8-1.82-11.59-3.09-.7-.24-1.2.93-.5,1.22,3.76,1.56,7.61,2.88,11.55,3.9,1.31.34,1.85-1.76.53-2.03Z"/>
        <path class="cls-1" d="m149.91,19.9c-.94.78-1.84,1.6-2.7,2.47-.16.16.09.41.24.24.84-.88,1.72-1.72,2.64-2.52.13-.11-.06-.3-.19-.19Z"/>
        <path class="cls-1" d="m150,20.48c-.85.75-1.69,1.51-2.54,2.26-.22.19.1.51.32.32.85-.75,1.7-1.5,2.56-2.24.23-.2-.11-.54-.33-.33Z"/>
        <path class="cls-1" d="m150.15,21.27c-1.15,1.05-2.31,2.1-3.46,3.16-.15.14.07.36.23.23,1.16-1.05,2.31-2.1,3.47-3.15.16-.14-.08-.38-.24-.24Z"/>
        <path class="cls-1" d="m150.47,22.08l-5.03,4.21c-.21.18.1.49.31.31,1.65-1.42,3.31-2.85,4.96-4.27.17-.15-.08-.39-.24-.24Z"/>
        <path class="cls-1" d="m150.26,23.2c-1.04.86-2.07,1.72-3.11,2.58-1.03.86-2.12,1.67-3.07,2.62-.14.14.05.4.22.28,1.09-.78,2.08-1.7,3.11-2.57,1.04-.88,2.08-1.77,3.13-2.65.18-.15-.08-.41-.26-.26Z"/>
        <path class="cls-1" d="m150.66,24.01c-2.23,1.76-4.47,3.52-6.72,5.25-.28.22.12.63.4.4,2.17-1.83,4.35-3.64,6.53-5.44.15-.12-.06-.32-.21-.21Z"/>
        <path class="cls-1" d="m150.91,24.79c-1.5,1.19-3,2.37-4.5,3.56-.75.59-1.5,1.19-2.25,1.78-.74.59-1.54,1.15-2.23,1.8-.14.14.04.4.22.28.75-.5,1.45-1.13,2.16-1.69.77-.61,1.54-1.23,2.31-1.85,1.51-1.22,3.03-2.43,4.54-3.65.17-.14-.07-.38-.24-.24Z"/>
        <path class="cls-1" d="m151.07,25.46l-9.2,7.53c-.2.17.09.46.29.29l9.19-7.54c.2-.16-.08-.44-.28-.28Z"/>
        <path class="cls-1" d="m151.06,26.58c-3.15,2.6-6.3,5.21-9.45,7.81-.2.16.09.44.28.28,3.14-2.62,6.28-5.23,9.42-7.85.17-.14-.07-.38-.24-.24Z"/>
        <path class="cls-1" d="m151.26,27.26c-3.49,2.96-7,5.91-10.51,8.86-.28.24.13.65.41.41,3.48-2.98,6.96-5.95,10.45-8.91.24-.21-.11-.56-.35-.35Z"/>
        <path class="cls-1" d="m151.42,28.23c-1.73,1.49-3.46,2.98-5.18,4.48-1.72,1.5-3.48,2.96-5.14,4.52-.16.15.07.37.24.24,3.53-2.89,6.89-6.01,10.28-9.05.13-.12-.06-.3-.19-.19Z"/>
        <path class="cls-1" d="m152.04,28.65c-2.47,2.21-4.93,4.43-7.41,6.63-.15.14.07.36.23.23,2.48-2.2,4.98-4.37,7.48-6.55.2-.18-.1-.48-.3-.3Z"/>
        <path class="cls-1" d="m151.78,29.96c-2.16,1.87-4.31,3.75-6.46,5.64-.14.12.06.31.2.2,2.18-1.85,4.36-3.7,6.53-5.57.19-.16-.09-.43-.27-.27Z"/>
        <path class="cls-1" d="m134.25,5.34c-4.66,8.34-9.17,16.79-13.32,25.39-.09.19.19.36.29.16,4.19-8.6,8.49-17.14,13.09-25.52.02-.04-.04-.07-.06-.03Z"/>
        <path class="cls-1" d="m132.98,5.44c-3.39,6.34-6.74,12.7-10.11,19.05-.07.14.14.26.21.12,3.34-6.37,6.67-12.74,9.98-19.12.03-.06-.06-.11-.09-.05Z"/>
        <path class="cls-1" d="m129.48,9.62c-1.46,2.68-2.88,5.38-4.47,7.98-.16.26.28.5.4.23,1.28-2.77,2.74-5.46,4.15-8.17.03-.05-.05-.1-.08-.04Z"/>
        <path class="cls-1" d="m118.11,34.94c-.26,1.13-.52,2.25-.78,3.38-.02.08.1.11.12.03.27-1.12.54-2.25.8-3.37.02-.1-.13-.14-.15-.04Z"/>
        <path class="cls-1" d="m117.73,33.1c-.5,3.07-1.23,6.1-2.19,9.06-.04.13.16.18.2.05.93-2.97,1.64-6.01,2.11-9.08.01-.08-.11-.11-.12-.03Z"/>
        <path class="cls-1" d="m117.24,31.89c-.86,3.7-1.72,7.4-2.56,11.11-.03.13.17.18.2.05.84-3.71,1.64-7.42,2.46-11.13.01-.06-.08-.09-.1-.03Z"/>
        <path class="cls-1" d="m144.09,36.58c-2.75,3.06-5.49,6.11-8.24,9.17-.16.18.11.46.27.27,2.73-3.08,5.45-6.16,8.18-9.23.12-.14-.08-.35-.21-.21Z"/>
        <path class="cls-1" d="m146.44,35.29c-3.98,4.89-7.95,9.78-11.93,14.67-.15.18.11.45.26.26,3.97-4.9,7.94-9.79,11.91-14.69.14-.17-.1-.42-.24-.24Z"/>
        <path class="cls-1" d="m151.19,32.33c-3.63,3.98-7.17,8.05-10.6,12.21-3.35,4.05-6.78,8.13-9.79,12.44-.13.18.17.41.31.24,3.31-4.18,6.42-8.5,9.8-12.62,3.38-4.12,6.86-8.16,10.43-12.11.09-.1-.06-.26-.15-.15Z"/>
        <path class="cls-1" d="m146.98,40.33c-6.55,7.12-13.09,14.38-19,22.05-.16.21.12.51.3.3,6.26-7.43,12.38-14.94,18.89-22.15.12-.13-.07-.32-.19-.19Z"/>
        <path class="cls-1" d="m140.89,49.47c-5.08,5.92-10.09,11.92-14.99,17.99-.21.26.16.64.37.37,4.81-6.17,9.73-12.24,14.78-18.21.09-.11-.06-.26-.15-.15Z"/>
        <path class="cls-1" d="m134.52,59.36c-2.25,2.67-4.5,5.35-6.74,8.02-1.11,1.32-2.23,2.62-3.35,3.92-1.09,1.26-2.33,2.49-3.26,3.87-.13.2.16.4.32.25,1.22-1.18,2.23-2.65,3.31-3.96,1.09-1.33,2.18-2.66,3.29-3.98,2.21-2.64,4.42-5.28,6.63-7.92.12-.14-.08-.34-.2-.2Z"/>
        <path class="cls-1" d="m130.59,65.92c-3.45,4.39-7.1,8.63-10.92,12.71-.17.18.1.45.27.27,3.82-4.08,7.47-8.32,10.92-12.7.16-.2-.12-.48-.28-.28Z"/>
        <path class="cls-1" d="m103.93,92.89s-.03-.04-.06-.05c-.05-.02-.09-.04-.14-.05-.02,0-.05,0-.07,0-.02.01-.04.04-.05.06,0,.02,0,.05,0,.07.01.02.03.04.06.05.05.02.09.04.14.05.02,0,.05,0,.07,0,.02-.01.04-.04.05-.06,0-.02,0-.05,0-.07Z"/>
        <path class="cls-1" d="m105.74,95.29c-.13-.6-.24-1.2-.35-1.8-.22-1.23-.4-2.47-.55-3.71-.03-.24-.41-.25-.38,0,.14,1.23.31,2.46.52,3.68.1.6.22,1.2.34,1.8.12.59.19,1.27.43,1.83.07.17.34.08.33-.09-.03-.56-.23-1.15-.35-1.7Z"/>
        <path class="cls-1" d="m106.45,95.09c-.1-.54-.2-1.09-.31-1.63l-.61-3.26c-.04-.2-.33-.11-.3.08.17,1.07.35,2.14.52,3.22l.26,1.58c.08.52.1,1.14.29,1.63.08.21.41.2.42-.05.01-.51-.17-1.06-.26-1.56Z"/>
        <path class="cls-1" d="m107.2,95.04c-.09-.44-.18-.88-.28-1.32-.21-.91-.47-1.82-.75-2.71-.08-.26-.48-.16-.41.11.25.88.48,1.78.66,2.68.09.44.17.89.25,1.33.07.45.08.96.22,1.39.1.29.52.24.53-.07.02-.46-.13-.96-.22-1.41Z"/>
        <path class="cls-1" d="m107.76,95.27c-.1-.47-.21-.94-.33-1.41-.24-.96-.53-1.89-.88-2.81-.03-.08-.16-.05-.14.04.24.93.48,1.87.69,2.81.1.45.19.91.28,1.37.09.49.13,1,.26,1.48.06.21.4.18.39-.05-.02-.47-.16-.96-.26-1.42Z"/>
        <path class="cls-1" d="m108.49,94.66c-.1-.39-.19-.78-.29-1.17-.19-.76-.38-1.53-.57-2.29-.07-.3-.52-.18-.46.12.17.77.34,1.54.5,2.31.08.38.17.76.25,1.13.09.39.15.78.32,1.13.11.22.46.11.45-.12,0-.38-.12-.75-.21-1.11Z"/>
        <path class="cls-1" d="m108.31,90.72c-.08-.35-.61-.21-.53.14.31,1.44.62,2.89.93,4.33.09.42.74.25.64-.17l-1.04-4.3Z"/>
        <path class="cls-1" d="m109.82,93.36c-.2-.77-.39-1.55-.59-2.32-.09-.36-.64-.21-.56.15.17.76.34,1.53.5,2.29.17.75.27,1.56.55,2.28.06.15.18.26.35.23.15-.02.29-.16.28-.31-.08-.78-.34-1.56-.53-2.32Z"/>
        <path class="cls-1" d="m110.03,91.59c-.07-.3-.53-.18-.46.12.21.9.47,1.78.78,2.65.05.13.17.23.32.19.13-.03.24-.19.19-.32-.33-.86-.61-1.74-.83-2.64Z"/>
        <path class="cls-1" d="m111.75,93.65c-.27-.62-.51-1.29-.65-1.99-.03-.16-.22-.25-.37-.21-.17.04-.24.21-.21.37.13.74.35,1.47.69,2.14.07.15.29.21.43.12.16-.1.19-.27.12-.43Z"/>
        <path class="cls-1" d="m111.58,47.69c-3.62,8.88-7.14,17.83-11.01,26.6-.3.67.69,1.09.94.38,3.24-9.03,6.87-17.93,10.37-26.87.07-.17-.23-.29-.29-.12Z"/>
        <path class="cls-1" d="m107.52,40.68c-.24,3.12-.47,6.24-.71,9.36-.02.24.36.24.37,0,.19-3.12.38-6.24.57-9.36,0-.15-.22-.15-.23,0Z"/>
        <path class="cls-1" d="m106.13,46.23c-.45,3.71-.95,7.41-1.45,11.12-.04.33.42.39.45.06.36-3.73.74-7.45,1.15-11.17.01-.1-.14-.1-.15,0Z"/>
        <path class="cls-1" d="m125.46,8.43c-1.18,4-2.28,8.02-3.31,12.06-.51,1.99-1,3.98-1.45,5.98-.46,2.05-1.03,4.13-1.3,6.21-.05.37.48.54.58.15.53-2.04.82-4.16,1.25-6.23.42-2.01.84-4.02,1.28-6.02.91-4.07,1.92-8.11,3.02-12.13.01-.05-.06-.07-.07-.02Z"/>
        <path class="cls-1" d="m119.48,13.24c0-.15-.23-.15-.23,0-.01,1.94-.02,3.88-.03,5.82,0,.19.3.19.29,0-.01-1.94-.02-3.88-.03-5.82Z"/>
        <path class="cls-1" d="m118.03,13.88c-.11,3.24-.25,6.48-.34,9.72,0,.21.33.21.33,0,.09-3.24.15-6.48.22-9.72,0-.14-.21-.14-.22,0Z"/>
        <path class="cls-1" d="m146.09,19.36c-2.56,6.2-5.1,12.42-7.7,18.61-.23.55.55.88.76.31,2.39-6.27,4.85-12.52,7.29-18.77.08-.2-.27-.34-.35-.14Z"/>
        <path class="cls-1" d="m137.14,22.68c-.02-.1-.16-.06-.15.04.34,2.1.69,4.19,1,6.29.03.2.35.12.31-.08-.41-2.08-.78-4.17-1.16-6.25Z"/>
        <path class="cls-1" d="m135.33,21.77c-.02-.1-.17-.06-.15.04.69,3.63,1.22,7.29,1.59,10.97.02.2.33.2.31,0-.42-3.69-1-7.37-1.74-11.01Z"/>
        <path class="cls-1" d="m102.71,72.91c-.05-.28-.46-.16-.42.11.93,6.05,1.79,12.11,2.83,18.13.06.37.61.21.56-.15-.89-6.05-1.96-12.07-2.97-18.1Z"/>
        <path class="cls-1" d="m103.43,71.14c-.04-.19-.32-.11-.28.07,1.37,6.54,2.48,13.14,3.33,19.77.06.43.72.26.66-.17-.93-6.61-2.18-13.17-3.7-19.68Z"/>
        <path class="cls-1" d="m104.85,69.92c-.04-.22-.37-.13-.33.09,1.2,7.45,2.18,14.98,3.68,22.38.09.42.69.24.63-.17-1.04-7.46-2.62-14.88-3.98-22.3Z"/>
        <path class="cls-1" d="m109.34,86.01c-.32-2.08-.63-4.15-.96-6.23-.33-2.07-.66-4.15-.99-6.22-.34-2.12-.53-4.33-1.08-6.41-.02-.08-.14-.06-.14.02.06,2.03.49,4.08.76,6.09.28,2.09.56,4.17.83,6.26.28,2.09.58,4.17.87,6.25.3,2.13.45,4.35,1.03,6.42.07.26.48.22.48-.06-.04-2.05-.49-4.1-.8-6.12Z"/>
        <path class="cls-1" d="m111.26,85.97c-.29-1.94-.59-3.88-.88-5.81-.6-3.94-1.29-7.86-1.87-11.81-.02-.11-.18-.06-.16.04.57,3.89,1.02,7.79,1.57,11.68.26,1.88.53,3.75.79,5.63.28,1.98.39,4.09.89,6.02.07.26.48.21.47-.06-.07-1.89-.53-3.82-.81-5.68Z"/>
        <path class="cls-1" d="m113.68,88.36l-.56-3.59c-.37-2.4-.74-4.79-1.12-7.19-.74-4.79-1.53-9.58-2.27-14.37-.02-.1-.16-.06-.15.04.65,4.75,1.25,9.51,1.9,14.26.32,2.34.63,4.68.95,7.02.15,1.14.31,2.27.46,3.41.17,1.24.2,2.61.59,3.8.11.34.62.29.63-.08.03-1.09-.27-2.22-.44-3.29Z"/>
        <path class="cls-1" d="m115.92,87.35s-.02-.02-.02-.04c-.52-3.25-1.17-6.48-1.67-9.73-.56-3.62-1.03-7.25-1.43-10.9-.01-.11-.19-.12-.18,0,.31,3.66.68,7.32,1.1,10.96.41,3.54.78,7.13,1.46,10.62.11.56.92.32.84-.22-.03-.23-.07-.47-.1-.7Z"/>
        <path class="cls-1" d="m117.59,83.27c-.15-1.22-.29-2.44-.44-3.66-.28-2.37-.56-4.74-.86-7.11-.59-4.74-1.19-9.48-1.78-14.22-.01-.11-.19-.12-.18,0,.48,4.81.96,9.62,1.44,14.42.24,2.37.49,4.74.74,7.11.12,1.15.24,2.3.37,3.45.12,1.17.15,2.39.46,3.53.09.32.55.25.57-.07.05-1.14-.19-2.32-.32-3.45Z"/>
        <path class="cls-1" d="m116.78,52.76c-.01-.11-.19-.12-.18,0,.84,9.19,1.72,18.39,2.45,27.59.04.5.83.48.77,0-1.1-9.18-2.05-18.39-3.04-27.59Z"/>
        <path class="cls-1" d="m122.21,73.57c-.17-1.2-.34-2.39-.51-3.59-.34-2.35-.63-4.71-.94-7.07-.02-.12-.23-.1-.21.03.25,2.36.51,4.73.73,7.09.11,1.16.21,2.32.32,3.48.09,1.03-.02,2.29.38,3.24.11.26.57.19.61-.08.16-.98-.23-2.13-.37-3.11Z"/>
        <path class="cls-1" d="m124.68,65.37c-.07-.99-.16-1.99-.27-2.98-.2-1.92-.45-3.83-.75-5.73-.02-.14-.23-.08-.21.06.26,1.96.45,3.93.58,5.91.06.92.11,1.83.14,2.75.04.99-.03,2,.04,2.98-.02.43.67.44.67,0,.02-.98-.13-2-.2-2.98Z"/>
        <path class="cls-1" d="m130.64,37.04c-.02-.34-.56-.33-.52,0,.31,3.37.62,6.74.95,10.11.02.16.27.17.26,0-.22-3.37-.45-6.74-.68-10.11Z"/>
        <path class="cls-1" d="m132.55,39.19c-.01-.16-.25-.16-.24,0,.27,4.11.49,8.24.83,12.34.02.19.3.19.29,0-.23-4.12-.58-8.23-.88-12.34Z"/>
        <path class="cls-1" d="m134.95,49.48v.37c0,.07.1.07.1,0v-.37c0-.07-.1-.07-.1,0Z"/>
        <path class="cls-1" d="m134.99,45.09c-.06-.78-.13-1.56-.19-2.34-.13-1.59-.26-3.18-.38-4.77,0-.14-.22-.14-.22,0,.08,1.62.14,3.24.2,4.86.03.81.06,1.62.09,2.43.03.75-.02,1.57.15,2.31.07.3.46.2.49-.06.09-.79-.08-1.64-.14-2.43Z"/>
        <path class="cls-1" d="m135.88,38.91c-.02-.18-.3-.18-.28,0,.19,2.46.38,4.92.57,7.39.02.22.36.22.35,0-.21-2.46-.42-4.92-.63-7.39Z"/>
        <path class="cls-1" d="m137.55,42.51c-.05-.64-.09-1.28-.13-1.92,0-.14-.22-.14-.22,0,.02.65.03,1.3.04,1.96.01.64-.03,1.29.09,1.92.04.18.29.12.3-.04.06-.63-.04-1.29-.09-1.92Z"/>
        <path class="cls-1" d="m122.2,35.03c-.02-.49-.8-.49-.77,0,.29,4.66.73,9.31,1.09,13.96,0,.06.1.07.1,0-.15-4.65-.21-9.31-.43-13.96Z"/>
      </g>
      <path class="cls-1" d="m66.56,40.74c-.78-1.92-1.91-3.74-2.88-5.56-.98-1.84-1.96-3.69-2.94-5.53-.05-.1-.19-.01-.14.08.94,1.87,1.88,3.73,2.82,5.6.93,1.85,1.76,3.82,2.87,5.57.11.17.34.03.27-.15Z"/>
      <path class="cls-1" d="m68.53,42.14c-.99-2.12-2.17-4.16-3.29-6.22-1.12-2.06-2.23-4.12-3.35-6.18-.05-.09-.19-.01-.14.08,1.07,2.09,2.13,4.18,3.2,6.27,1.06,2.08,2.08,4.21,3.26,6.23.12.21.42.03.32-.18Z"/>
      <path class="cls-1" d="m71.77,45.86c-1.2-2.73-2.71-5.37-4.06-8.04-1.35-2.68-2.68-5.37-3.99-8.07-.04-.09-.17-.01-.13.08,1.25,2.74,2.51,5.46,3.8,8.18,1.28,2.69,2.49,5.51,3.99,8.08.15.26.52.04.4-.23Z"/>
      <path class="cls-1" d="m72.19,43.26c-1.11-2.46-2.44-4.83-3.67-7.23-1.23-2.4-2.47-4.8-3.72-7.2-.04-.08-.16-.01-.12.07,1.17,2.44,2.33,4.88,3.51,7.32,1.17,2.43,2.27,4.93,3.56,7.29.16.29.56.04.43-.25Z"/>
      <path class="cls-1" d="m68.84,33.63c-.93-1.86-1.85-3.72-2.78-5.59-.07-.13-.26-.02-.2.11.86,1.86,1.73,3.71,2.59,5.57.86,1.84,1.63,3.77,2.68,5.51.09.15.37.06.31-.12-.7-1.89-1.71-3.68-2.6-5.48Z"/>
      <path class="cls-1" d="m70.96,34.53c-.64-1.14-1.34-2.23-1.98-3.37-.64-1.14-1.24-2.29-1.81-3.46-.05-.11-.22-.02-.17.09.54,1.19,1.12,2.36,1.73,3.51.6,1.15,1.21,2.32,1.94,3.4.12.18.41.03.3-.17Z"/>
      <path class="cls-1" d="m71.34,3.51c-.03-.18-.3-.11-.27.07.4,2.19.8,4.39,1.21,6.58.03.17.29.1.26-.07l-1.19-6.58Z"/>
      <path class="cls-1" d="m72.34,4.32c-.02-.1-.17-.06-.15.04.54,2.7,1.08,5.41,1.61,8.11.03.16.28.1.25-.06-.57-2.69-1.14-5.39-1.71-8.08Z"/>
      <path class="cls-1" d="m73.55,5.61c-.04-.17-.3-.1-.26.07.84,4.01,1.61,8.03,2.53,12.02.06.24.42.14.37-.1-.8-4.01-1.75-8-2.64-11.99Z"/>
      <path class="cls-1" d="m75.4,7.13c-.04-.2-.35-.12-.31.08,1.05,5.28,2.05,10.57,3.2,15.83.05.21.36.12.32-.08-.98-5.29-2.13-10.55-3.21-15.82Z"/>
      <path class="cls-1" d="m77.38,10.03c-.03-.15-.25-.09-.22.06,1.01,5.6,1.97,11.21,3.1,16.79.05.25.43.15.38-.1-.98-5.6-2.15-11.17-3.26-16.75Z"/>
      <path class="cls-1" d="m79.5,10.83c-.01-.08-.15-.06-.14.02.81,7.16,1.88,14.34,3.45,21.38.05.23.39.13.35-.09-1.43-7.07-2.73-14.14-3.65-21.31Z"/>
      <path class="cls-1" d="m81.56,12.84c-.03-.15-.25-.09-.22.06,1.53,8.61,3.03,17.24,4.73,25.82.05.26.44.15.4-.1-1.51-8.61-3.22-17.19-4.91-25.77Z"/>
      <path class="cls-1" d="m86.79,30.46c-.92-5.07-1.79-10.14-2.6-15.23-.04-.24-.39-.14-.36.09.76,5.1,1.57,10.19,2.44,15.27.87,5.07,1.69,10.18,2.9,15.18.07.29.49.17.45-.12-.8-5.09-1.9-10.13-2.82-15.2Z"/>
      <path class="cls-1" d="m91,41.7c-1.59-7.78-3.2-15.56-4.83-23.34-.04-.19-.32-.11-.28.07,1.56,7.91,3.12,15.82,4.72,23.72.06.27.45.2.47-.06v-.24c.02-.08-.03-.13-.08-.16Z"/>
      <path class="cls-1" d="m89.82,29.21c-.63-3.04-1.22-6.08-1.79-9.14-.04-.23-.38-.13-.35.09.51,3.06,1.05,6.12,1.63,9.18.57,3.03,1.04,6.15,1.85,9.13.11.4.69.24.62-.16-.51-3.05-1.34-6.07-1.96-9.1Z"/>
      <path class="cls-1" d="m89.79,21.9c-.04-.16-.28-.1-.25.07,1.07,4.9,2.13,9.8,3.23,14.7.06.26.45.15.4-.1-1.1-4.89-2.24-9.77-3.38-14.66Z"/>
      <path class="cls-1" d="m93.65,32.09c-.1-.38-.19-.77-.29-1.15-.18-.71-.36-1.42-.54-2.13-.37-1.48-.75-2.95-1.12-4.43-.09-.37-.66-.22-.57.15.37,1.48.75,2.95,1.12,4.43.18.71.36,1.42.54,2.13.1.38.19.77.29,1.15.08.32.14.62.35.89.09.12.32.05.34-.09.05-.33-.04-.62-.12-.95Z"/>
      <path class="cls-1" d="m94.63,72.56c.03-4.07.05-8.14.08-12.21,0-.07-.1-.07-.1,0-.09,4.07-.17,8.14-.26,12.21-.04,2.03-.09,4.07-.13,6.1-.04,2.01-.27,4.11-.08,6.1.02.24.34.24.37,0,.24-1.99.07-4.09.09-6.1.01-2.03.03-4.07.04-6.1Z"/>
      <path class="cls-1" d="m96.61,67.59c-.12,4.54-.23,9.08-.34,13.62-.11,4.53-.35,9.09-.29,13.62,0,.25.37.25.38,0,.22-4.53.15-9.09.2-13.62.05-4.54.1-9.08.15-13.62,0-.07-.1-.07-.1,0Z"/>
      <path class="cls-1" d="m99.2,67.14c-.29,6.59-.52,13.18-.74,19.78-.11,3.26-.21,6.52-.32,9.79-.11,3.3-.43,6.69-.27,9.99.01.3.43.29.46,0,.35-3.22.22-6.55.31-9.79.09-3.33.17-6.66.26-9.99.17-6.59.32-13.18.41-19.78,0-.07-.11-.07-.12,0Z"/>
      <path class="cls-1" d="m101.8,79.23c-.47,11.45-.93,22.9-1.38,34.36-.01.35.53.35.54,0,.37-11.45.73-22.9,1.07-34.36,0-.15-.22-.15-.23,0Z"/>
      <path class="cls-1" d="m103.58,94.13c-.02-.07-.13-.08-.15,0-.26,1.26-.14,2.6-.15,3.88-.01,1.39-.04,2.79-.09,4.18-.09,2.62-.24,5.24-.45,7.86,0,.02-.02.02-.02.05,0,.15-.01.29-.01.44,0,.37.53.36.56,0,.23-2.78.38-5.56.46-8.34.04-1.39.06-2.78.06-4.18,0-1.27.09-2.63-.21-3.88Z"/>
      <path class="cls-1" d="m94.54,28.49c-.4,2.64-.4,5.4-.55,8.07-.15,2.78-.31,5.55-.47,8.33,0,.07.11.07.12,0,.24-2.72.48-5.44.73-8.17.25-2.69.65-5.46.64-8.17,0-.26-.42-.33-.47-.06Z"/>
      <path class="cls-1" d="m96.16,100.63c-.76-3.6-1.52-7.2-2.28-10.8-1.51-7.13-3.03-14.27-4.54-21.4-.86-4.07-1.73-8.13-2.58-12.2-.02-.09-.15-.05-.14.04,2.8,14.4,5.56,28.8,8.35,43.2.79,4.07,1.45,8.21,2.45,12.23.16.62,1.03.36.94-.25-.57-3.63-1.45-7.23-2.2-10.82Z"/>
      <path class="cls-1" d="m87.51,115.31c-1.08,1.29-1.92,2.76-2.48,4.34-.06.18.22.25.28.07.53-1.54,1.34-2.98,2.38-4.24.1-.13-.07-.31-.18-.18Z"/>
      <path class="cls-1" d="m88.41,114.7c-.97,1.85-1.95,3.7-2.92,5.55-.1.19.19.35.29.16.97-1.85,1.93-3.71,2.9-5.56.09-.17-.17-.33-.27-.15Z"/>
      <path class="cls-1" d="m89.43,113.51c-.42,1.1-.89,2.18-1.4,3.25-.25.52-.5,1.03-.76,1.53-.26.5-.62,1-.75,1.55-.05.22.22.39.39.22.4-.4.63-.98.88-1.47.28-.54.55-1.09.8-1.65.5-1.08.96-2.17,1.37-3.28.13-.33-.41-.47-.53-.14Z"/>
      <path class="cls-1" d="m91.1,112.64c-1.19,2.33-2.27,4.72-3.24,7.15-.1.25.31.36.41.11.91-2.42,1.94-4.8,3.08-7.12.08-.16-.16-.3-.24-.14Z"/>
      <path class="cls-1" d="m92.53,111.65c-.63,1.17-1.22,2.36-1.79,3.56-.55,1.17-1.14,2.36-1.55,3.59-.08.24.3.4.41.17.55-1.19.99-2.42,1.53-3.61.54-1.19,1.1-2.37,1.7-3.54.1-.2-.2-.37-.3-.17Z"/>
      <path class="cls-1" d="m95.24,108.73c-1.61,2.76-2.94,5.65-4,8.66-.1.29.36.41.46.12,1.02-2.98,2.31-5.86,3.83-8.62.1-.19-.18-.35-.29-.16Z"/>
      <path class="cls-1" d="m95.96,108.72c-.64,1.5-1.28,3-1.92,4.5-.62,1.46-1.3,2.91-1.86,4.39-.08.21.27.35.36.15.67-1.45,1.25-2.95,1.86-4.43.62-1.48,1.24-2.96,1.86-4.43.08-.2-.21-.38-.3-.17Z"/>
      <path class="cls-1" d="m97.05,108.32c-.54,1.5-1.11,2.99-1.7,4.47-.31.77-.63,1.54-.95,2.31-.29.68-.67,1.38-.85,2.1-.05.22.24.32.35.14.4-.62.64-1.39.91-2.08.3-.76.6-1.53.88-2.3.56-1.52,1.09-3.04,1.58-4.59.05-.14-.17-.2-.22-.06Z"/>
      <path class="cls-1" d="m97.29,110.62l-2.23,5.58c-.1.24.3.35.4.1.7-1.87,1.4-3.74,2.1-5.62.06-.17-.21-.24-.27-.07Z"/>
      <path class="cls-1" d="m97.89,112.1l-1.79,4.28c-.09.22.23.4.32.18l1.76-4.3c.08-.19-.21-.36-.29-.16Z"/>
      <path class="cls-1" d="m100.2,113.74c-.67,2.36-1.37,4.71-1.98,7.08-.06.22.28.3.33.09.65-2.37,1.21-4.75,1.79-7.13.02-.1-.12-.13-.15-.04Z"/>
      <path class="cls-1" d="m101.14,111.87c-.61,2.49-1.28,4.95-1.95,7.42-.33,1.21-.67,2.42-1.02,3.63-.36,1.23-.88,2.49-1.09,3.76-.05.28.37.51.51.21.51-1.15.76-2.46,1.1-3.68.33-1.21.65-2.42.96-3.64.65-2.53,1.2-5.08,1.72-7.63.03-.14-.19-.2-.22-.06Z"/>
      <path class="cls-1" d="m102.66,109.9c-.88,3.09-1.77,6.18-2.59,9.3-.82,3.09-1.81,6.2-2.36,9.35-.06.35.42.48.53.14,1.02-3.03,1.63-6.24,2.39-9.35.77-3.13,1.46-6.27,2.17-9.41.02-.09-.11-.12-.14-.04Z"/>
      <path class="cls-1" d="m75.44,128.76c-1.76-1.2-3.65-2.25-5.48-3.35-.22-.13-.41.21-.2.34,1.83,1.11,3.62,2.29,5.51,3.3.19.1.34-.17.16-.29Z"/>
      <path class="cls-1" d="m78.83,130.5c-2.44-1.88-5.01-3.61-7.52-5.4-.16-.12-.31.15-.15.27,2.47,1.82,4.89,3.73,7.43,5.45.19.13.43-.18.25-.32Z"/>
      <path class="cls-1" d="m80.17,130.3c-1.34-.96-2.74-1.85-4.12-2.75-1.38-.9-2.76-1.8-4.15-2.7-.18-.12-.34.17-.16.29,1.36.94,2.72,1.88,4.07,2.82,1.35.94,2.71,1.9,4.1,2.78.28.18.51-.26.25-.45Z"/>
      <path class="cls-1" d="m83.86,131.61c-1.69-1.29-3.57-2.38-5.35-3.54-1.83-1.2-3.67-2.39-5.5-3.59-.15-.1-.29.14-.14.24l5.34,3.65c1.77,1.21,3.51,2.54,5.36,3.61.22.13.5-.21.28-.37Z"/>
      <path class="cls-1" d="m87.91,133.04c-2.03-1.57-4.28-2.91-6.41-4.33-2.19-1.46-4.39-2.92-6.58-4.39-.25-.16-.47.23-.23.4,2.14,1.47,4.28,2.95,6.42,4.42,2.13,1.46,4.22,3.06,6.44,4.38.28.17.64-.26.36-.47Z"/>
      <path class="cls-1" d="m90.9,134.11c-.99-1.02-2.3-1.83-3.44-2.67-1.21-.89-2.44-1.76-3.69-2.61-2.49-1.7-5.04-3.3-7.65-4.82-.3-.17-.56.29-.27.47,2.54,1.54,5.03,3.17,7.46,4.88,1.24.88,2.47,1.78,3.67,2.7,1.14.87,2.22,1.92,3.44,2.68.38.24.78-.31.48-.63Z"/>
      <path class="cls-1" d="m94.45,134.12c-1.23-1.04-2.86-1.74-4.23-2.58-1.48-.9-2.96-1.81-4.42-2.74-2.92-1.86-5.79-3.81-8.6-5.82-.19-.13-.36.18-.18.31,2.78,2.08,5.61,4.08,8.5,6.01,1.44.96,2.9,1.91,4.37,2.82,1.35.84,2.78,1.95,4.28,2.5.28.1.51-.31.29-.5Z"/>
      <path class="cls-1" d="m95.67,133.32c-.5-.55-1.24-.89-1.87-1.28-.61-.38-1.21-.76-1.82-1.14-1.35-.84-2.69-1.69-4.04-2.53-2.65-1.66-5.28-3.35-7.91-5.03-.13-.08-.25.12-.12.21,2.59,1.76,5.18,3.52,7.76,5.31,1.27.88,2.53,1.76,3.8,2.63.63.44,1.27.88,1.9,1.32.61.42,1.21.95,1.91,1.2.41.14.65-.41.39-.69Z"/>
      <path class="cls-1" d="m96.21,131.79c-.34-.6-1.02-.85-1.59-1.18-.7-.4-1.39-.81-2.09-1.22-1.35-.79-2.7-1.58-4.04-2.38-2.73-1.63-5.43-3.3-8.11-5-.21-.13-.39.2-.19.33,2.63,1.8,5.27,3.56,7.95,5.28,1.31.85,2.63,1.69,3.96,2.52.69.43,1.37.85,2.06,1.27.56.34,1.11.81,1.79.81.22,0,.36-.25.26-.44Z"/>
      <path class="cls-1" d="m95.87,129.42s.02-.01.03-.02c-.03-.02-.06-.04-.09-.06,0,0,0,0,0,0-.02-.01-.03-.02-.05-.03-.92-.71-2.04-1.21-3.04-1.79-1.14-.67-2.29-1.32-3.45-1.97-2.27-1.28-4.57-2.5-6.89-3.69-.23-.12-.42.22-.2.34,2.25,1.23,4.48,2.5,6.68,3.81,1.1.66,2.19,1.33,3.28,2.01,1.07.67,2.09,1.56,3.23,2.09.48.23.82-.33.51-.68Z"/>
      <path class="cls-1" d="m96.83,128.34c-.37-.45-.98-.73-1.47-1.04-.55-.34-1.09-.68-1.64-1.02-1.07-.65-2.14-1.3-3.22-1.93-2.19-1.28-4.41-2.57-6.73-3.6-.08-.04-.15.07-.07.12,2.13,1.38,4.36,2.63,6.51,3.99,1.06.67,2.11,1.35,3.15,2.05.54.36,1.07.73,1.6,1.09.48.33.95.76,1.52.94.37.12.56-.36.35-.61Z"/>
      <path class="cls-1" d="m97.2,126.6c-.93-.62-2-1.11-2.98-1.64-.93-.51-1.86-1.01-2.8-1.52-1.93-1.05-3.86-2.09-5.79-3.14-.19-.1-.35.18-.16.29,1.9,1.1,3.79,2.21,5.69,3.31.92.53,1.83,1.07,2.75,1.6.97.57,1.94,1.22,2.95,1.7.4.19.71-.35.34-.6Z"/>
      <path class="cls-1" d="m97.16,125.11c-3.29-1.82-6.57-3.64-9.86-5.46-.24-.14-.46.23-.21.38,3.23,1.92,6.45,3.85,9.68,5.77.44.26.84-.44.39-.69Z"/>
      <path class="cls-1" d="m97.66,124.1c-.62-.45-1.34-.81-2-1.2-.65-.38-1.3-.76-1.95-1.14-1.32-.77-2.64-1.54-3.96-2.32-.18-.11-.33.17-.16.28,1.28.84,2.56,1.68,3.84,2.53.63.42,1.25.84,1.88,1.25.65.42,1.28.91,1.96,1.27.45.23.77-.38.38-.67Z"/>
      <path class="cls-1" d="m98.06,123.17c-.15-.34-.54-.45-.85-.61-.3-.15-.6-.31-.9-.46-.64-.33-1.29-.65-1.93-.99-1.28-.68-2.56-1.35-3.83-2.03-.21-.11-.39.2-.18.32,1.27.74,2.53,1.49,3.8,2.23.62.37,1.24.75,1.85,1.13l.93.57c.31.19.54.37.92.32.23-.03.28-.31.2-.49Z"/>
      <path class="cls-1" d="m98.05,121.65c-.42-.3-.96-.48-1.43-.71-.48-.23-.96-.46-1.44-.69-.96-.46-1.92-.92-2.89-1.35-.21-.09-.4.21-.18.32.95.52,1.91,1.01,2.87,1.5.47.24.95.48,1.42.72.46.23.95.55,1.44.7.31.09.43-.33.2-.49Z"/>
      <path class="cls-1" d="m98.12,120.5c-.35-.25-.8-.42-1.19-.6-.39-.18-.78-.36-1.18-.52-.8-.34-1.6-.64-2.42-.92-.26-.09-.36.31-.11.41.81.31,1.61.64,2.4,1.01.38.17.75.36,1.12.54.38.2.77.45,1.17.6.32.12.45-.35.21-.52Z"/>
      <path class="cls-1" d="m98.18,119.34c-1.57-.63-3.11-1.33-4.63-2.07-.23-.11-.43.22-.2.36,1.49.85,3.02,1.61,4.6,2.29.41.18.66-.41.23-.58Z"/>
      <path class="cls-1" d="m97.99,118.16c-1.02-.51-2.05-1.02-3.07-1.53-.31-.15-.57.3-.27.47,1,.55,2,1.1,3,1.65.38.21.71-.39.33-.58Z"/>
      <path class="cls-1" d="m98.54,117.34c-.75-.47-1.51-.94-2.26-1.4-.1-.06-.25-.02-.31.08-.06.11-.02.24.08.31.74.5,1.47,1,2.21,1.5.13.09.31.02.38-.11.08-.14.02-.3-.11-.38Z"/>
      <path class="cls-1" d="m70.88,88.33c-.98,3.77-1.95,7.53-2.94,11.3-.98,3.75-2.15,7.5-2.94,11.3-.08.39.49.55.61.16,1.1-3.72,1.84-7.58,2.75-11.35.91-3.78,1.83-7.56,2.76-11.34.04-.15-.2-.21-.24-.06Z"/>
      <path class="cls-1" d="m74.73,84.36c-1.44,5.63-2.88,11.25-4.33,16.88-.71,2.75-1.42,5.49-2.13,8.24-.37,1.44-.75,2.88-1.12,4.31-.37,1.42-.86,2.87-1.08,4.33-.07.44.52.6.67.18.49-1.39.74-2.89,1.08-4.33.33-1.38.66-2.76.99-4.14.68-2.82,1.35-5.65,2.03-8.47,1.35-5.65,2.73-11.29,4.1-16.94.03-.13-.17-.18-.2-.05Z"/>
      <path class="cls-1" d="m78.53,87.44c-1.96,6.49-3.82,13.01-5.58,19.55-.87,3.24-1.73,6.48-2.53,9.74-.82,3.31-1.78,6.64-2.34,9.99-.08.45.56.63.69.18.91-3.22,1.51-6.55,2.27-9.81.78-3.33,1.57-6.66,2.39-9.98,1.63-6.58,3.37-13.13,5.22-19.65.02-.07-.09-.1-.11-.03Z"/>
      <path class="cls-1" d="m76.78,107.16c-.85,3.09-1.69,6.19-2.56,9.28-.44,1.54-.88,3.09-1.31,4.63-.43,1.53-.99,3.08-1.28,4.64-.07.35.41.47.53.14.54-1.5.85-3.11,1.25-4.65.41-1.55.81-3.1,1.22-4.66.81-3.1,1.66-6.2,2.5-9.29.06-.21-.28-.3-.33-.09Z"/>
      <path class="cls-1" d="m82.86,99.9c-1.04,3.92-2.08,7.84-3.12,11.76-.52,1.96-1.04,3.92-1.57,5.88-.52,1.93-1.24,3.91-1.54,5.89-.04.24.27.32.36.09.71-1.87,1.06-3.94,1.55-5.88.5-1.96,1.01-3.93,1.52-5.89,1.02-3.93,2.04-7.85,3.06-11.78.04-.17-.22-.24-.26-.07Z"/>
      <path class="cls-1" d="m87.82,91.51c-2.86,10.46-5.91,20.89-8.56,31.4-.05.18.23.26.28.07,3.06-10.4,5.74-20.93,8.59-31.39.06-.21-.27-.29-.32-.08Z"/>
      <path class="cls-1" d="m88.51,104.05c-.73,2.27-1.46,4.55-2.21,6.81-.37,1.11-.74,2.22-1.11,3.34-.38,1.13-.9,2.3-1.08,3.48-.03.23.29.42.41.17.51-1.06.73-2.28,1.06-3.41.32-1.13.64-2.25.96-3.38.67-2.34,1.36-4.67,2.04-7,.01-.05-.06-.07-.07-.02Z"/>
      <path class="cls-1" d="m94.13,92.19c-.93,2.58-1.55,5.3-2.29,7.94-.74,2.65-1.4,5.33-2.13,7.99-.02.07.09.1.11.03.85-2.63,1.76-5.23,2.6-7.86.83-2.61,1.81-5.23,2.44-7.9.11-.48-.57-.64-.73-.19Z"/>
      <path class="cls-1" d="m95.53,100.23c-1.08,3.72-2.3,7.4-3.48,11.09-.04.12.15.2.2.08,1.56-3.56,2.71-7.3,3.6-11.08.05-.21-.26-.29-.32-.08Z"/>
      <path class="cls-1" d="m75.9,48.06c-2.02,8.11-4.16,16.19-6.04,24.33-.04.18.23.28.28.1,2.14-8.08,4.02-16.23,6.02-24.34.04-.17-.22-.27-.26-.09Z"/>
      <path class="cls-1" d="m80.68,46.21c-.84,1.88-1.35,3.98-1.95,5.95-.59,1.94-1.15,3.88-1.7,5.83-1.1,3.96-2.02,7.99-2.92,12-.03.12.15.19.18.06.97-4,2.11-7.93,3.26-11.88.56-1.94,1.15-3.88,1.76-5.8.62-1.97,1.44-3.95,1.91-5.96.08-.36-.39-.54-.54-.19Z"/>
      <path class="cls-1" d="m84.34,44.86c-1.28,6.23-2.64,12.41-4.43,18.52-.03.11.14.16.17.05,1.87-6.05,3.62-12.18,4.9-18.38.09-.42-.55-.61-.64-.19Z"/>
      <path class="cls-1" d="m84.95,66.62c-1.44,4.15-2.89,8.31-4.33,12.46-.04.12.15.18.2.05,1.44-4.15,2.88-8.31,4.32-12.46.04-.12-.15-.17-.19-.05Z"/>
      <path class="cls-1" d="m87.97,44.06c-5.05-8.98-10.25-17.88-15.4-26.81-.08-.14-.28,0-.21.13,4.87,9.1,9.68,18.23,14.65,27.28.35.64,1.31.03.95-.6Z"/>
      <path class="cls-1" d="m81.98,39.58c-.87-1.09-1.83-2.12-2.75-3.17-.92-1.05-1.83-2.11-2.74-3.18-.1-.11-.26.05-.16.16.89,1.09,1.77,2.18,2.64,3.28.87,1.1,1.71,2.23,2.63,3.29.23.26.59-.11.38-.38Z"/>
      <path class="cls-1" d="m81.99,42.02c-1.27-1.57-2.62-3.08-3.89-4.65-1.28-1.57-2.55-3.14-3.83-4.71-.06-.08-.17.03-.11.11,1.27,1.58,2.54,3.16,3.8,4.74,1.27,1.58,2.46,3.22,3.74,4.8.17.2.45-.09.29-.29Z"/>
      <path class="cls-1" d="m61.76,16.6c-.61,4.84-1.23,9.68-1.82,14.53-.02.13.19.13.2,0,.57-4.84,1.1-9.68,1.64-14.53,0-.02-.02-.02-.03,0Z"/>
      <path class="cls-1" d="m64.12,10.67c-.82,6.68-1.66,13.35-2.47,20.03-.02.18.26.18.28,0,.79-6.67,1.57-13.35,2.35-20.03.01-.11-.15-.1-.17,0Z"/>
      <path class="cls-1" d="m65.95,14c-.32,3.14-.69,6.28-.95,9.43-.02.23.34.23.36,0,.31-3.14.51-6.29.76-9.43,0-.11-.16-.1-.17,0Z"/>
      <path class="cls-1" d="m69.61,48.68c-2.18,9.64-4.51,19.26-6.48,28.95-.06.3.4.43.47.12,2.27-9.62,4.18-19.34,6.25-29.01.03-.15-.2-.22-.24-.06Z"/>
      <path class="cls-1" d="m66.91,50.02c-1.77,6.44-3.82,12.85-5.34,19.36-.08.33.41.46.51.13,1.91-6.4,3.3-12.99,4.96-19.46.02-.08-.1-.11-.12-.03Z"/>
      <path class="cls-1" d="m66.76,41.56c-1.03,3.78-2.06,7.55-3.08,11.33-.04.14.18.2.22.06,1.08-3.76,2.16-7.52,3.24-11.29.07-.25-.32-.35-.38-.1Z"/>
      <path class="cls-1" d="m64.43,109.42c-.62-5.04-1.2-10.07-1.78-15.11-1.17-10.08-2.19-20.17-3.11-30.28-.52-5.66-1-11.32-1.46-16.98-.02-.2-.32-.19-.31,0,1.54,20.22,3.42,40.42,5.75,60.56.65,5.63,1.2,11.29,1.97,16.91.08.59,1.01.59.93-.01-.61-5.04-1.38-10.06-2-15.09Z"/>
      <path class="cls-1" d="m57.17,84.43c-2.06-4.98-4.22-9.92-6.3-14.89-.03-.07-.16-.02-.13.05,2.04,5.01,4,10.05,6.06,15.05.1.25.47.04.37-.21Z"/>
      <path class="cls-1" d="m51,76.84c-.05-.11-.21-.02-.17.09,2.86,6.7,5.42,13.5,7.95,20.33.09.25.5.15.41-.11-2.4-6.89-5.23-13.65-8.19-20.31Z"/>
      <path class="cls-1" d="m53.93,27.8c-.56,1.35-1.14,2.69-1.64,4.06-.04.11.14.18.19.08.61-1.31,1.13-2.66,1.68-4,.06-.16-.17-.29-.23-.13Z"/>
      <path class="cls-1" d="m51.02,115.38c-1.55.95-3.04,1.98-4.54,3-1.5,1.01-2.99,2.06-4.41,3.18-.52.41.15,1.25.7.92,1.53-.92,3.02-1.9,4.51-2.87,1.49-.98,3.01-1.91,4.5-2.9.81-.54.09-1.84-.75-1.32Z"/>
      <path class="cls-1" d="m44.65,120c-.44.77-.89,1.55-1.33,2.32-.1.17.18.33.27.15.41-.79.82-1.59,1.23-2.38.06-.11-.11-.2-.17-.09Z"/>
      <path class="cls-1" d="m44.91,120.36c-.3.41-.59.84-.84,1.29s-.48.9-.69,1.37c-.05.1-.03.23.08.29.09.05.24.03.29-.08.4-.94.86-1.86,1.36-2.75.07-.13-.12-.23-.2-.11Z"/>
      <path class="cls-1" d="m45.93,119.63c-.4.66-.8,1.33-1.2,1.99-.2.33-.4.66-.6.99-.18.29-.46.61-.49.96,0,.11.13.19.22.13.29-.2.43-.6.6-.91.19-.34.38-.68.56-1.02.38-.68.75-1.35,1.13-2.03.08-.14-.13-.25-.21-.12Z"/>
      <path class="cls-1" d="m46.51,119.46c-.8,1.21-1.52,2.47-2.15,3.78-.14.28.29.52.42.24.63-1.31,1.34-2.57,2.14-3.79.17-.25-.24-.49-.41-.23Z"/>
      <path class="cls-1" d="m47.95,118.64l-1.48,2.45c-.25.41-.49.82-.74,1.23-.12.19-.23.38-.35.57-.12.2-.28.38-.29.62,0,.17.2.29.34.2.21-.13.28-.36.39-.57.1-.2.21-.39.32-.59.23-.42.45-.84.68-1.26.45-.84.91-1.68,1.36-2.52.08-.15-.14-.28-.23-.13Z"/>
      <path class="cls-1" d="m49.04,118.23c-.65.94-1.27,1.89-1.87,2.86-.29.47-.57.94-.85,1.42-.29.5-.62.99-.82,1.53-.14.38.41.54.61.25.31-.45.52-.97.78-1.46.27-.5.54-1,.82-1.5.55-.97,1.12-1.93,1.72-2.88.16-.25-.23-.47-.4-.23Z"/>
      <path class="cls-1" d="m51.01,116.85c-.61,1.11-1.23,2.23-1.85,3.33l-.9,1.61c-.3.54-.72,1.11-.91,1.7-.12.37.38.49.58.23.35-.47.57-1.12.82-1.65.27-.58.55-1.15.82-1.73.54-1.13,1.08-2.26,1.63-3.38.06-.12-.12-.23-.19-.11Z"/>
      <path class="cls-1" d="m52.11,116.76c-.7,1.15-1.38,2.31-2.06,3.48-.67,1.16-1.41,2.31-2.01,3.5-.19.37.35.68.57.32.7-1.14,1.29-2.37,1.93-3.55.64-1.19,1.27-2.38,1.89-3.58.11-.2-.19-.38-.31-.18Z"/>
      <path class="cls-1" d="m52.69,117.3c-.73,1.21-1.44,2.43-2.09,3.68-.33.63-.64,1.25-.95,1.89-.3.61-.64,1.22-.83,1.88-.1.34.37.5.55.22.39-.58.64-1.26.95-1.89.29-.61.6-1.23.9-1.83.63-1.24,1.25-2.48,1.9-3.7.15-.28-.27-.52-.43-.25Z"/>
      <path class="cls-1" d="m53.31,117.97c-.95,2.26-1.95,4.51-3.15,6.66-.21.37.4.7.57.32.98-2.28,2.02-4.53,2.94-6.83.08-.21-.28-.36-.36-.15Z"/>
      <path class="cls-1" d="m36.74,124.38c-.76.48-1.5.98-2.22,1.52-.7.52-1.43,1.06-2.04,1.68-.12.12.05.28.18.18.7-.54,1.36-1.13,2.06-1.67.7-.52,1.41-1.02,2.15-1.48.15-.09.01-.33-.13-.23Z"/>
      <path class="cls-1" d="m38.48,123.85c-1.44,1.05-2.88,2.1-4.32,3.15-.19.14,0,.46.18.32,1.43-1.07,2.86-2.14,4.29-3.21.16-.12,0-.38-.15-.27Z"/>
      <path class="cls-1" d="m40.93,123.13c-.88.56-1.74,1.15-2.57,1.78-.4.3-.78.61-1.17.92-.41.34-.86.66-1.21,1.06-.15.17.05.5.26.34.4-.29.75-.65,1.12-.98.39-.34.8-.67,1.21-.99.82-.64,1.67-1.25,2.54-1.82.19-.13.02-.44-.18-.31Z"/>
      <path class="cls-1" d="m43.11,122.77c-1.05.65-2.07,1.34-3.05,2.09-.48.37-.95.76-1.41,1.16-.47.4-.96.8-1.33,1.29-.15.19.15.48.34.34.48-.34.87-.78,1.3-1.17.45-.41.92-.81,1.39-1.2.94-.79,1.91-1.53,2.92-2.21.17-.12.02-.4-.16-.29Z"/>
      <path class="cls-1" d="m43.97,123.17l-4.22,3.57c-.26.22.12.6.37.37,1.36-1.24,2.72-2.47,4.08-3.71.16-.15-.07-.37-.24-.24Z"/>
      <path class="cls-1" d="m45.39,123.68c-1.25,1-2.51,2-3.75,3.01-.14.11-.12.35,0,.46.13.13.33.12.46,0,1.21-1.05,2.4-2.11,3.59-3.17.21-.19-.09-.48-.31-.31Z"/>
      <path class="cls-1" d="m47.05,124.11c-.09-.1-.23-.08-.33,0-.54.44-1.09.87-1.63,1.31-.54.44-1.11.85-1.61,1.33-.2.18.07.54.29.38.57-.41,1.1-.89,1.65-1.34.54-.45,1.09-.9,1.63-1.36.1-.08.08-.24,0-.33Z"/>
      <path class="cls-1" d="m48.51,124.51c-.1-.1-.26-.09-.36,0-.78.66-1.52,1.37-2.22,2.13-.09.1-.1.26,0,.36.09.09.27.1.36,0,.69-.76,1.43-1.47,2.22-2.13.11-.09.09-.27,0-.36Z"/>
      <path class="cls-1" d="m40.35,116.61c-3.43-7.54-6.35-15.29-8.73-23.22-.02-.06-.12-.04-.1.03,2.24,8.01,4.99,15.87,8.25,23.53.17.39.76.06.58-.33Z"/>
      <path class="cls-1" d="m31.66,97.9c-.84-2.68-1.66-5.36-2.49-8.04-.03-.09-.16-.05-.14.04.77,2.7,1.55,5.39,2.32,8.09.76,2.68,1.37,5.46,2.31,8.09.11.31.57.2.5-.13-.65-2.71-1.66-5.38-2.5-8.04Z"/>
      <path class="cls-1" d="m29,93.86c-.75-2.23-1.51-4.47-2.26-6.7-.03-.09-.17-.05-.15.05.69,2.25,1.39,4.51,2.08,6.76.69,2.24,1.33,4.54,2.15,6.74.09.23.43.12.36-.12-.62-2.27-1.44-4.5-2.19-6.73Z"/>
      <path class="cls-1" d="m47.68,73.72c-.73-.73-1.46-1.46-2.19-2.19-.2-.2-.5.11-.31.31.72.74,1.44,1.48,2.16,2.22.22.22.57-.12.34-.34Z"/>
      <path class="cls-1" d="m47.21,73.84c-.14-.16-.31-.3-.47-.45-.17-.15-.33-.3-.5-.45-.33-.3-.65-.6-.98-.9-.17-.16-.42.09-.25.25.32.3.64.61.97.91.16.15.32.3.48.45.16.15.32.32.5.45.08.06.18.08.26,0,.07-.07.07-.19,0-.26Z"/>
      <path class="cls-1" d="m47.32,74.49c-.95-1.02-1.98-1.95-3.11-2.76-.07-.05-.16.07-.09.12,1.09.84,2.12,1.79,2.99,2.85.12.14.34-.07.21-.21Z"/>
      <path class="cls-1" d="m48.51,76.58c-.93-1.01-1.93-1.96-2.91-2.93-.98-.97-1.95-1.94-2.93-2.91-.09-.09-.24.05-.14.14.95,1,1.89,2,2.84,3,.95,1,1.87,2.02,2.86,2.98.18.18.45-.09.28-.28Z"/>
      <path class="cls-1" d="m48.12,77.38c-.42-.55-.94-1.03-1.42-1.52-.5-.51-1-1.03-1.49-1.54-.98-1.01-1.96-2.02-2.94-3.03-.11-.11-.28.06-.17.17.94,1.05,1.88,2.1,2.83,3.15.46.52.93,1.04,1.39,1.55.48.53.93,1.1,1.46,1.57.25.22.54-.1.35-.35Z"/>
      <path class="cls-1" d="m48.35,78.78c-.19-.4-.57-.73-.86-1.06-.32-.36-.64-.73-.96-1.09-.66-.74-1.34-1.47-2.02-2.19-1.35-1.42-2.74-2.81-4.16-4.16-.1-.09-.24.05-.14.14,1.38,1.4,2.72,2.84,4.02,4.31.64.73,1.27,1.46,1.9,2.2.31.37.62.74.93,1.12.3.36.57.8.95,1.08.22.17.46-.15.36-.36Z"/>
      <path class="cls-1" d="m47.97,79.67c-.22-.38-.56-.69-.86-1.01-.32-.34-.64-.69-.96-1.03-.66-.71-1.31-1.42-1.97-2.13-1.29-1.4-2.6-2.78-3.91-4.17-.1-.1-.24.05-.15.15,1.24,1.46,2.47,2.91,3.72,4.36l1.85,2.13c.31.36.62.71.92,1.07.31.35.59.74.97,1.02.24.18.53-.16.39-.39Z"/>
      <path class="cls-1" d="m48.93,82.7c-.62-.95-1.49-1.79-2.23-2.65-.78-.91-1.55-1.81-2.33-2.72-1.55-1.81-3.11-3.63-4.66-5.44-.1-.11-.25.05-.16.16,1.47,1.85,2.93,3.7,4.4,5.55.72.91,1.44,1.82,2.16,2.73.73.92,1.41,1.98,2.25,2.8.28.27.79-.08.56-.43Z"/>
      <path class="cls-1" d="m48.27,83.58c-.61-.95-1.42-1.8-2.15-2.67-.76-.91-1.52-1.83-2.29-2.74-1.52-1.83-3.05-3.66-4.57-5.49-.16-.19-.42.08-.27.27,1.48,1.83,2.95,3.65,4.43,5.48.73.9,1.45,1.8,2.18,2.7.74.92,1.44,1.92,2.29,2.74.19.18.54-.05.38-.29Z"/>
      <path class="cls-1" d="m48.96,85.8c-1.49-2.15-3.33-4.07-5.05-6.03-1.76-2.02-3.52-4.03-5.28-6.05-.16-.19-.43.08-.27.27,1.69,2.03,3.37,4.07,5.06,6.1,1.67,2.02,3.28,4.16,5.17,5.99.18.17.52-.06.36-.28Z"/>
      <path class="cls-1" d="m49.24,87.95c-1.61-2.27-3.46-4.39-5.29-6.5-1.87-2.15-3.78-4.27-5.73-6.35-.13-.14-.33.07-.21.21,1.88,2.1,3.71,4.23,5.51,6.39,1.79,2.16,3.5,4.4,5.35,6.52.17.19.51-.06.36-.28Z"/>
      <path class="cls-1" d="m48.73,89.36c-.72-1.14-1.7-2.17-2.55-3.22-.93-1.14-1.86-2.27-2.8-3.39-1.86-2.21-3.76-4.39-5.68-6.55-.07-.08-.18.04-.12.12,1.81,2.21,3.6,4.44,5.36,6.69.85,1.09,1.7,2.18,2.55,3.28.89,1.15,1.7,2.44,2.69,3.5.27.29.77-.08.55-.42Z"/>
      <path class="cls-1" d="m49.62,92.61c-.82-1.31-1.93-2.47-2.91-3.66-1.03-1.25-2.08-2.5-3.12-3.75-2.08-2.5-4.16-4.99-6.23-7.49-.11-.13-.29.06-.19.19l5.93,7.59c.97,1.24,1.94,2.49,2.92,3.73.99,1.26,1.93,2.66,3.08,3.78.26.25.71-.07.51-.39Z"/>
      <path class="cls-1" d="m49.4,94.4c-.75-1.37-1.9-2.61-2.86-3.85-1.02-1.32-2.05-2.63-3.09-3.93-2.09-2.6-4.27-5.12-6.48-7.62-.08-.09-.2.04-.13.13,2.11,2.54,4.14,5.12,6.17,7.72,1.04,1.34,2.07,2.68,3.08,4.04.94,1.26,1.78,2.7,2.86,3.84.23.24.61-.06.45-.35Z"/>
      <path class="cls-1" d="m50.79,97.87c-.98-1.57-2.29-2.97-3.45-4.41-1.26-1.57-2.53-3.14-3.79-4.7-2.49-3.08-4.99-6.16-7.59-9.15-.06-.07-.19.02-.13.1,2.26,3.13,4.62,6.2,7,9.25,1.2,1.54,2.41,3.09,3.61,4.63,1.22,1.57,2.38,3.3,3.78,4.72.28.29.8-.08.57-.44Z"/>
      <path class="cls-1" d="m49.27,98.74c-.83-1.7-2.22-3.25-3.33-4.77-1.1-1.5-2.22-2.97-3.35-4.44-2.36-3.07-4.82-6.07-7.33-9.02-.08-.1-.21.04-.14.14,2.41,3.1,4.76,6.24,7.08,9.4,1.11,1.52,2.21,3.05,3.29,4.58,1.05,1.48,1.99,3.21,3.24,4.53.27.29.7-.07.53-.41Z"/>
      <path class="cls-1" d="m49.92,101.42c-2.16-3.25-4.7-6.3-7.07-9.4-2.5-3.27-5.06-6.51-7.54-9.8-.06-.08-.21,0-.14.08,2.39,3.29,4.7,6.65,7.06,9.96,2.18,3.06,4.28,6.25,6.64,9.18-.03.12,0,.25.14.35l.33.21c.35.23.81-.23.58-.58Z"/>
      <path class="cls-1" d="m50.58,104.31c-1.12-1.91-2.66-3.65-3.99-5.42l-4.04-5.39c-2.63-3.51-5.3-6.98-7.97-10.45-.16-.22-.54.07-.38.29,2.62,3.64,5.23,7.28,7.88,10.9,1.29,1.75,2.58,3.5,3.87,5.26,1.3,1.76,2.5,3.71,3.99,5.31.31.34.88-.1.65-.49Z"/>
      <path class="cls-1" d="m50.62,107.28c-1.15-2.11-2.69-3.98-4.11-5.91-1.42-1.94-2.86-3.88-4.28-5.82-2.85-3.9-5.71-7.77-8.59-11.65-.11-.14-.35-.02-.24.14,2.65,4.09,5.37,8.12,8.19,12.1,1.39,1.96,2.78,3.93,4.2,5.87,1.4,1.92,2.72,3.92,4.38,5.61.23.23.61-.06.45-.35Z"/>
      <path class="cls-1" d="m50.39,108.79c-1.19-2.02-2.71-3.88-4.09-5.77-1.43-1.96-2.86-3.93-4.31-5.88-2.85-3.85-5.71-7.71-8.56-11.56-.18-.24-.59-.01-.41.23,2.84,3.94,5.67,7.88,8.51,11.82,1.38,1.92,2.78,3.82,4.17,5.73,1.4,1.92,2.72,3.95,4.31,5.72.18.21.52-.06.38-.29Z"/>
      <path class="cls-1" d="m51.25,112.12c-1.34-2.42-3.06-4.66-4.69-6.89-1.6-2.2-3.22-4.39-4.84-6.57-3.22-4.33-6.54-8.59-9.9-12.81-.13-.16-.42.06-.29.22,3.29,4.4,6.54,8.84,9.79,13.27,1.61,2.19,3.2,4.39,4.79,6.6,1.55,2.16,3.06,4.43,4.83,6.42.15.17.42-.05.31-.24Z"/>
      <path class="cls-1" d="m51.23,113.95c-6.51-8.5-12.67-17.24-19.01-25.86-.13-.17-.42-.02-.3.17,5.72,9.1,12.17,17.77,18.72,26.28.33.42.91-.17.59-.59Z"/>
      <path class="cls-1" d="m50.83,115.98c-6.27-8.66-12.5-17.35-18.79-26-.08-.1-.25-.01-.18.1,5.63,9.08,11.82,17.91,18.36,26.36.26.34.86-.11.61-.46Z"/>
      <path class="cls-1" d="m50.07,116.82c-1.22-1.8-2.76-3.42-4.1-5.13-1.46-1.87-2.88-3.78-4.29-5.7-2.62-3.59-4.94-7.42-7.63-10.95,0,0,0,0,0,0,0,0,0,0,0,0,0-.01-.01-.02-.02-.03h0c-.11-.1-.3.02-.23.17,2.01,4.04,4.81,7.83,7.44,11.49,1.24,1.73,2.53,3.43,3.83,5.11,1.41,1.82,2.79,3.85,4.45,5.46.27.27.79-.07.56-.42Z"/>
      <path class="cls-1" d="m48.61,117.53c-.98-1.52-2.2-2.91-3.29-4.36-1.1-1.45-2.17-2.93-3.23-4.41-2.13-2.96-4.22-5.94-6.29-8.94-.12-.17-.4-.02-.29.16,1.95,3.14,3.97,6.22,6.08,9.26,1.04,1.49,2.09,2.98,3.14,4.46,1.04,1.45,2.02,3.01,3.21,4.34.32.36.94-.11.68-.51Z"/>
      <path class="cls-1" d="m47.28,117.75c-.76-1.32-1.81-2.52-2.71-3.74-.89-1.2-1.76-2.41-2.63-3.63-1.76-2.48-3.54-4.94-5.27-7.44-.11-.16-.37-.02-.27.15,1.59,2.63,3.21,5.25,4.92,7.8.86,1.28,1.72,2.55,2.6,3.81.83,1.2,1.64,2.52,2.63,3.6.35.38.97-.1.72-.55Z"/>
      <path class="cls-1" d="m45.72,117.99c-.34-.49-.69-.99-1.03-1.48-.69-.99-1.39-1.96-2.09-2.94-1.36-1.91-2.78-3.78-4.21-5.64-.08-.11-.26.03-.19.14,1.24,2.04,2.5,4.07,3.82,6.07.66,1,1.31,2,1.98,3,.33.5.67.99,1,1.49.29.43.53.94.98,1.23.3.19.65-.12.59-.44-.11-.53-.55-.99-.86-1.43Z"/>
      <path class="cls-1" d="m44.65,118.98c-.23-.36-.46-.73-.68-1.09-.49-.78-.98-1.56-1.47-2.33-1-1.55-1.99-3.09-2.99-4.64-.16-.25-.55-.03-.4.23.91,1.59,1.82,3.19,2.74,4.78.46.8.92,1.59,1.39,2.38.22.37.43.74.65,1.11.23.39.42.87.77,1.16.3.26.77.02.67-.39-.11-.44-.43-.83-.67-1.22Z"/>
      <path class="cls-1" d="m44.07,120.14c-.17-.28-.33-.57-.5-.85-.33-.55-.68-1.08-1.02-1.62-.7-1.09-1.43-2.17-2.16-3.24-.11-.16-.37-.02-.27.15.66,1.11,1.31,2.24,1.94,3.37.31.56.61,1.12.91,1.68.16.29.32.58.48.87.14.26.25.53.55.61.14.04.28-.05.32-.19.09-.3-.09-.54-.24-.79Z"/>
      <path class="cls-1" d="m43.57,64.65s-.04,0-.03.02c.16.36.33.72.49,1.08.02.04.09,0,.07-.04-.17-.35-.35-.71-.52-1.06Z"/>
      <path class="cls-1" d="m45.55,67.25c-.46-1.04-.95-2.07-1.43-3.1-.05-.12-.25-.04-.21.09.37,1.08.74,2.15,1.13,3.22.38,1.05.7,2.16,1.22,3.16.17.33.72.11.61-.25-.32-1.07-.86-2.09-1.32-3.12Z"/>
      <path class="cls-1" d="m45.58,69.74c-.24-.72-.48-1.44-.75-2.15-.53-1.39-1.09-2.76-1.68-4.13-.08-.19-.41-.06-.34.14.48,1.41.93,2.82,1.35,4.25.2.7.42,1.4.63,2.1.2.7.32,1.47.65,2.12.18.35.8.21.76-.2-.07-.72-.38-1.44-.61-2.13Z"/>
      <path class="cls-1" d="m42.08,63.89c-.05-.13-.26-.08-.21.06.88,2.56,1.66,5.15,2.35,7.76-.06.11-.07.27.01.37.06.09.13.17.21.24.23.25.69,0,.59-.34-.89-2.73-1.87-5.43-2.95-8.09Z"/>
      <path class="cls-1" d="m40.89,63.22c-.04-.1-.2-.06-.16.04.9,2.54,1.59,5.18,2.24,7.8-.03.07-.04.14,0,.21l.15.33c.14.31.65.1.55-.22-.83-2.76-1.82-5.44-2.78-8.15Z"/>
      <path class="cls-1" d="m42.12,69.07c-.25-.73-.52-1.45-.79-2.17l-1.66-4.5c-.1-.27-.54-.17-.45.12.49,1.52.97,3.03,1.46,4.55.23.73.47,1.46.72,2.19.25.73.44,1.57.9,2.2.13.18.46.15.45-.12-.03-.78-.38-1.54-.64-2.27Z"/>
      <path class="cls-1" d="m40.45,67.81c-.23-.77-.47-1.54-.72-2.31-.49-1.47-1.04-2.92-1.64-4.35-.1-.23-.5-.07-.41.17.55,1.43,1.04,2.87,1.49,4.33.22.72.42,1.44.61,2.16.2.74.32,1.54.6,2.25.12.29.64.3.6-.08-.07-.74-.33-1.47-.53-2.18Z"/>
      <path class="cls-1" d="m37.9,65.24c-.27-1.01-.52-2.04-.78-3.05-.02-.09-.16-.05-.14.04.24,1.02.5,2.04.73,3.07.23,1.02.43,2.06.7,3.08.05.19.34.11.3-.08-.23-1.02-.53-2.03-.81-3.05Z"/>
      <path class="cls-1" d="m34.86,59.96c-.03-.1-.17-.06-.15.04.65,2.65,1.25,5.32,1.97,7.96.06.22.39.13.33-.09-.66-2.65-1.43-5.27-2.15-7.91Z"/>
      <path class="cls-1" d="m33.57,60.02c-.02-.08-.14-.05-.12.03.5,2.13.98,4.26,1.47,6.39.05.21.38.12.32-.08-.56-2.11-1.12-4.22-1.67-6.34Z"/>
      <path class="cls-1" d="m31.72,58.48c-.03-.1-.19-.06-.16.04l1.52,5.75c.05.19.35.11.3-.08-.55-1.9-1.1-3.81-1.65-5.71Z"/>
      <path class="cls-1" d="m30.15,58.32c-.04-.13-.25-.08-.21.06l1.25,4.44c.06.21.38.12.32-.08-.45-1.47-.9-2.94-1.36-4.41Z"/>
      <path class="cls-1" d="m28.51,57.37c-.02-.08-.15-.05-.12.03.34,1.26.69,2.52,1.03,3.77.05.18.33.1.27-.07-.39-1.24-.79-2.49-1.18-3.73Z"/>
      <path class="cls-1" d="m27.6,58.4c-.02-.08-.15-.05-.12.03.13.46.26.92.4,1.38.02.08.15.05.12-.03-.13-.46-.26-.92-.4-1.38Z"/>
      <path class="cls-1" d="m34.45,74.76c0-.07-.12-.07-.12,0,.04,2.38.07,4.75.11,7.13,0,.12.2.12.19,0-.06-2.38-.13-4.75-.19-7.13Z"/>
      <path class="cls-1" d="m35.44,75.7l-.35-3.54c-.01-.11-.18-.11-.17,0,.1,1.2.2,2.41.3,3.61.1,1.16.15,2.34.32,3.5.02.12.22.09.21-.03-.04-1.18-.21-2.37-.32-3.54Z"/>
      <path class="cls-1" d="m36.03,72.3c0-.06-.1-.06-.09,0,.19,1.66.37,3.32.56,4.98.01.1.17.1.15,0-.21-1.66-.41-3.32-.62-4.98Z"/>
      <path class="cls-1" d="m37.12,71.29s-.08-.05-.08,0c.15,1.69.3,3.38.46,5.07,0,.06.09.06.09,0-.16-1.69-.31-3.38-.47-5.07Z"/>
      <path class="cls-1" d="m35.68,69.25c-1.6-1.74-3.5-3.25-5.27-4.82-1.78-1.58-3.58-3.15-5.39-4.7-.07-.06-.17.04-.1.1,1.74,1.68,3.49,3.33,5.26,4.98,1.72,1.6,3.39,3.33,5.27,4.75.18.14.38-.16.24-.31Z"/>
      <path class="cls-1" d="m30.79,71.27c-1.37-.96-2.75-1.92-4.12-2.88-.09-.06-.19.06-.11.13,1.34,1,2.68,2,4.02,3,.17.12.37-.13.2-.25Z"/>
      <path class="cls-1" d="m32.49,75.02c-3.13-2.26-6.34-4.41-9.52-6.61-.08-.06-.17.07-.09.13,3.11,2.29,6.19,4.63,9.35,6.85.24.17.49-.2.25-.37Z"/>
      <path class="cls-1" d="m19.72,77.4c-.2-1.81-.4-3.61-.62-5.41-.43-3.55-.94-7.09-1.48-10.63-.02-.14-.26-.11-.24.03.46,3.66.88,7.33,1.28,11,.2,1.8.38,3.61.56,5.41.17,1.74.16,3.58.54,5.28.06.28.48.21.49-.06.06-1.84-.32-3.79-.52-5.62Z"/>
      <path class="cls-1" d="m10.91,71.09c-.02-.17-.28-.17-.27,0,.16,2.04.33,4.08.49,6.12.02.24.39.24.37,0-.2-2.04-.39-4.08-.59-6.12Z"/>
      <path class="cls-1" d="m9.34,74.78c-.01-.11-.19-.12-.18,0,.3,4.23.49,8.48.93,12.69.03.25.41.26.4,0-.25-4.24-.76-8.47-1.15-12.69Z"/>
      <path class="cls-1" d="m5.42,95.72c-.03-.11-.2-.07-.17.05.3,1.27.6,2.54.91,3.81.03.14.26.09.22-.06l-.96-3.8Z"/>
      <path class="cls-1" d="m6.18,95.23c-.02-.07-.12-.04-.11.03.34,1.77.67,3.55,1.01,5.32.03.15.25.09.22-.06-.37-1.77-.75-3.53-1.12-5.3Z"/>
      <path class="cls-1" d="m6.89,95.66c-.02-.11-.2-.07-.17.05.35,1.77.7,3.54,1.04,5.32.03.16.28.1.25-.06l-1.12-5.3Z"/>
      <path class="cls-1" d="m8.69,99.37c-.37-1.69-.74-3.39-1.11-5.08-.02-.11-.19-.07-.17.05.33,1.71.65,3.41.98,5.12.32,1.7.58,3.43,1,5.11.07.26.44.15.4-.1-.27-1.71-.72-3.4-1.09-5.09Z"/>
      <path class="cls-1" d="m10.39,102.97c-.2-.92-.4-1.85-.59-2.77-.4-1.85-.79-3.7-1.18-5.54-.02-.11-.18-.06-.16.04.34,1.82.69,3.65,1.03,5.47.17.89.33,1.79.5,2.68.17.9.23,1.93.56,2.78.07.18.37.18.36-.05-.02-.86-.33-1.77-.51-2.62Z"/>
      <path class="cls-1" d="m23.64,106.8c-.01-.11-.19-.12-.18,0l.66,7c.02.19.31.19.29,0l-.77-7Z"/>
      <path class="cls-1" d="m26.34,112.92c-.11-1.61-.23-3.23-.35-4.84-.24-3.29-.48-6.59-.72-9.88,0-.11-.19-.12-.18,0,.2,3.36.39,6.71.59,10.07.1,1.68.2,3.36.31,5.04.1,1.54.05,3.17.35,4.69.03.17.28.12.29-.04.11-1.65-.18-3.39-.29-5.04Z"/>
      <path class="cls-1" d="m29.73,116.37c-.09,3.67-.18,7.33-.27,11,0,.15.23.15.23,0l.18-11c0-.09-.14-.09-.14,0Z"/>
      <path class="cls-1" d="m31.93,105.58c0-.11-.16-.11-.17,0-.08,6.55-.25,13.11-.19,19.67,0,.17.25.16.26,0,.15-6.55.08-13.11.1-19.67Z"/>
      <path class="cls-1" d="m33.97,107.84c-.14,5.92-.33,11.84-.36,17.76,0,.13.2.13.2,0,.22-5.92.28-11.84.4-17.76,0-.16-.24-.16-.24,0Z"/>
      <path class="cls-1" d="m35.63,110.31c0-.26-.4-.26-.4,0,.02,5.19,0,10.39.11,15.58,0,.17.27.17.27,0,.08-5.19.03-10.39.02-15.58Z"/>
      <path class="cls-1" d="m37.25,118.34c-.06-1.86-.11-3.71-.2-5.57,0-.09-.14-.09-.14,0,0,1.86.04,3.71.08,5.57.04,1.85.03,3.72.14,5.57.01.17.27.17.27,0,.02-1.85-.09-3.72-.14-5.57Z"/>
      <path class="cls-1" d="m38.77,115.17c0-.19-.29-.19-.29,0,0,2.7,0,5.4,0,8.11,0,.2.31.2.31,0,0-2.7,0-5.4,0-8.11Z"/>
      <path class="cls-1" d="m39.83,117.29c0-.31-.5-.31-.49,0,.05,1.64.1,3.29.15,4.93,0,.3.48.31.47,0-.05-1.64-.09-3.29-.14-4.93Z"/>
    </g>
  </g>
</svg>