<?xml version="1.0" encoding="UTF-8"?>
<svg id="Layer_2" data-name="Layer 2" xmlns="http://www.w3.org/2000/svg" viewBox="0 0 175.31 132.76">
  <defs>
    <style>
      .cls-1 {
        fill: #4e5150;
        stroke-width: 0px;
      }
    </style>
  </defs>
  <g id="OBJECTS">
    <g>
      <g>
        <path class="cls-1" d="m61.23,110.18c-.21,1.42-.7,2.74-1.55,3.84-.02-.04-.03-.08-.05-.13-.33-.72-.86-1.29-1.19-1.99-.3-.65-1.41-.57-1.68.07-.87,2.09-1.23,4.32-2.35,6.32-.68,1.21-1.5,2.22-2.47,3.09,0-.24,0-.48-.01-.71-.06-1.36-.42-2.53-1.03-3.75-.36-.72-1.69-.53-1.77.3-.3,3.16-2.63,5.96-4.89,8.06-1.8,1.67-3.94,2.88-6.24,3.63.46-2.12.6-4.31.38-6.47-.07-.69-.89-.83-1.26-.28-.84,1.27-2.79,2.22-4.06,3.02-1.33.85-2.75,1.59-4.14,2.35-1.41.77-2.86,1.37-4.37,1.9-.52.18-1.05.37-1.58.56,1.25-1.52,2.33-3.26,2.77-4.99.21-.82-.84-1.27-1.39-.73-.19.19-.8.09-1.06.17-.46.14-.9.44-1.34.64-.93.43-1.85.9-2.79,1.32-1.92.86-3.93,1.52-5.98,2-2.01.47-4.04.97-6.1,1.23-1.82.23-3.69.16-5.52-.04,2.6-1.48,3.77-4.56,4.97-7.18.85-1.85,1.58-3.7,2.31-5.59.37-.98.75-1.96,1.16-2.92.42-.99.78-2.2,1.54-2.97.72-.73-.26-1.7-1.08-1.3-1.57.77-3.12,1.56-4.63,2.41.95-1.79,2.4-3.43,3.71-4.84,1.75-1.87,3.9-3.26,5.78-4.97.52-.48.04-1.44-.64-1.38-.93.08-1.88.13-2.83.15.56-.36,1.14-.72,1.72-1.05.58-.33,1.16-.65,1.75-.96.69-.36,1.14-.78,1.7-1.32.37-.36.03-1-.45-.98-2.94.08-5.66,2.47-7.63,4.49-.45.46-.07,1.34.59,1.28.7-.07,1.41-.08,2.12-.08-1.39,1-2.61,2.29-3.7,3.6-1.86,2.25-2.84,4.78-4.13,7.35-.25.49.24,1.19.81.97,1.69-.66,3.3-1.45,4.9-2.27-.23.46-.48.91-.66,1.3-.39.8-.82,1.59-1.23,2.38-.86,1.66-1.77,3.27-2.54,4.97-.69,1.52-1.34,3.07-2.03,4.59-.63,1.39-1.32,2.78-2.57,3.72-.19.14-.24.37-.2.58-.38.17-.45.77.06.88,2.13.47,4.25.66,6.42.83,2.28.18,4.56.19,6.81-.25,2.19-.43,4.34-1.07,6.4-1.93.54-.22,1.08-.45,1.61-.7-.74.95-1.54,1.85-2.37,2.73-.53.57-.11,1.74.75,1.62,1.79-.25,3.58-.34,5.33-.83,1.69-.47,3.34-1.17,4.91-1.95,1.6-.79,2.97-1.83,4.3-3.01.64-.56,1.23-1.16,1.78-1.8.05-.06.1-.13.16-.2-.43,1.83-.89,3.65-1.44,5.46-.3.97.75,1.65,1.59,1.46,3.44-.75,6.6-2.54,9.12-4.99,1.24-1.2,2.39-2.59,3.16-4.15.1-.2.17-.41.27-.61,0,.02,0,.05,0,.07-.06.53.01,1.07-.09,1.59-.18.9.84,1.68,1.64,1.16,2.87-1.87,6.17-5.09,7.42-8.67.22.82,1.15,1.14,1.8.53,1.76-1.64,3.06-3.77,3.58-6.13.32-1.47-2.06-1.98-2.28-.5Z"/>
        <path class="cls-1" d="m44.77,97.8c-2.04,1.27-3.88,2.84-5.76,4.33-1.89,1.49-3.78,2.99-5.67,4.49-3.66,2.89-7.35,5.75-10.99,8.65-6.78,5.41-13.68,10.91-21.8,14.16-.56.22-.3,1.11.28.9,13.26-4.84,24.2-14.28,35.16-22.87,3.36-2.63,7.01-5.15,10.01-8.18.77-.78-.3-2.04-1.22-1.47Z"/>
        <path class="cls-1" d="m20.12,117.89c-.49-.25-.99-.02-1.27.41-.81,1.23-1.45,2.57-2.11,3.88-.67,1.31-1.24,2.68-2,3.94-.2.34.34.61.55.28.8-1.24,1.77-2.37,2.66-3.55.9-1.2,1.83-2.39,2.58-3.68.26-.44.03-1.05-.41-1.27Z"/>
        <path class="cls-1" d="m26.16,112.37c-.67,1.76-1.22,3.58-1.93,5.33-.7,1.73-1.51,3.47-2.42,5.1-.24.43.41.74.67.35,2.13-3.15,4.25-6.49,5.39-10.15.31-.98-1.35-1.6-1.72-.62Z"/>
        <path class="cls-1" d="m31.86,108.19c-.18,1.01-.2,2.03-.34,3.04-.14.94-.31,1.88-.53,2.8-.46,1.93-1.08,3.84-1.93,5.64-.21.44.44.78.67.35.97-1.82,1.85-3.66,2.54-5.6.68-1.92,1.41-4.01,1.53-6.06.06-1.11-1.74-1.26-1.93-.17Z"/>
        <path class="cls-1" d="m40.4,104.17c-.24-.89-1.47-.58-1.51.26-.04,1.08.13,2.16.17,3.24.04,1.04.01,2.08-.06,3.12-.16,2.11-.33,4.34-.97,6.37-.06.19.26.31.33.12.82-2.11,1.66-4.11,1.99-6.37.16-1.09.26-2.2.3-3.3.04-1.14.06-2.33-.24-3.44Z"/>
        <path class="cls-1" d="m48.55,104.46c-.16-1.01-.47-2-.84-2.95-.37-.98-.8-2.08-1.53-2.86-.68-.73-1.79.13-1.56.98.23.88.78,1.73,1.13,2.58.38.9.67,1.83.99,2.76.63,1.77,1.17,3.75,1.19,5.64,0,.44.64.39.67-.03.07-1.01.21-2.02.21-3.04,0-1.03-.1-2.07-.26-3.09Z"/>
        <path class="cls-1" d="m13.53,122.59c-.18-.13-.33-.23-.55-.23-.1,0-.2.02-.3.03-.24.02-.47.05-.7.08-.47.07-.95.14-1.42.22-.46.08-.91.19-1.36.3-.46.12-.88.32-1.32.48-.09.03-.07.18.03.17.47-.05.93-.03,1.4-.06.44-.03.87-.04,1.31-.04.42,0,.85.01,1.27.05.48.04,1.14.27,1.57-.02.31-.21.43-.74.09-1Z"/>
        <path class="cls-1" d="m19.9,117.11c-1.76,0-3.54.25-5.27.53-.83.13-1.66.29-2.48.47-.42.1-.84.19-1.25.34-.43.16-.85.43-1.29.54-.1.02-.05.17.05.15.45-.11.99-.05,1.45-.08.4-.03.79-.09,1.18-.14.82-.1,1.65-.17,2.48-.2,1.67-.06,3.31.09,4.97.23.55.05,1.07-.22,1.13-.83.05-.57-.4-1.01-.96-1.02Z"/>
        <path class="cls-1" d="m27.71,111.77c-.9-1.08-2.53-.91-3.82-.85-1.38.06-2.77.18-4.14.4-2.77.44-5.48,1.2-8.17,1.99-.09.03-.05.16.04.14,2.69-.69,5.41-.88,8.18-.84,1.31.02,2.62.07,3.92.2,1.16.12,2.8.6,3.79-.18.23-.19.43-.58.2-.86Z"/>
        <path class="cls-1" d="m32.59,106.83c-6.43-.58-13.07-.31-19.35,1.26-.34.09-.25.66.1.61,6.3-.8,12.53-.94,18.82.05,1.27.2,1.66-1.81.42-1.93Z"/>
        <path class="cls-1" d="m40.09,101.38c-1.64-.5-3.64-.5-5.36-.57-1.91-.07-3.82.04-5.73.11-1.84.07-3.69.18-5.52.37-.92.09-1.84.19-2.75.34-.99.15-1.97.52-2.95.64-.12.01-.11.2,0,.18.95-.13,2,0,2.97-.03.85-.03,1.7-.07,2.55-.09,1.85-.04,3.7-.03,5.54.05,1.9.09,3.8.34,5.69.56,1.74.2,3.61.62,5.36.57,1.29-.04,1.33-1.8.19-2.15Z"/>
        <path class="cls-1" d="m42.32,106.59c-.3,7.93-1.57,15.87-4.07,23.41-.12.37.5.52.6.13,2.05-7.72,3.36-15.56,3.62-23.55,0-.09-.14-.09-.14,0Z"/>
        <path class="cls-1" d="m44.44,100.68c-.01-.19-.31-.18-.3.01.4,8.52-.7,16.97-3,25.17-.09.32.41.42.5.11,2.54-8.16,3.4-16.79,2.8-25.3Z"/>
        <path class="cls-1" d="m45.95,105.54c0-.07-.12-.07-.11,0,.24,3.77.11,7.57-.51,11.3-.6,3.63-1.68,7.09-2.84,10.57-.1.29.39.47.51.18,2.78-6.83,3.53-14.75,2.96-22.06Z"/>
        <path class="cls-1" d="m47.04,114.45c-.33,3.87-1.25,7.56-2.38,11.26-.11.37.47.5.59.13,1.12-3.67,1.65-7.57,1.92-11.39,0-.08-.12-.08-.13,0Z"/>
        <path class="cls-1" d="m26.36,118.73c-.87,2.35-1.98,4.59-3.36,6.68-.27.41.45.81.7.36,1.2-2.21,2.2-4.54,2.96-6.93.05-.17-.23-.27-.29-.11Z"/>
        <path class="cls-1" d="m28.9,114.24c-.55,2.4-1.28,4.74-2.15,7.05-.85,2.26-1.93,4.36-3.02,6.51-.21.42.42.74.65.33,2.36-4.24,3.85-9.09,4.69-13.85.02-.11-.14-.15-.17-.04Z"/>
        <path class="cls-1" d="m27.36,123.89c-.61,1.32-1.3,2.58-2.08,3.81-.39.62-.79,1.23-1.22,1.82-.42.59-.88,1.15-1.28,1.75-.23.36.34.76.61.43.46-.55.83-1.19,1.21-1.8.39-.62.76-1.26,1.11-1.9.71-1.29,1.36-2.61,1.95-3.95.09-.21-.22-.37-.32-.16Z"/>
        <path class="cls-1" d="m32.6,116.9c-.79,2.5-1.8,4.92-3.03,7.23-.59,1.11-1.23,2.19-1.92,3.25-.71,1.09-1.55,2.09-2.27,3.17-.31.46.45.99.8.56.82-.99,1.48-2.16,2.13-3.26.67-1.15,1.29-2.33,1.86-3.54,1.1-2.37,1.98-4.83,2.63-7.36.03-.13-.16-.16-.2-.04Z"/>
        <path class="cls-1" d="m13.81,125.38c-.83,1.61-1.76,3.17-2.78,4.67-.19.29.29.54.48.25.99-1.52,1.88-3.09,2.68-4.72.12-.25-.25-.44-.38-.2Z"/>
        <path class="cls-1" d="m13.46,123.39c-.42,1.32-.98,2.58-1.68,3.77-.35.59-.72,1.16-1.13,1.7-.21.28-.43.55-.65.82-.21.24-.45.47-.62.74-.07.11.09.26.19.18.53-.39.95-1.04,1.35-1.57.41-.55.8-1.13,1.15-1.73.71-1.21,1.28-2.51,1.71-3.85.06-.19-.25-.26-.31-.07Z"/>
        <path class="cls-1" d="m11.09,125.34c-.81,1.64-1.75,3.21-2.85,4.68-.16.21.15.43.3.21,1.05-1.51,1.99-3.1,2.77-4.77.07-.15-.16-.27-.23-.12Z"/>
        <path class="cls-1" d="m8.87,126.46c-.5,1.33-1.26,2.56-2.22,3.61-.19.2.13.5.31.29.99-1.1,1.75-2.38,2.24-3.78.07-.19-.26-.31-.33-.12Z"/>
        <path class="cls-1" d="m7.16,127.01l-1.73,2.71c-.15.24.24.45.39.2.56-.91,1.13-1.82,1.69-2.73.14-.22-.22-.4-.36-.18Z"/>
        <path class="cls-1" d="m22.36,116.49c-.24.43-.28.98-.41,1.45-.14.52-.29,1.05-.46,1.56-.36,1.1-.8,2.18-1.31,3.22-.99,2.03-2.24,3.92-3.73,5.62-.11.13.08.31.2.18,1.57-1.66,2.93-3.54,3.99-5.57.52-1,.98-2.04,1.36-3.11.19-.52.36-1.05.51-1.59.14-.52.38-1.13.32-1.66-.02-.25-.35-.33-.47-.1Z"/>
        <path class="cls-1" d="m20.25,120.35c-.45,1.21-1.01,2.36-1.62,3.5-.61,1.14-1.25,2.25-1.99,3.31-.14.2.2.38.34.18.74-1.07,1.45-2.19,2-3.37.54-1.15.98-2.37,1.36-3.58.02-.05-.07-.09-.09-.03Z"/>
        <path class="cls-1" d="m51.59,116.18c-.09-1.57-.28-3.15-.49-4.71-.43-3.15-1.27-6.2-2.5-9.14-.04-.09-.19-.05-.15.05,1.18,2.97,1.99,6.09,2.4,9.27.19,1.52.21,3.03.14,4.56-.07,1.57-.38,3.16-.39,4.72,0,.47.7.51.8.07.36-1.51.27-3.28.18-4.82Z"/>
        <path class="cls-1" d="m53.55,113.16c-.3-3.26-1.06-6.44-2.21-9.5-.06-.17-.33-.09-.27.08,1,3.12,1.62,6.36,1.85,9.62.11,1.53.13,3.06.07,4.59-.06,1.65-.41,3.27-.5,4.91-.02.37.51.37.61.05.43-1.45.48-3.13.56-4.64.09-1.71.06-3.41-.09-5.12Z"/>
        <path class="cls-1" d="m52.23,103.48c-.1-.2-.38-.01-.29.18,2.06,4.49,3.26,9.36,3.36,14.3,0,.4.64.38.63-.03-.17-5.04-1.37-9.97-3.7-14.45Z"/>
        <path class="cls-1" d="m57.36,113.91c-.06-.47-.13-.94-.21-1.41-.14-.87-.33-1.74-.58-2.59-.51-1.76-1.24-3.45-2.16-5.03-.14-.25-.51-.01-.38.23.87,1.57,1.55,3.23,2.01,4.96.23.86.42,1.74.52,2.63.05.41.08.83.1,1.24.02.4-.04.75.23,1.06.08.1.29.09.36-.01.24-.34.15-.67.1-1.08Z"/>
        <path class="cls-1" d="m58.57,110.81c-.24-1.1-.56-2.19-.94-3.25-.11-.29-.57-.16-.46.14.35,1.03.64,2.08.86,3.14.22,1.09.32,2.18.48,3.28.05.33.53.33.53-.02-.01-1.11-.23-2.22-.46-3.3Z"/>
        <path class="cls-1" d="m58.96,107.32c-.07-.28-.49-.15-.42.13.33,1.39.6,2.8.8,4.22.19,1.39.25,2.78.3,4.18.02.56.92.52.87-.04-.26-2.85-.8-5.72-1.54-8.49Z"/>
        <path class="cls-1" d="m42.22,99.88c-4.71-.82-9.63-1.06-14.41-1.23-4.94-.18-9.89-.06-14.82.33-.43.03-.4.71.03.67,4.78-.41,9.58-.57,14.37-.45,4.95.13,9.77.78,14.68,1.35.43.05.59-.59.15-.67Z"/>
        <path class="cls-1" d="m41.54,100.94c-4.78-1.04-9.95-1.13-14.83-1.08-5.1.05-10.16.44-15.19,1.27-.38.06-.3.6.09.53,4.91-.83,9.91-1.34,14.9-1.34,2.36,0,4.72.09,7.07.27,2.63.2,5.22.64,7.84.88.34.03.47-.45.12-.53Z"/>
      </g>
      <g>
        <path class="cls-1" d="m174.56,46.26c-.16-.13-.38-.2-.59-.11-1.41.59-2.92.49-4.4.33-1.63-.17-3.25-.39-4.87-.56-1.82-.19-3.62-.22-5.45-.31-.87-.05-1.75-.07-2.62-.13-.42-.03-.92-.04-1.42-.08,1.48-.95,2.94-1.91,4.33-3.01.47-.37.12-1.13-.42-1.16-2.8-.17-5.42-.6-8.24-.14-1.64.27-3.33.66-4.86,1.34.35-.6.71-1.19,1.11-1.75.38-.52-.18-1.28-.79-1.13-2.47.61-5.5,1.62-7.15,3.69.13.46.23.91.29,1.38.69-.19,1.24-.36,1.86-.75.55-.35,1.11-.68,1.68-1.01.57-.33,1.15-.63,1.74-.93-.48.79-1,1.57-1.52,2.31-.39.54.18,1.42.85,1.22,2.37-.74,4.6-1.86,7.05-2.42,1.84-.42,3.94-.82,5.92-.74-1.47.86-2.9,1.77-4.32,2.72-.73.49-.41,1.79.57,1.55,1.02-.26,2.23.03,3.27.17,1.01.13,2.03.3,3.04.47,1.96.32,3.88.62,5.86.82,2.8.28,5.98.82,8.51-.64-.74,1.64-1.6,3.25-2.69,4.67-1.23,1.61-2.65,3.07-4.05,4.54-1.42,1.49-2.97,2.86-4.64,4.06-.82.58-1.67,1.12-2.49,1.7-.38.27-.85.49-1.2.81-.2.18-.42.74-.67.81-.73.2-.87,1.31-.08,1.54,1.67.48,3.67.44,5.57.13-.42.36-.84.71-1.25,1.05-1.2,1.01-2.42,1.94-3.77,2.75-1.32.8-2.65,1.63-4.02,2.33-1.31.67-3.07,1.85-4.56,1.93-.64.03-.93.79-.39,1.2,1.71,1.26,3.63,2.21,5.65,2.87-1.77,1.58-3.84,2.78-6.14,3.47-2.88.87-6.4,1.46-9.21.14-.74-.34-1.56.68-1.13,1.34.72,1.11,1.53,2,2.65,2.72.19.12.39.24.59.36-1.22.38-2.48.58-3.83.56-2.25-.04-4.3-.84-6.5-1.14-.67-.09-1.28.8-.88,1.38.43.62.65,1.35,1.09,1.98.03.04.06.07.08.1-1.35.17-2.7-.06-4-.59-.06-.02-.1-.01-.16-.03-.34.6-.71,1.18-1.12,1.74.12.19.29.37.57.46,2.24.73,4.68.69,6.94.01.84-.25,1.03-1.19.44-1.78,3.64.71,7.98-.48,10.98-1.98.84-.42.68-1.66-.17-1.95-.49-.17-.91-.5-1.39-.71-.02,0-.04-.02-.06-.03.22.02.43.06.65.08,1.69.12,3.43-.16,5.06-.62,3.31-.92,6.38-2.7,8.71-5.23.57-.61.52-1.84-.45-2.06-1.8-.42-3.56-.93-5.32-1.48.08-.01.17-.02.25-.03.82-.15,1.61-.35,2.4-.61,1.65-.54,3.21-1.18,4.66-2.14,1.43-.94,2.83-1.99,4.07-3.18,1.28-1.23,2.24-2.7,3.34-4.09.52-.66-.25-1.6-1-1.44-1.15.26-2.3.49-3.47.65.47-.32.93-.66,1.39-1.01,1.74-1.32,3.34-2.81,4.79-4.45,1.49-1.68,2.6-3.61,3.58-5.62.93-1.91,1.82-3.8,2.47-5.82.16-.49-.38-.72-.71-.49Z"/>
        <path class="cls-1" d="m174.33,46.38c-6.76,5.25-14.8,8.34-22.71,11.4-4.25,1.64-8.48,3.34-12.73,5-2.19.86-4.39,1.71-6.58,2.57-.07.03-.14.05-.21.08-.12.49-.23.98-.35,1.47-.17.73-.71,1.28-1.36,1.57-.02.04-.04.09-.07.13,2.69-.97,5.35-2.14,7.98-3.17,12.66-5,26.03-9.57,36.66-18.36.46-.38-.16-1.04-.62-.68Z"/>
        <path class="cls-1" d="m154.92,57.2c.03-.54.47-.84.97-.87,1.44-.08,2.88.05,4.31.13,1.44.08,2.87.28,4.31.26.39,0,.35.58-.03.6-1.44.06-2.87.33-4.31.49-1.46.16-2.92.37-4.38.36-.5,0-.9-.49-.87-.97Z"/>
        <path class="cls-1" d="m147.28,59.57c1.82.3,3.62.74,5.45,1.01,1.81.26,3.67.44,5.49.48.49,0,.42.71-.04.74-3.71.24-7.58.38-11.23-.47-.98-.23-.69-1.93.33-1.76Z"/>
        <path class="cls-1" d="m140.94,62.31c.94.35,1.81.84,2.74,1.21.86.35,1.73.67,2.62.94,1.86.57,3.77.98,5.71,1.16.47.04.44.76-.04.74-2.01-.08-4-.25-5.98-.63-1.95-.37-4.08-.79-5.86-1.71-.97-.5-.2-2.09.81-1.72Z"/>
        <path class="cls-1" d="m133.33,67.53c-.63-.64.24-1.53.96-1.15.93.49,1.76,1.18,2.65,1.74.86.54,1.75,1.04,2.67,1.49,1.86.91,3.82,1.87,5.85,2.32.19.04.13.37-.06.34-2.18-.35-4.29-.63-6.35-1.47-1-.41-1.98-.87-2.93-1.38-.98-.53-2-1.1-2.78-1.9Z"/>
        <path class="cls-1" d="m135.05,77.07c-1.58-.95-2.99-2.38-4.17-3.79-.5-.6-1.01-1.18-1.5-1.79.04.31.1.62.13.93.17.24.31.53.38.88.13.58.22,1.16.31,1.74.59.45,1.2.88,1.84,1.26.85.51,1.78.89,2.66,1.33.37.18.72-.33.35-.55Z"/>
        <path class="cls-1" d="m162.14,53.97c-.03-.21-.03-.39.08-.58.05-.08.12-.16.17-.24.14-.19.28-.37.42-.55.29-.37.58-.73.89-1.08.3-.34.61-.68.93-1,.32-.33.71-.59,1.06-.88.07-.06.19.03.13.11-.27.37-.48.77-.74,1.15-.24.35-.46.72-.68,1.08-.21.36-.41.72-.59,1.1-.2.43-.34,1.1-.79,1.31-.33.16-.84,0-.89-.41Z"/>
        <path class="cls-1" d="m154.37,56.63c.87-1.49,1.96-2.86,3.05-4.19.52-.63,1.06-1.26,1.62-1.85.29-.31.57-.62.9-.89.35-.28.78-.51,1.09-.83.07-.07.17.04.1.11-.32.33-.53.81-.78,1.19-.22.32-.47.62-.7.93-.49.65-.96,1.31-1.39,2-.88,1.38-1.56,2.83-2.26,4.31-.23.49-.71.8-1.26.54-.51-.24-.66-.84-.38-1.31Z"/>
        <path class="cls-1" d="m146.01,60.58c-.47-1.29.48-2.59,1.17-3.65.74-1.13,1.52-2.25,2.38-3.29,1.73-2.12,3.72-4.03,5.72-5.9.07-.06.16.04.09.1-1.91,1.93-3.41,4.13-4.74,6.48-.63,1.11-1.23,2.24-1.77,3.41-.47,1.04-.88,2.66-2.03,3.11-.27.11-.7.08-.82-.25Z"/>
        <path class="cls-1" d="m139.43,62.26c2.69-5.71,6.19-11.17,10.62-15.69.24-.25.68.11.47.39-3.78,4.92-6.98,10.11-9.26,15.9-.46,1.17-2.35.51-1.83-.59Z"/>
        <path class="cls-1" d="m142.9,47.52c-.59.77-1.38,1.41-2,2.17-.57.7-1.11,1.43-1.64,2.16-.4.55-.79,1.11-1.17,1.67-.06.17-.12.35-.18.52-1.02,2.93-1.81,6.62-4.64,8.36-.2.12-.41.2-.62.25-.25,1.42-.57,2.83-.91,4.24-.02.08-.06.15-.08.22.44.27,1.02.25,1.38-.32.9-1.45,1.48-3.23,2.17-4.8.75-1.7,1.47-3.43,2.34-5.08.84-1.6,1.74-3.16,2.69-4.7.44-.71.89-1.41,1.33-2.11.51-.8.91-1.76,1.49-2.5.07-.09-.08-.19-.15-.1Z"/>
        <path class="cls-1" d="m134.42,70.35c6.83,3.67,14.16,6.51,21.76,8.13.37.08.19.68-.19.57-7.52-2.08-14.78-4.85-21.65-8.58-.08-.04,0-.16.08-.12Z"/>
        <path class="cls-1" d="m151.27,78.87c-7.63-2-14.9-5.03-21.59-9.2-.07.09-.14.17-.22.24,6.61,4.36,13.93,7.65,21.66,9.44.31.07.47-.4.16-.48Z"/>
        <path class="cls-1" d="m131.74,72.89c-.06-.04,0-.13.06-.09,3.06,2.06,6.33,3.83,9.78,5.15,3.36,1.29,6.81,2.09,10.32,2.82.29.06.2.56-.1.52-7.14-1.03-14.18-4.31-20.07-8.4Z"/>
        <path class="cls-1" d="m138.72,78.21c3.43,1.63,6.99,2.68,10.67,3.55.37.09.18.64-.18.56-3.65-.86-7.2-2.34-10.56-4.01-.07-.04,0-.14.07-.11Z"/>
        <path class="cls-1" d="m152.55,62.88c2.41.43,4.84.6,7.29.46.48-.03.46.78-.04.77-2.45-.08-4.91-.38-7.31-.93-.17-.04-.12-.33.06-.3Z"/>
        <path class="cls-1" d="m147.51,62.81c2.3.72,4.63,1.26,7.01,1.67,2.32.4,4.63.53,6.98.67.46.03.42.72-.04.71-4.74-.1-9.57-1.25-14-2.88-.1-.04-.05-.19.05-.16Z"/>
        <path class="cls-1" d="m156.41,66.27c1.41.13,2.82.18,4.24.13.71-.02,1.43-.06,2.14-.13.7-.06,1.4-.18,2.11-.21.42-.02.47.67.06.73-.69.11-1.41.11-2.11.13-.72.02-1.43.02-2.15,0-1.43-.04-2.87-.15-4.3-.3-.22-.02-.21-.37.02-.35Z"/>
        <path class="cls-1" d="m147.92,67.24c2.49.57,5.03.91,7.59,1.01,1.23.05,2.46.04,3.69-.02,1.27-.06,2.53-.27,3.79-.35.54-.03.61.86.08.95-1.23.2-2.55.18-3.8.18s-2.61-.06-3.91-.18c-2.54-.24-5.05-.72-7.51-1.41-.12-.03-.06-.21.06-.19Z"/>
        <path class="cls-1" d="m164.36,55.58c1.77.09,3.54.08,5.31-.04.34-.02.31.51-.03.53-1.77.08-3.54.06-5.3-.07-.27-.02-.25-.43.02-.42Z"/>
        <path class="cls-1" d="m162.85,54.3c1.32.3,2.66.45,4.01.45.67,0,1.33-.04,2-.11.34-.04.67-.09,1.01-.15.31-.05.62-.15.93-.16.13,0,.17.2.05.25-.59.25-1.35.29-1.99.36-.67.07-1.35.11-2.02.11-1.38,0-2.75-.16-4.09-.46-.19-.04-.1-.34.09-.29Z"/>
        <path class="cls-1" d="m165.66,53.27c1.78.13,3.57.11,5.35-.09.26-.03.29.34.03.36-1.8.14-3.6.14-5.39-.02-.16-.01-.15-.26.01-.25Z"/>
        <path class="cls-1" d="m167.71,51.95c1.37.23,2.78.2,4.14-.09.26-.06.35.35.09.41-1.42.29-2.87.3-4.3.02-.19-.04-.13-.37.06-.34Z"/>
        <path class="cls-1" d="m169.01,50.78l3.14-.12c.28-.01.26.43-.02.43-1.05.03-2.09.05-3.14.08-.25,0-.23-.38.02-.39Z"/>
        <path class="cls-1" d="m152.63,58.4c.48.01.96.24,1.43.37.51.14,1.03.27,1.55.38,1.11.24,2.23.4,3.36.49,2.21.16,4.41.05,6.58-.37.17-.03.22.22.06.26-2.18.5-4.43.73-6.67.62-1.11-.05-2.21-.19-3.3-.39-.54-.1-1.07-.21-1.59-.36-.5-.14-1.14-.24-1.56-.55-.2-.14-.11-.46.15-.45Z"/>
        <path class="cls-1" d="m156.93,58.53c1.25.22,2.49.31,3.75.36,1.26.05,2.51.06,3.77-.04.24-.02.22.36-.02.38-1.27.1-2.57.14-3.83.02-1.24-.12-2.48-.34-3.69-.62-.05-.01-.04-.1.02-.1Z"/>
        <path class="cls-1" d="m142.42,84.42c-1.33-.77-2.81-1.29-4.18-2.01-1.32-.7-2.59-1.46-3.77-2.37-1.48-1.14-2.85-2.4-4.14-3.75.01.11.01.23.02.34,1.19,1.26,2.47,2.45,3.85,3.53,1.21.95,2.44,1.89,3.73,2.74,1.25.83,2.71,1.79,4.15,2.23.43.13.74-.48.34-.71Z"/>
        <path class="cls-1" d="m143.13,86.95c-1.43-.74-2.97-1.24-4.39-2-1.32-.7-2.6-1.48-3.84-2.32-1.59-1.08-3.09-2.3-4.5-3.6,0,.21-.01.42-.02.63,1.26,1.23,2.6,2.38,4.04,3.41,1.36.97,2.78,1.84,4.27,2.61,1.31.67,2.75,1.47,4.19,1.82.31.08.57-.37.25-.54Z"/>
        <path class="cls-1" d="m137.6,86.91c-2.72-1.67-5.18-3.74-7.33-6.08-.03.22-.06.44-.09.66,2.07,2.29,4.46,4.28,7.09,5.94.33.21.67-.31.33-.52Z"/>
        <path class="cls-1" d="m133.54,86.07c-.34-.22-.67-.45-1-.7-.69-.53-1.34-1.12-1.96-1.74-.23-.24-.43-.5-.65-.75-.05.21-.1.42-.15.63.14.16.26.33.4.48.6.63,1.23,1.21,1.9,1.77.36.3.72.59,1.09.87.32.24.55.48.96.45.12-.01.23-.18.19-.3-.13-.38-.45-.5-.78-.72Z"/>
        <path class="cls-1" d="m133.68,89.51c-1.15-.73-2.3-1.47-3.38-2.31-.46-.37-.92-.75-1.37-1.13-.07.17-.13.34-.21.5,1.43,1.31,2.93,2.55,4.49,3.66.45.32.93-.42.46-.72Z"/>
        <path class="cls-1" d="m142.49,41.85c-1,1.43-1.95,2.88-2.89,4.35,0,.4-.01.81-.05,1.21,1.12-1.76,2.28-3.5,3.49-5.21.24-.35-.31-.7-.55-.35Z"/>
        <path class="cls-1" d="m145.04,41.67c-2.09,2.51-4.01,5.14-5.81,7.84-.08.4-.18.8-.28,1.19,1.98-3.03,4.17-5.93,6.5-8.7.25-.3-.16-.63-.4-.34Z"/>
      </g>
      <g>
        <g>
          <path class="cls-1" d="m81.84,36.07c-.99-2.58-3.37-4.22-6.17-3.56-1.46.34-2.65,1.35-3.2,2.73-.54,1.36-.43,2.64.15,3.95.21.47,1,.15.84-.34-.86-2.61,2.01-4.57,4.34-3.98,2.37.6,4,3.37,2.59,5.62-1.45,2.32-5.13.9-7.1.17-1.28-.47-2.53-1-3.8-1.49-1.39-.53-2.57-1.24-3.83-2-.65-.39-1.28.5-.79,1.04.98,1.07,2.23,2.04,3.41,2.89,1.2.88,2.55,1.49,3.98,1.9,2.49.71,5.43,1.07,7.68-.49,2.04-1.41,2.78-4.15,1.9-6.44Z"/>
          <path class="cls-1" d="m81.3,37.73c-.68-.92-2.09-1.33-3.24-1.42-2.08-.17-4.19.79-5.36,2.35-.38.51.46,1.06.92.65,1.06-.95,2.49-1.27,3.89-1.1.03,0,.1.02.13.02.09.02.17.03.26.05.19.04.37.09.56.14.04.01.1.03.12.04.08.03.16.07.24.1.16.08.32.15.48.24,0,0,.31.18.16.09.14.09.25.17.4.25.08.04.15.08.23.12.01,0,.1.07.09.06.18.19.26.56.15.8-.12.27-.1.56.17.75.25.17.6.16.83-.05.89-.85.65-2.19-.02-3.1Z"/>
          <g>
            <path class="cls-1" d="m77.9,36.8s.02,0,0,0h0Z"/>
            <path class="cls-1" d="m80.66,38.75c-.06,0-.11,0-.17-.01.12.01.16.01.17.01Z"/>
            <path class="cls-1" d="m81.84,37.95c-.01.06-.05.1-.07.15-.01.04,0,0,.07-.15Z"/>
            <path class="cls-1" d="m81.9,37.34c-.03-.21-.11-.4-.2-.6-.12-.27-.32-.5-.51-.72-.31-.36-.69-.67-1.08-.94-.83-.55-1.8-.84-2.78-.94-.97-.1-2.04.12-2.89.6-.98.55-1.75,1.66-1.61,2.82.06.49.38.92.92.92.5,0,.92-.42.92-.92,0-.06,0-.09,0-.11,0,0,0,0,0-.03,0-.02.04-.13.04-.15.02-.04.06-.11.08-.14.03-.03.11-.13.13-.15.06-.07.15-.13.33-.23,0,0,.3-.13.16-.08.07-.03.15-.05.22-.07.11-.03.23-.05.34-.08.03,0,.04,0,.06,0,.15-.01.3-.02.45-.02.17,0,.33.02.49.03-.27-.02.04,0,.08.02.08.01.16.03.24.05.16.04.32.09.47.14.03.01.1.04.12.06-.02,0-.04-.02-.1-.05.07.04.15.07.22.1.15.07.29.15.43.24.07.04.14.09.21.14,0,0,0,0,0,0,.25.21.5.42.71.67.11.13.21.25.32.37.11.12.23.23.36.31.1.04.2.08.3.12.22.03.32.04.31.04.46.05.92-.23,1.1-.65.01-.03.05-.12.12-.28.05-.16.05-.32.02-.48Z"/>
          </g>
          <path class="cls-1" d="m96.06,33.31c-3.54-3.05-7.99-5.05-12.66-5.53-4.7-.48-9.48.81-13.44,3.37-2.24,1.44-4.11,3.31-5.45,5.62-.43.74.62,1.58,1.21.92,3.64-4.05,8.13-7.27,13.61-8.12,5.7-.88,11.62.65,15.98,4.47.5.44,1.25-.3.74-.74Z"/>
          <path class="cls-1" d="m102.62,41.39c-.76-.73-2.03.19-1.49,1.13.26.45.6.86.83,1.32.28.56.36,1.24.4,1.86.09,1.24-.2,2.42-.9,3.47-1.46,2.2-4.17,3.41-6.78,3.44-2.9.03-5.76-.63-8.66-.65-.83,0-1.61.07-2.44-.04-.69-.09-1.39-.2-2.08-.26-1.35-.13-2.74-.14-4.08-.41-2.99-.6-4.82-2.66-6.31-5.18-.28-.47-.95-.07-.72.41,1.21,2.58,2.34,5.33,5.2,6.39,1.43.53,3,.55,4.51.49,1.84-.07,3.57-.15,5.34.4,5.5,1.7,13.32,1.01,16.98-4.03.83-1.15,1.4-2.59,1.52-4.01.12-1.44-.26-3.29-1.33-4.31Z"/>
          <path class="cls-1" d="m95.34,33.28c-1.75,1.27-3.07,3.03-4.52,4.62-1.54,1.7-3.29,3.15-5.27,4.31-4.11,2.41-9.39,3.77-14.15,3.36-.52-.05-.63.8-.12.91,2.53.52,5.02.83,7.6.45,2.5-.36,4.93-1.2,7.13-2.45,2.02-1.14,3.87-2.61,5.45-4.31.79-.85,1.47-1.76,2.1-2.73.73-1.13,1.25-2.31,2.38-3.12.61-.45.03-1.49-.59-1.04Z"/>
          <path class="cls-1" d="m72.64,46.93c-.61-1.11-1.39-2.09-2.43-2.82-1.18-.84-2.56-1.32-3.87-1.89-1.26-.55-2.44-1.22-3.48-2.11-4.28-3.65-6.7-9.71-5.24-15.27.11-.41-.49-.55-.63-.17-1.98,5.45-1.15,11.64,3.22,15.73,2.13,2,4.73,2.9,7.29,4.19,1.23.61,2.35,1.4,3.32,2.38.48.48.89.99,1.19,1.6.33.66.48,1.38.81,2.03.27.53,1.07.27,1.07-.28.01-1.19-.68-2.36-1.24-3.38Z"/>
          <path class="cls-1" d="m62.62,25.39c-.3-.32-.58-.66-.89-.98-.58-.59-1.44-1.19-2.26-1.32-.88-.15-1.7.15-2.24.86-.24.32-.33.68-.38,1.08-.06.43.01.87-.05,1.3-.02.15.21.22.24.06.13-.65.61-1.13,1.13-1.51.41-.3.79-.4,1.28-.19.63.26,1.1.78,1.73,1.05.35.15.66.37,1.01.53.32.15.68.22,1.01.35.11.04.23-.11.16-.21-.24-.34-.44-.72-.72-1.03Z"/>
          <path class="cls-1" d="m72.97,23.62c-.98-.38-1.95-.69-2.81-1.31-.95-.68-1.92-1.16-3.1-1.25-2.54-.19-4.54,1.4-6.27,3.05-.41.39.13,1.13.61.81,1.77-1.19,4.05-2.42,6.26-2.04.96.17,1.95.51,2.83.9.42.19.86.37,1.32.46.48.1.78,0,1.22-.18.22-.09.11-.38-.06-.44Z"/>
          <path class="cls-1" d="m83.37,28.05c-.24-1.1-.88-2.13-1.56-3.02-.66-.87-1.37-1.74-2.43-2.12-1.29-.46-2.72-.22-4.02.07-1.61.36-3.22.72-4.83,1.08-2.45.55-5.2,1.74-6.82,3.74-1.68,2.07-2.05,4.76-1.09,7.24,1.2,3.1,3.95,4.77,6.77,6.22.61.31,1.05-.52.52-.91-2.26-1.63-4.79-3.86-5.61-6.62-.38-1.28-.49-2.68.1-3.92.56-1.18,1.86-1.96,3.04-2.43,1.33-.53,2.71-.91,4.01-1.53,1.49-.71,2.97-1.31,4.57-1.72,1.5-.38,3.41-.7,4.58.63.89,1.02.79,2.5,1.17,3.71.32,1.02,1.84.63,1.61-.42Z"/>
          <path class="cls-1" d="m101.78,34.91c-.35-2.1-.88-4.1-1.98-5.93-1.06-1.78-2.46-3.4-4.04-4.74-3.17-2.69-6.99-4.62-11.13-5.2-2.39-.33-4.96-.4-7.35-.05-2.81.41-5.19,2.08-7.82,3.03-.63.23-.41,1.17.27,1.02,2.14-.45,4.22-1.14,6.3-1.82,2.04-.67,4.07-1.28,6.24-1.27,3.94,0,8.01,1.45,11.05,3.94,3,2.46,4.81,5.83,6.25,9.36.73,1.78.85,3.87.77,5.77-.08,1.9-.33,3.66-1.17,5.39-.85,1.75-2.18,3.27-3.71,4.44-1.59,1.21-3.2,1.9-5.13,2.36-.98.23-.57,1.66.39,1.49,3.62-.65,6.72-3.22,8.66-6.24,2.23-3.47,3.09-7.48,2.42-11.54Z"/>
          <path class="cls-1" d="m57.83,51.04c-1.11-1.87-1.8-3.87-2.57-5.89-.84-2.21-1.49-4.44-1.42-6.84.06-2.08,1.11-3.97,1.88-5.86.7-1.71,1.25-3.47,1.07-5.34-.03-.26-.41-.27-.42,0-.06,2.19-1.33,3.97-2.29,5.86-.99,1.95-1.48,3.97-1.26,6.18.12,1.16.41,2.28.66,3.41.25,1.12.32,2.27.57,3.39.48,2.15,1.29,4.21,2.9,5.77.45.44,1.21-.12.89-.68Z"/>
          <path class="cls-1" d="m100.81,50.45c-1.62.64-2.66,1.94-3.57,3.37-1.04,1.64-1.95,3.35-2.94,5.01-.95,1.58-2.11,2.85-3.44,4.11-.61.58-1.23,1.17-1.94,1.62-.75.47-1.6.81-2.42,1.15-.23.1-.05.4.15.37,1.59-.22,3.35-.88,4.76-1.66,1.57-.87,2.81-2.2,3.81-3.67,1.12-1.64,1.85-3.51,2.73-5.29.81-1.64,2.03-3,3.26-4.33.25-.27.01-.85-.39-.69Z"/>
          <path class="cls-1" d="m69.95,59.14c-1.66-1.93-3.9-3.51-6.02-4.89-2.23-1.45-4.63-2.57-7.09-3.57-2.39-.97-4.83-1.91-6.78-3.65-1.68-1.49-2.94-3.35-3.89-5.38-1.14-2.42-1.84-5.22-1.47-7.9.03-.2-.27-.28-.3-.08-.42,2.23-.59,4.54-.09,6.78.5,2.26,1.59,4.36,3.06,6.14,3.53,4.27,9.09,5.35,13.71,8,1.33.76,2.63,1.6,3.88,2.5,1.36.98,2.58,2.11,3.9,3.13.78.6,1.76-.32,1.1-1.1Z"/>
          <path class="cls-1" d="m45.93,37.18c-.17-2.51-.09-5.25.58-7.68.05-.18-.21-.24-.27-.07-.87,2.61-1.42,5.12-1.26,7.89.16,2.59.69,5.34,1.96,7.62.22.4.92.14.76-.31-.83-2.45-1.6-4.84-1.77-7.44Z"/>
          <path class="cls-1" d="m50.34,47.45c-2.81-4.95-4.16-10.95-2.88-16.58.05-.22-.27-.3-.34-.09-1.91,5.78-1.47,12.24,2.01,17.35.5.73,1.65.1,1.2-.68Z"/>
          <path class="cls-1" d="m56.09,49.62c-1.17-.07-1.86-.6-2.54-1.53-.6-.83-1.15-1.72-1.6-2.64-1.01-2.06-1.64-4.34-1.92-6.62-.58-4.64.29-9.58,1.95-13.93.09-.22-.29-.38-.39-.16-2.24,4.9-3.4,10.03-2.68,15.42.34,2.56,1.13,5.02,2.28,7.33.9,1.81,2.69,4.58,5.14,3.84.97-.29.77-1.67-.22-1.73Z"/>
          <path class="cls-1" d="m52,47.25c-.11-.17-.24-.29-.43-.37-.11-.05-.23-.06-.34-.06-.26-.37-.48-.76-.66-1.17-.06-.15-.11-.29-.16-.44-.12-.39-.54-.68-.95-.55-.42.13-.64.52-.55.95.14.67.38,1.33.71,1.93.2.37.43.75.78,1,.26.19.6.22.91.16.19-.04.37-.15.5-.29.12-.13.25-.32.27-.5.03-.22.04-.44-.08-.65Z"/>
          <path class="cls-1" d="m89.43,19.68c-1.53-1.63-3.4-2.97-5.11-4.41-1.54-1.29-3.18-2.83-5.05-3.61-1.77-.74-3.49-.65-5.29-.08-1.94.62-3.8,1.28-5.8,1.68-2.01.4-4.05.72-6,1.38-1.65.56-3.05,1.48-4.59,2.24-2.99,1.48-5.18,4.88-6.53,7.82-.92,2-1.53,4.13-1.93,6.29-.41,2.24-.45,4.42-.46,6.69,0,.34.48.32.52,0,.39-3.71,1.31-7.58,2.79-11,.66-1.53,1.45-2.98,2.42-4.34.95-1.34,2.09-2.46,3.26-3.61.56-.55,1.01-1.12,1.68-1.56.68-.45,1.41-.85,2.17-1.17,1.72-.72,3.55-1.04,5.38-1.32,1.82-.28,3.65-.55,5.41-1.12,1.7-.56,3.8-1.63,5.6-.89.99.41,1.77,1.28,2.57,1.96.81.69,1.64,1.37,2.48,2.02,1.83,1.42,3.6,3.02,5.59,4.21.74.45,1.48-.58.9-1.19Z"/>
          <path class="cls-1" d="m50.76,45.35c-.48-1.32-1.1-2.57-1.51-3.93-.38-1.25-.65-2.53-.81-3.83-.34-2.8-.2-5.7.45-8.44.03-.11-.12-.15-.16-.05-1.01,2.73-1.5,5.55-1.37,8.46.12,2.73.62,5.92,2.05,8.29.4.66,1.64.3,1.35-.51Z"/>
          <path class="cls-1" d="m96.02,37.35c-.03-.11-.18-.06-.16.04.45,2.33.04,4.95-.57,7.22-.31,1.14-.73,2.23-1.28,3.27-.56,1.06-1.34,1.95-1.95,2.97-.33.54.39.98.82.63.97-.78,1.67-2,2.23-3.09.59-1.13,1.04-2.34,1.33-3.58.28-1.2.39-2.44.33-3.68-.06-1.3-.41-2.53-.75-3.77Z"/>
          <path class="cls-1" d="m95.52,40.19c0-.09-.14-.09-.15,0-.11,2.32-.69,4.61-1.45,6.8-.36,1.05-.78,2.07-1.33,3.04-.49.88-1.06,1.46-1.98,1.86-.5.22-.25,1.03.27,1.01,2.25-.09,3.25-3.3,3.82-5.04.81-2.49.87-5.08.82-7.68Z"/>
          <path class="cls-1" d="m94.36,41.77c-.23,1.15-.58,2.3-.93,3.42-.36,1.14-.73,2.26-1.33,3.3-.48.83-1.07,1.58-1.8,2.21-.73.63-1.59,1.04-2.4,1.54-.53.32-.37,1.31.33,1.25,2.23-.19,3.91-2.28,4.84-4.16.55-1.1.92-2.31,1.14-3.52.24-1.33.21-2.68.32-4.02,0-.1-.15-.11-.17-.02Z"/>
          <path class="cls-1" d="m92.8,44.44c-.24,1.72-1.02,3.47-2.13,4.82-.55.66-1.16,1.29-1.84,1.81-.32.25-.66.47-1.01.68-.42.25-.88.42-1.24.76-.55.5.03,1.34.69,1.2.52-.11.94-.47,1.36-.8.36-.28.71-.59,1.04-.91.67-.68,1.26-1.43,1.73-2.27.93-1.65,1.42-3.39,1.52-5.27,0-.06-.1-.08-.11-.01Z"/>
          <path class="cls-1" d="m91.25,46.72c-.46,1.48-1.47,2.94-2.76,3.8-.65.43-1.37.75-2.11.98-.8.26-1.64.3-2.46.49-.66.15-.72,1.28,0,1.38,1.88.27,3.86-.79,5.15-2.09.6-.61,1.16-1.32,1.56-2.08.39-.75.63-1.61.77-2.44.02-.1-.12-.14-.15-.04Z"/>
          <path class="cls-1" d="m97.03,43.94c-.2,1.2-.61,2.36-1.26,3.4-.31.49-.65.96-1.04,1.4-.4.45-.91.84-1.28,1.32-.16.21-.22.47-.04.7.15.19.46.3.68.14.54-.38.94-.99,1.28-1.54.34-.55.63-1.12.86-1.72.47-1.18.78-2.42.9-3.69,0-.06-.09-.07-.1-.01Z"/>
          <path class="cls-1" d="m101.47,44.9c-1.11,2.1-2.8,3.94-4.81,5.21-.98.62-2.04,1.15-3.14,1.53-1.13.39-2.25.54-3.42.74-.47.08-.37.85.11.83,2.39-.1,4.9-1.28,6.79-2.69,1.97-1.48,3.52-3.35,4.56-5.58.02-.05-.05-.1-.08-.04Z"/>
          <path class="cls-1" d="m100.98,47.59c-1.11,1.84-2.84,3.21-4.78,4.1-.93.43-1.92.72-2.93.88-.53.08-1.07.13-1.61.13-.51,0-1.03-.09-1.5.12-.35.15-.27.64,0,.81.46.29,1.14.21,1.66.17.55-.04,1.09-.12,1.63-.24,1.09-.25,2.16-.66,3.14-1.19,1.96-1.07,3.53-2.72,4.65-4.64.09-.16-.16-.31-.25-.14Z"/>
          <path class="cls-1" d="m110.19,45.45c-4.47,2.51-7.9,6.49-11.24,10.3-1.73,1.98-3.46,3.98-5.48,5.68-1.93,1.62-4.06,3.32-6.45,4.19-.23.08-.15.41.1.37,2.43-.42,4.72-1.23,6.69-2.76,2.11-1.64,3.91-3.61,5.56-5.69,3.36-4.23,6.19-8.98,11.04-11.7.26-.15.03-.55-.23-.4Z"/>
          <path class="cls-1" d="m107.96,45.77c-1.33.86-2.53,1.83-3.75,2.83-1.27,1.05-2.55,2.17-3.63,3.43-2.07,2.43-3.42,5.47-5.92,7.51-.62.51.17,1.5.84,1.11,2.73-1.6,3.84-5.02,5.56-7.52.93-1.34,1.9-2.64,3.03-3.82,1.19-1.25,2.6-2.29,4.04-3.23.19-.12.02-.43-.17-.3Z"/>
          <path class="cls-1" d="m105.18,46.15c-.82.53-1.64,1.1-2.36,1.75-.37.33-.71.68-1.04,1.05-.16.17-.31.35-.45.53-.2.25-.42.53-.32.87.07.22.27.32.49.29.29-.05.47-.33.6-.57.11-.2.23-.41.36-.6.24-.39.52-.76.8-1.12.29-.36.59-.71.9-1.05.34-.36.72-.67,1.12-.97.11-.08.01-.26-.11-.19Z"/>
          <path class="cls-1" d="m62.94,43.69c-2.26-1.03-3.96-2.76-5.18-4.91-.63-1.11-1.1-2.33-1.35-3.58-.27-1.33-.28-2.72-.34-4.08-.01-.29-.4-.33-.5-.06-.93,2.64-.1,5.89,1.38,8.18,1.38,2.12,3.58,3.7,5.91,4.62.1.04.17-.13.07-.18Z"/>
          <path class="cls-1" d="m59.08,42.65c-1.52-1.13-2.35-2.68-2.98-4.44-.29-.81-.47-1.65-.55-2.5-.09-.88.06-1.74.04-2.61,0-.53-.7-.57-.87-.11-.33.87-.26,1.96-.16,2.87.11.95.39,1.87.77,2.75.72,1.68,2.2,3.13,3.68,4.16.07.05.13-.07.07-.12Z"/>
          <path class="cls-1" d="m57.83,43.54c-1.32-1.1-2.22-2.72-2.74-4.34-.29-.91-.42-1.84-.4-2.79,0-.48.06-.97.15-1.44.09-.47.28-.92.31-1.4.03-.5-.62-.57-.86-.23-.29.41-.39.97-.48,1.45-.1.53-.16,1.08-.17,1.62-.02,1.05.16,2.13.51,3.12.65,1.82,1.95,3.15,3.54,4.2.11.07.24-.1.14-.19Z"/>
          <path class="cls-1" d="m60.07,47.08c-1.83-.81-3.37-2.11-4.42-3.82-1.15-1.88-1.63-3.97-1.7-6.16-.01-.41-.67-.54-.75-.1-.83,4.58,2.51,8.94,6.81,10.21.08.02.13-.1.05-.13Z"/>
          <path class="cls-1" d="m60.08,48.85c-1.32-.88-2.57-1.79-3.62-3-.91-1.05-1.63-2.3-1.95-3.66-.12-.52-1.01-.43-.95.12.34,3.5,3.7,5.16,6.43,6.68.1.05.17-.09.08-.15Z"/>
          <path class="cls-1" d="m60.92,50.64c-1.38-.48-2.56-1.42-3.52-2.51-.96-1.08-1.64-2.3-2.23-3.61-.22-.49-.95-.14-.84.34.35,1.51,1.31,2.92,2.48,3.92,1.18,1.01,2.57,1.65,4.06,2.06.13.03.17-.15.05-.2Z"/>
          <path class="cls-1" d="m62.54,52.41c-1.27-.94-2.77-1.43-4.14-2.2-.61-.34-1.17-.76-1.64-1.27-.23-.25-.44-.51-.6-.82-.16-.3-.27-.63-.43-.93-.2-.39-.72-.17-.76.2-.07.75.41,1.46.88,2,.5.57,1.19,1.01,1.87,1.34,1.51.74,3.23,1.01,4.63,1.99.19.13.35-.17.17-.3Z"/>
          <path class="cls-1" d="m73.81,49.57c-.62-1.34-2.01-2.37-3.36-2.9-.76-.3-1.54-.54-2.31-.82-.87-.32-1.7-.7-2.49-1.16-.08-.05-.15.08-.07.13,1.41.83,2.92,1.43,4.28,2.35,1.19.8,2.27,1.7,3.08,2.9.37.54,1.15.09.88-.5Z"/>
          <path class="cls-1" d="m73.7,49.91c-1.22-1.61-3.36-2.39-5.2-3.05-2.07-.74-4.25-1.14-6.16-2.3-.07-.04-.15.06-.09.12,1.6,1.24,3.49,2.17,5.37,2.9.96.37,1.92.75,2.83,1.22.95.48,1.78,1.12,2.67,1.7.33.22.83-.24.57-.58Z"/>
          <path class="cls-1" d="m75,51.57c-1.4-1.48-3.45-1.88-5.33-2.44-2.09-.62-4.11-1.49-5.98-2.62-.07-.04-.17.07-.09.12,1.64,1.26,3.4,2.33,5.32,3.11,1.9.77,3.87,1.33,5.62,2.42.37.23.75-.3.46-.6Z"/>
          <path class="cls-1" d="m55.22,31.61c-.04-.68-.04-1.36.02-2.04.13-1.35.46-2.68.96-3.94.08-.19-.25-.33-.34-.14-.6,1.27-1.02,2.61-1.24,4-.11.68-.18,1.36-.21,2.05-.01.35,0,.7.02,1.05.02.36.02.72.17,1.04.15.31.69.25.75-.1.06-.32-.02-.62-.06-.94-.04-.33-.06-.66-.08-.98Z"/>
          <path class="cls-1" d="m54.97,35.53c-.14-.74-.44-1.45-.59-2.19-.16-.76-.25-1.53-.27-2.31-.04-1.56.22-3.09.74-4.55.05-.13-.17-.22-.23-.09-.66,1.47-1.07,3.04-1.19,4.64-.06.81-.05,1.62.04,2.43.09.81.21,1.71.59,2.44.26.52,1,.16.9-.37Z"/>
          <path class="cls-1" d="m53.5,37.17c-.26-.82-.45-1.66-.58-2.51-.26-1.76-.18-3.5.23-5.23.05-.19-.23-.26-.29-.08-.56,1.71-.86,3.54-.86,5.34,0,.88.08,1.76.23,2.63.14.83.32,2.03,1,2.6.38.32.9.1.94-.39.07-.77-.43-1.64-.66-2.36Z"/>
          <path class="cls-1" d="m74.8,20.38c-.16-.17-.34-.16-.56-.15-.2,0-.4.02-.6.02-.42,0-.83.02-1.25.06-.8.08-1.59.22-2.36.42-.09.02-.05.15.03.13.79-.14,1.57-.2,2.37-.18.37,0,.75.03,1.12.08.21.02.4.06.6.11.21.05.38.12.58,0,.17-.11.21-.34.07-.49Z"/>
          <path class="cls-1" d="m76.89,19.62c-1.35-.26-2.71-.36-4.08-.28-1.37.08-2.67.38-3.99.74-.08.02-.05.15.03.13,1.29-.3,2.63-.37,3.95-.37,1.31,0,2.63.15,3.91.43.42.09.6-.57.17-.65Z"/>
          <path class="cls-1" d="m80.69,18.99c-3.5-1.01-7.38-1.1-10.93-.29-.16.04-.1.29.07.25,1.75-.38,3.52-.51,5.3-.38,1.8.14,3.53.63,5.19,1.34.67.28,1.07-.72.37-.92Z"/>
          <path class="cls-1" d="m85.06,64.21c-4.05-4.37-10.71-5.12-16.3-5.69-1.77-.18-3.54-.22-5.31-.41-1.85-.2-3.68-.63-5.43-1.26-.63-.23-1.08.84-.45,1.11,2.59,1.1,5.35,1.68,8.11,2.17,2.92.51,5.89.43,8.81.96,2.56.46,5.06,1.23,7.29,2.58,1.06.64,2.06,1.41,2.92,2.31.36.37,1.03.89.45,1.32-.39.29-.96.37-1.42.49-2.87.72-5.12,2.24-7.25,4.25-.3.28.13.68.44.44,1.22-.95,2.64-1.67,4.08-2.21,1.25-.47,2.54-.75,3.8-1.17.92-.31,1.86-.86,1.9-1.93.05-1.12-.93-2.16-1.64-2.93Z"/>
          <path class="cls-1" d="m62.03,57.82c-2.26-.69-4.65-.89-6.88-1.66-1.01-.35-1.98-.82-2.99-1.16-1.07-.36-2.15-.69-3.13-1.26-3.5-2-4.45-5.93-5.87-9.41-.73-1.78-1.62-3.52-3.04-4.85-1.28-1.19-2.82-2.16-3.86-3.58-2.34-3.19.29-7.95,3.18-9.83,1.67-1.09,3.73-1.57,5.7-1.12,1.93.44,3.6,1.76,4.81,3.29.53.66,1.55-.18,1.16-.88-1.84-3.32-6.39-4.43-9.87-3.36-3.65,1.12-6.41,4.59-6.9,8.35-.26,2.02.29,3.86,1.61,5.4,1.36,1.58,3.09,2.78,4.36,4.46,2.62,3.45,3.37,7.93,6.12,11.32,1.59,1.96,3.91,3.01,6.38,3.38.75.11,1.52.13,2.27.27.75.14,1.5.35,2.23.56,1.49.41,2.9.95,4.42,1.27.75.16,1.04-.93.3-1.15Z"/>
          <path class="cls-1" d="m44.22,61.08c-1.31-2.09-1.37-4.62-1.01-7,.21-1.4.48-2.8.55-4.21.07-1.43-.12-2.83-.46-4.21-.11-.43-.74-.26-.66.17.3,1.62-.15,3.26-.54,4.83-.36,1.4-.7,2.81-.87,4.25-.3,2.45-.03,5.24,1.92,6.98.55.49,1.51-.14,1.08-.82Z"/>
          <path class="cls-1" d="m94.25,9.65c-1.61-3.95-6.09-5.71-9.93-6.7-2.51-.64-5.12-.81-7.65-1.33-2.41-.5-4.78-1.15-7.23-1.47-8.99-1.14-16.96,4.1-22.22,10.99-1.56,2.04-2.96,4.22-4.31,6.4-1.44,2.32-2.5,4.75-3.47,7.29-.24.63.75.99,1.07.44,1.12-1.92,2.19-3.84,3.15-5.84.96-2,1.93-3.97,3.16-5.82,2.4-3.59,5.34-6.81,9.01-9.11,3.41-2.14,7.35-3.4,11.41-3.05,2.38.21,4.68.94,6.98,1.54,2.3.59,4.6,1,6.94,1.36,2.41.36,4.87.62,7.1,1.65,2.04.94,3.73,2.35,4.91,4.26.42.69,1.34.1,1.06-.6Z"/>
          <path class="cls-1" d="m114.64,27.22c-.8-1.42-1.81-2.73-2.74-4.06-.98-1.4-1.96-2.8-2.94-4.2-2.01-2.88-4.04-5.73-6.18-8.52-1.07-1.4-2.22-2.73-3.29-4.13-.78-1.02-1.54-2.18-2.69-2.8-2.8-1.52-5.16,1.36-7.94,1.05-.69-.08-.81,1.03-.15,1.19,2.32.58,4.08-1.22,6.3-1.22,1.33,0,2.19,1.09,2.91,2.07.94,1.28,1.81,2.62,2.71,3.93,3.53,5.18,7.59,9.95,11.38,14.94,1.93,2.55,3.88,5.64,2.23,8.83-.28.53.47.94.8.46,1.54-2.24.83-5.32-.4-7.52Z"/>
          <path class="cls-1" d="m119.9,44.83c-.61-1.37-1.25-2.72-1.88-4.08-1.28-2.74-2.56-5.45-4.4-7.86-3.81-4.99-9.76-8.43-16.18-7.17-.55.11-.44,1.04.13.98,5.28-.49,10.26,2.6,13.71,6.36,1.88,2.04,3.49,4.39,4.85,6.81.68,1.22,1.29,2.47,1.88,3.73.6,1.29,1.37,2.64,1.67,4.04.36,1.65-.57,2.76-1.67,3.85-.99.97-2.04,1.85-3.19,2.63-2.36,1.6-4.91,2.43-7.53,3.48-1.26.51-2.52,1.09-3.7,1.77-1.14.66-2.14,1.54-3.13,2.4-2.07,1.8-4.02,3.6-6.43,4.94-5.27,2.95-11.43,3.72-17.31,4.58-.68.1-.54,1.26.16,1.21,5.66-.45,11.56-1.06,16.69-3.66,2.59-1.31,4.57-3.21,6.65-5.18,1.15-1.08,2.3-2.02,3.68-2.77,1.37-.74,2.83-1.11,4.3-1.59,2.84-.93,5.55-2.09,7.93-3.92,1.98-1.52,4.55-3.69,4.83-6.34.16-1.5-.46-2.87-1.06-4.2Z"/>
          <path class="cls-1" d="m106.49,88.09c-4.09-3.73-9.78-3.51-14.94-3.25-5.47.28-10.84-.14-16.1-1.75-5.1-1.56-9.88-4.12-13.98-7.53-4.02-3.34-7.55-7.22-11.63-10.5-2.33-1.87-4.82-3.54-7.55-4.76-2.87-1.28-6.06-2.55-9.18-2.98-.81-.11-1.43.98-.58,1.44,2.44,1.31,5.2,2.04,7.74,3.16,2.43,1.08,4.77,2.34,6.92,3.92,4.22,3.09,7.76,6.99,11.73,10.37,7.87,6.69,18.18,10.69,28.58,10.34,6.04-.2,13.39-2.31,18.52,2.02.33.28.81-.18.48-.49Z"/>
          <path class="cls-1" d="m46.54,90.01c-1.56-2.5-3.2-4.97-4.27-7.74-1.04-2.68-1.66-5.51-2.37-8.29-.71-2.79-1.54-5.55-2.76-8.16-1.24-2.64-2.61-5.17-3.35-8-.8-3.06-.56-6.19-.59-9.31-.03-2.92-.38-5.83-.94-8.69-1.26-6.42-3.96-12.56-7.06-18.28-.16-.29-.59-.04-.44.25,2.61,5.17,4.52,10.68,5.59,16.37.54,2.9.93,5.79,1.02,8.74.1,3-.21,6.02.17,9,.35,2.77,1.55,5.26,2.82,7.72,1.31,2.53,2.51,5.06,3.24,7.83.74,2.79,1.24,5.63,2.05,8.4.79,2.7,1.89,5.2,3.38,7.59,3.22,5.13,8.14,10.82,5.84,17.32-.12.33.42.55.57.23,2.38-5.02-.21-10.64-2.9-14.96Z"/>
          <path class="cls-1" d="m25.38,14.27c-.89-1.35-1.89-2.6-3.06-3.73-1.11-1.08-2.22-2.14-3.66-2.76-2.47-1.08-5.81-.63-6.94,2.14-.22.55.45.94.8.46,1.41-1.91,4.29-1.63,6.19-.76,2.43,1.11,4.49,2.99,6.22,4.99.2.23.61-.07.43-.33Z"/>
          <path class="cls-1" d="m49.84,104.56c-2.77-7.63-11.21-9.87-17.69-13.3-3.34-1.77-6.55-4.17-8.21-7.66-.87-1.83-1.06-3.76-.71-5.74.36-2.01,1.03-3.98.97-6.05-.12-3.56-2.75-6.62-5.46-8.67-3.07-2.31-6.9-3.5-9.33-6.63-2.27-2.94-2.86-6.9-2.87-10.51-.01-4.33.53-8.73,1.14-13.01.73-5.2,1.78-10.34,2.74-15.5.34-1.83.72-3.7,1.46-5.41.71-1.63,1.74-3.23,3.39-3.99.38-.17.09-.67-.25-.62-3.44.47-5.12,3.62-5.97,6.67-1.19,4.27-1.54,8.75-2.09,13.13-.6,4.79-1.1,9.6-1.49,14.42-.3,3.73-.54,7.58.39,11.24.97,3.82,3.3,6.63,6.58,8.73,1.66,1.07,3.41,2,5.12,2.99,1.69.98,3.35,2.04,4.46,3.7,2.65,3.96-.44,8.05-.54,12.23-.08,3.74,2.18,7.22,4.99,9.53,3.7,3.04,8.35,4.37,12.66,6.29,3.91,1.74,7.99,4.33,9.66,8.46.25.62,1.27.38,1.03-.27Z"/>
          <path class="cls-1" d="m50.22,8.57c-.67-.95-1.2-1.99-2-2.85-.84-.9-1.9-1.61-2.95-2.22-2.11-1.23-4.46-2.12-6.85-2.65-5.17-1.14-10.73-.74-15.47,1.71-2.47,1.28-4.11,3.45-4.93,6.08-.14.44.46.6.69.28.86-1.16,1.9-2.08,3.01-2.97,1.07-.86,2.15-1.76,3.37-2.42,2.86-1.54,6.28-1.86,9.47-1.64,2.84.19,5.74.91,8.28,2.21,1.26.64,2.43,1.42,3.55,2.28,1.09.84,2.35,1.58,3.23,2.65.27.33.85-.11.6-.46Z"/>
          <path class="cls-1" d="m134.75,24.52c-.8-.82-1.81-1.56-2.9-1.95-1.26-.45-2.55-.3-3.87-.29-1.5.01-3.02.06-4.51-.08-1.62-.16-3.21-.52-4.81-.81-3.21-.58-6.35-.99-9.6-1.24-.43-.03-.48.61-.09.73,1.46.43,2.91.92,4.4,1.27,1.37.32,2.77.56,4.15.82,2.75.53,5.73,1.34,8.55.95,1.35-.19,2.54-.79,3.89-.24,1.09.45,2.15,1.02,3.01,1.84,1.81,1.73,2.48,4.13,3.46,6.35.16.36.81.29.87-.11.36-2.64-.7-5.35-2.54-7.24Z"/>
          <path class="cls-1" d="m139.27,37.06c-.72-3.57-1.89-7.04-2.98-10.5-.29-.92-1.72-.56-1.46.38.91,3.29,1.73,6.61,2.31,9.98.55,3.21,1.1,6.53,1.1,9.79,0,5.73-2.07,11.44-6.16,15.5-.9.89.51,2.3,1.38,1.38,4.2-4.41,5.87-10.39,6.41-16.31.32-3.46.09-6.81-.6-10.22Z"/>
          <path class="cls-1" d="m134.2,62.61c-.23-1.39-.52-2.76-1.09-4.06-1.22-2.81-3.73-4.04-6.66-4.34-2.66-.28-6.07.36-7.97-1.99-.34-.42-1.02.12-.74.57,1.2,1.93,3.41,2.8,5.58,3.12,2.3.34,5.24.17,6.94,2.03,1.64,1.8,1.95,4.89,2.2,7.21.15,1.37.24,2.87-.37,4.14-.53,1.09-1.6,2.11-2.85,2.21-.84.07-.81,1.19,0,1.28,2.96.35,4.91-2.41,5.29-5.04.25-1.72-.04-3.43-.32-5.13Z"/>
          <path class="cls-1" d="m131.67,79.44c-.17-1.98-.58-3.92-.88-5.88-.28-1.84-.35-3.82-.95-5.6-.94-2.78-2.99-5.47-6.01-6.05-.36-.07-.51.47-.15.55,3.14.73,3.96,3.87,4.45,6.61.28,1.54.37,3.12.6,4.67.24,1.65.59,3.28.81,4.93.4,2.92.21,5.76-1.39,8.29-1.28,2.02-3.28,3.66-5.54,4.46-2.84,1-5.76.33-8.68.71-2.83.38-5.21,2.04-7.7,3.29-5.73,2.87-12.04,1.21-17.71-.94-6.46-2.45-13.47-5.9-20.56-4.27-.41.09-.34.81.1.75,7.23-.9,13.45,2.71,19.86,5.43,5.92,2.51,12.74,4.16,18.77,1.04,2.71-1.4,5.27-3.65,8.49-3.57,1.71.04,3.4.41,5.12.25,1.32-.12,2.58-.48,3.79-1.02,2.39-1.06,4.44-2.91,5.81-5.13,1.59-2.57,2.01-5.56,1.76-8.54Z"/>
          <path class="cls-1" d="m86.6,94.67c-7.25-5.68-14.94,1.83-22.28,3.03-2.03.33-4.15.23-6.04-.63-1.59-.72-2.85-1.85-4.03-3.1-2.43-2.57-4.09-5.65-5.94-8.64-2.08-3.35-4.59-6.49-8.16-8.32-.57-.29-1.03.55-.48.88,3.14,1.88,5.04,5.11,6.8,8.2,1.72,3.02,3.31,6.12,5.63,8.74,2.33,2.63,5.61,4.46,9.16,4.61,4.22.17,8.1-1.84,11.92-3.35,2.16-.85,4.38-1.58,6.71-1.74,2.11-.15,4.31-.02,6.17,1.08.45.26.98-.42.55-.75Z"/>
          <path class="cls-1" d="m41.23,97.98c-2.61-1.05-5.4-.83-8.15-.6-2.52.21-5.02.4-7.55.2-2.17-.17-4.34-.45-6.37-1.27-.9-.36-1.8-.87-2.55-1.48-.92-.74-1.56-1.8-2.21-2.77-1.15-1.7-2.35-3.36-4.27-4.24-1.7-.77-3.65-1-5.29-1.88-2.22-1.19-1.83-3.72-1.73-5.86.14-2.83.15-5.65.35-8.48.23-3.18.42-6.36.7-9.54.13-1.52.16-3.21.85-4.61.51-1.03,1.5-1.92,2.37-2.65.42-.35.08-1.1-.45-1.07-2.53.13-3.51,2.74-3.87,4.9-.23,1.37-.26,2.76-.35,4.14-.1,1.59-.24,3.18-.35,4.77-.23,3.06-.41,6.14-.79,9.19-.19,1.52-.38,3.04-.52,4.57-.12,1.27-.15,2.58.33,3.79.8,2.04,2.8,2.89,4.79,3.38,1.01.25,2.05.39,3.03.74,1.11.4,2.02,1.14,2.76,2.04,1.48,1.79,2.51,3.91,4.31,5.43,1.77,1.5,3.99,2.3,6.27,2.66,2.86.45,5.68-.11,8.52-.46,3.38-.41,6.72-.44,10.11-.24.4.02.4-.51.08-.64Z"/>
          <path class="cls-1" d="m49.63,104.38c-.59-1-1.15-2.14-1.96-2.97-.83-.85-1.84-1.58-2.87-2.17-1.01-.57-2.11-.93-3.23-1.19-1.15-.26-2.3-.5-3.47-.59-.36-.03-.44.57-.08.63,1.05.18,2.12.45,3.07.93.97.49,1.88,1.1,2.77,1.72.85.59,1.66,1.24,2.4,1.96.38.37.81.69,1.22,1.02.43.35.79.79,1.11,1.24.44.62,1.45.08,1.05-.59Z"/>
          <path class="cls-1" d="m116.69,92.41c-4.46,3.52-3.16,9.94-6.65,14.09-2,2.38-4.67,4.03-7.22,5.74-2.91,1.96-5.88,3.81-8.88,5.63-1.35.82-2.61,1.79-3.79,2.83-1.14,1.01-1.96,2.32-3.1,3.33-2.33,2.06-5.45,1.85-8.12.57-5.73-2.75-8.36-9.17-13.04-13.19-2.77-2.38-5.92-3.39-9.43-4.15-3-.65-7.09-1.36-8.04-4.83-.1-.36-.59-.27-.62.08-.23,2.86,2.13,5.12,4.63,6.04,3.28,1.2,6.88.63,9.98,2.43,5.84,3.38,8.31,10.26,13.55,14.31,2.32,1.79,5.52,3.08,8.48,2.3,3.22-.85,4.46-4.18,6.88-6.12,1.27-1.03,2.87-1.68,4.33-2.41,1.72-.87,3.45-1.73,5.14-2.68,3.06-1.72,6.13-3.6,8.85-5.83,2.71-2.23,4.45-4.95,5.29-8.35.69-2.78.9-6.36,3.12-8.41.94-.87-.42-2.13-1.38-1.38Z"/>
          <path class="cls-1" d="m82.28,70.86c-3.79-.18-7.6-.07-11.33.64-1.86.35-3.69.81-5.5,1.37-.91.28-1.79.61-2.67.96-.85.34-1.77.6-2.5,1.17-.52.4-.09,1.4.55,1.33.84-.09,1.61-.48,2.41-.73.9-.29,1.8-.56,2.7-.83,1.75-.53,3.53-1,5.32-1.39,3.63-.8,7.3-1.46,11.01-1.73.5-.04.51-.76,0-.79Z"/>
          <path class="cls-1" d="m76.22,69.22s-.05-.03-.08-.04c-.04,0-.08,0-.11,0-.21.03-.41.06-.62.08-.05,0-.11.06-.14.1-.02.04-.03.09-.02.14,0,.05.03.09.06.13.04.04.1.07.15.06.21-.02.41-.05.62-.07.04,0,.08,0,.11-.03l.05-.04c.05-.05.07-.12.06-.19,0-.06-.04-.11-.09-.15Z"/>
          <path class="cls-1" d="m73.92,69.42c-2.6.03-5.14.35-7.6,1.23-2.43.86-4.77,2.1-6.78,3.73-.76.62.33,1.73,1.09,1.09,3.72-3.14,8.38-5.31,13.29-5.63.26-.02.27-.42,0-.42Z"/>
          <path class="cls-1" d="m76.26,67.29c-3.38.39-6.8.49-10.06,1.59-1.38.46-2.71,1.06-3.94,1.83-1.16.73-2.61,1.68-3.25,2.93-.26.51.33,1.3.88.88,1.15-.87,2.02-2.01,3.23-2.83,1.16-.78,2.42-1.42,3.73-1.92,3-1.17,6.25-1.87,9.43-2.28.11-.01.08-.2-.02-.19Z"/>
          <path class="cls-1" d="m80.67,65.87c-4.27-.82-8.57-.74-12.75.54-2.06.63-4.04,1.49-5.91,2.56-1.83,1.06-3.85,2.31-5.12,4.03-.41.56.42,1.4.98.98,1.66-1.23,3.04-2.74,4.79-3.87,1.72-1.12,3.59-2.02,5.52-2.69,3.93-1.35,8.29-1.94,12.42-1.3.16.02.23-.22.07-.25Z"/>
          <path class="cls-1" d="m68.76,65.04c-2.35.61-4.66,1.42-6.82,2.54-1.08.56-2.12,1.19-3.11,1.89-.97.69-2.12,1.42-2.76,2.44-.33.53.34,1.18.87.87.97-.57,1.73-1.51,2.59-2.23.92-.77,1.89-1.48,2.9-2.13,2.01-1.29,4.15-2.32,6.44-2.99.26-.07.15-.47-.11-.4Z"/>
          <path class="cls-1" d="m62.72,65.67c-1.31.55-2.59,1.21-3.77,2-.58.39-1.14.8-1.69,1.22-.57.44-1.22.88-1.67,1.44-.25.31-.3.75,0,1.05.28.28.77.29,1.05,0,.48-.49.86-1.07,1.31-1.59.46-.53.96-1.02,1.49-1.49,1.05-.93,2.17-1.76,3.37-2.48.1-.06.02-.2-.09-.16Z"/>
          <path class="cls-1" d="m57.61,66.44c-.31.2-.61.41-.93.6-.32.19-.63.38-.94.57-.65.4-1.26.93-1.76,1.5-.2.23-.25.61,0,.83.24.22.6.23.83,0,.54-.53,1.06-1.11,1.51-1.71.21-.28.43-.55.65-.81.24-.29.51-.54.78-.8.1-.09-.03-.26-.14-.19Z"/>
          <path class="cls-1" d="m53.99,66.46c-.17.13-.34.24-.53.36-.03.02-.07.05-.11.07-.04.02-.1.03-.14.04-.12.04-.22.12-.32.2-.2.14-.4.28-.58.43-.08.07-.17.13-.25.2-.07.06-.13.11-.18.19-.03.05-.07.1-.1.15-.1.16-.07.42.07.55.15.14.37.17.55.07.12-.07.23-.14.33-.24.08-.08.15-.17.23-.25.15-.16.28-.34.42-.5.08-.1.19-.2.24-.32.04-.09.07-.17.12-.25.13-.18.26-.35.4-.52.07-.09-.02-.26-.14-.18Z"/>
          <path class="cls-1" d="m90.61,59.52c-.37.54-.82,1.01-1.26,1.49-.44.48-.91.94-1.4,1.38-.47.42-.96.8-1.47,1.16-.54.39-1.14.74-1.63,1.18-.19.17-.19.48-.04.68.17.22.42.24.66.14.31-.13.58-.34.85-.54.28-.21.57-.42.83-.65.5-.44.97-.92,1.41-1.42.44-.5.86-1.02,1.25-1.57.39-.54.69-1.14,1.03-1.71.09-.16-.14-.29-.24-.14Z"/>
          <path class="cls-1" d="m89.36,57.97c-.55,1.19-1.27,2.27-2.16,3.23-.43.46-.89.91-1.38,1.31-.51.43-1.08.79-1.6,1.21-.47.38.13,1.08.62.82,1.19-.63,2.2-1.77,2.99-2.84.8-1.09,1.43-2.3,1.89-3.57.07-.21-.27-.35-.36-.15Z"/>
          <path class="cls-1" d="m88.53,55.87c-.34,1.48-.99,2.95-1.79,4.23-.4.64-.85,1.25-1.36,1.81-.25.28-.52.54-.8.79-.29.26-.63.49-.9.78-.37.39.1,1.08.59.77.67-.42,1.23-1.13,1.72-1.74.51-.63.98-1.29,1.38-1.99.39-.68.71-1.39.98-2.12.29-.8.44-1.6.56-2.44.04-.24-.31-.34-.37-.1Z"/>
          <path class="cls-1" d="m87.06,54.94c-.48,2.9-1.96,5.57-4.08,7.6-.55.53.3,1.38.83.83,2.19-2.25,3.42-5.26,3.54-8.39,0-.17-.27-.21-.3-.04Z"/>
          <path class="cls-1" d="m84.9,57.62c-.32.91-.77,1.77-1.31,2.56-.26.38-.54.73-.85,1.06-.34.36-.86.7-1.01,1.19-.1.33.24.65.56.56.52-.14.87-.74,1.17-1.15.3-.41.57-.84.81-1.28.49-.89.87-1.84,1.11-2.82.08-.31-.37-.42-.48-.13Z"/>
          <path class="cls-1" d="m83.89,55.68c-.68,2.4-1.95,4.53-3.59,6.39-.45.51.3,1.27.76.76,1.74-1.96,2.82-4.46,3.22-7.04.04-.25-.32-.36-.39-.1Z"/>
          <path class="cls-1" d="m81.52,57.44c-.17.76-.5,1.46-.93,2.11-.2.3-.42.59-.66.87-.13.15-.27.29-.41.43-.16.16-.33.29-.43.49-.2.41.21.78.61.61.21-.09.34-.26.48-.44.14-.18.28-.36.41-.55.24-.34.44-.69.62-1.06.36-.74.6-1.54.76-2.35.06-.3-.39-.42-.46-.12Z"/>
          <path class="cls-1" d="m93.79,56.83c-1.01,1.84-2.17,3.71-3.59,5.26-1.3,1.42-2.86,2.33-4.65,2.99-.32.12-.54.38-.49.74.04.3.33.63.66.59,2.11-.25,3.9-1.71,5.19-3.32,1.47-1.83,2.28-3.95,3.22-6.07.1-.22-.21-.41-.33-.19Z"/>
          <path class="cls-1" d="m93.21,53.52c-.12-.31-.47-.36-.67-.09-.12.17-.12.39-.14.59-.03.2-.06.39-.1.59-.07.36-.15.73-.25,1.08-.21.74-.4,1.5-.73,2.19-.11.23.22.42.34.19.4-.71.8-1.4,1.06-2.17.13-.38.24-.76.33-1.14.05-.19.09-.39.13-.58.04-.21.12-.46.04-.67Z"/>
          <path class="cls-1" d="m94.79,53.16c-.27-.03-.47.17-.49.43,0,.03,0,.05,0,.08,0,.04,0,.05,0,.03,0-.03,0-.02,0,.03,0,.03,0,.05-.01.08-.01.08-.02.16-.04.24-.03.18-.06.36-.09.54-.07.35-.15.69-.24,1.04-.03.12.03.25.15.3.11.04.26,0,.31-.11.16-.35.3-.7.43-1.05.13-.35.23-.7.35-1.05.08-.25-.13-.51-.36-.54Z"/>
          <path class="cls-1" d="m91.03,53.91c-.05-.2-.25-.37-.46-.36-.23,0-.38.15-.46.36-.08.21-.05.43-.04.65,0,.18.01.35,0,.53,0,.36-.06.7-.14,1.05-.05.23.3.4.4.16.16-.36.31-.73.44-1.1.07-.18.13-.36.18-.54.03-.09.05-.18.07-.27.03-.17.04-.31,0-.47Z"/>
          <path class="cls-1" d="m94.62,34.09c-.11-.18-.28-.31-.43-.44-.56-.48-1.14-.96-1.75-1.38-.67-.47-1.39-.86-2.15-1.18-.25-.1-.46.24-.21.37,1.22.66,2.45,1.57,3.21,2.75.25.38.59,1.05,1.15.73.3-.17.34-.57.17-.84Z"/>
          <path class="cls-1" d="m93.31,34.55c-.2-.28-.42-.56-.64-.82-.4-.47-.85-.92-1.33-1.32-.97-.81-2.06-1.45-3.24-1.92-.18-.07-.29.22-.13.31,1.04.6,1.96,1.38,2.75,2.29.37.43.7.88,1,1.36.15.25.3.5.43.76.16.31.27.67.52.93.21.22.58.26.84.11.28-.16.39-.48.33-.78-.06-.33-.33-.65-.52-.92Z"/>
          <path class="cls-1" d="m91.49,35.64c-.33-.81-.82-1.55-1.35-2.24-1.01-1.3-2.32-2.43-3.77-3.22-.21-.11-.37.18-.18.31,1.31.9,2.35,2.08,3.09,3.49.35.67.58,1.37.82,2.08.25.75.31,1.6.67,2.31.26.5,1.12.41,1.23-.16.16-.86-.19-1.78-.51-2.57Z"/>
          <path class="cls-1" d="m90.08,37.9c-.05-.55-.15-1.09-.3-1.62-.29-1.04-.79-2.01-1.38-2.91-.13-.19-.42-.03-.31.18.45.91.72,1.9.87,2.9.07.48.1.97.11,1.46,0,.24,0,.48-.01.71-.01.28-.08.56.02.84.14.39.68.52.91.12.26-.47.15-1.15.1-1.67Z"/>
          <path class="cls-1" d="m88.19,36.54c-.05-.19-.32-.11-.29.08.15.91.05,1.85-.14,2.75-.09.43-.22.85-.38,1.25-.18.44-.46.82-.59,1.28-.13.46.51.87.85.49.36-.41.49-.92.63-1.44.13-.49.22-.98.26-1.48.09-.99-.08-1.96-.34-2.92Z"/>
          <path class="cls-1" d="m87.16,38.51c-.12.88-.36,1.75-.86,2.5-.24.35-.5.69-.78,1.01-.3.33-.77.66-.84,1.12-.05.31.18.57.5.5.51-.11.8-.67,1.03-1.09.23-.42.41-.85.55-1.3.27-.88.52-1.78.6-2.7,0-.11-.18-.14-.2-.03Z"/>
          <path class="cls-1" d="m85.96,40.12c-1.03,1.29-2.29,2.31-3.76,3.06-.7.36-1.4.71-2.15.97-.79.28-1.59.43-2.39.64-.52.13-.44,1.01.12.96,1.66-.13,3.49-.89,4.81-1.87,1.36-1.01,2.54-2.26,3.47-3.68.04-.06-.06-.14-.11-.08Z"/>
          <path class="cls-1" d="m83.34,41.66c-1.86,1.11-3.85,2.25-5.93,2.9-1.02.32-2.08.56-3.14.67-.52.05-1.04.07-1.56.04-.59-.03-1.17-.22-1.76-.17-.52.04-.69.67-.26.97.88.6,2.33.54,3.35.46,1.16-.09,2.27-.38,3.34-.83,2.24-.95,4.13-2.38,6.09-3.79.14-.1.02-.33-.13-.23Z"/>
          <path class="cls-1" d="m78.19,43.6c-1.44.58-2.95.79-4.49.86-.76.03-1.51.02-2.27-.07-.74-.09-1.52-.25-2.26-.23-.79.02-.87,1.07-.17,1.32.74.26,1.64.28,2.43.22.8-.06,1.6-.14,2.39-.28,1.56-.28,3.05-.86,4.51-1.46.2-.08.06-.43-.14-.35Z"/>
          <path class="cls-1" d="m80.28,39.34c-.29-.19-.6-.34-.94-.45-.64-.2-1.26-.38-1.94-.38-.11,0-.14.18-.03.2.58.08,1.23.27,1.68.67.23.2.44.42.63.65,0,0,.02.02.03.03.02.03.04.05.06.08.04.06.08.12.12.18.12.19.25.41.45.51.43.22.87-.15.79-.61-.07-.4-.54-.69-.86-.89Z"/>
          <path class="cls-1" d="m80.73,41.07c-.28-.37-.6-.66-.98-.94-.33-.25-.65-.48-1.03-.66-.74-.35-1.54-.54-2.36-.59-.05,0-.06.08-.01.09.77.13,1.48.45,2.1.91.29.21.58.46.82.73.24.28.43.62.62.93.13.22.42.31.65.18.2-.11.34-.44.18-.65Z"/>
          <path class="cls-1" d="m79.9,41.61c-.24-.52-.82-.83-1.31-1.07-.25-.12-.51-.24-.78-.33-.29-.1-.55-.25-.82-.38-.08-.04-.14.08-.07.12.24.13.49.25.69.44.2.18.39.37.58.56.18.18.36.37.53.56.02.02.04.04.05.06,0,0,.07.09.04.05-.03-.04.02.03.02.03.01.02.03.04.04.07.03.04.05.09.07.13,0,0,0,.02.01.04,0,.03.01.06.02.1.05.3.41.44.67.33.29-.12.37-.43.25-.71Z"/>
          <path class="cls-1" d="m77.98,41.88c-.2-.19-.38-.41-.59-.6-.22-.19-.45-.37-.7-.53-.12-.08-.25.1-.15.19.2.19.36.37.51.6.07.11.14.23.2.35.03.06.06.12.09.18,0,.01.01.03.02.04,0,0,0-.01,0,0,0,.03.02.07.02.1.05.23.33.33.52.22.2-.11.24-.4.08-.56Z"/>
          <path class="cls-1" d="m78.65,27.16c-1.52.21-2.94.48-4.39,1-1.37.49-2.69,1.13-3.93,1.89-2.43,1.49-4.81,3.61-6.32,6.05-.32.51.45.9.79.45.87-1.14,1.71-2.26,2.74-3.27,1.02-1,2.15-1.89,3.34-2.69,2.32-1.55,5.04-2.78,7.78-3.34.06-.01.03-.09-.02-.09Z"/>
          <path class="cls-1" d="m73.77,27.57c-2.05.69-4.02,1.71-5.77,2.99-.86.63-1.67,1.31-2.39,2.09-.74.81-1.52,1.69-2.08,2.64-.32.54.49.99.84.48.59-.87,1.13-1.73,1.83-2.52.68-.76,1.4-1.52,2.18-2.19,1.62-1.4,3.46-2.46,5.47-3.2.18-.07.11-.36-.08-.29Z"/>
          <path class="cls-1" d="m70.49,28.03c-2.93,1.24-5.37,3.27-7.3,5.78-.45.58.43,1.21.78.59.36-.65.76-1.32,1.24-1.9.5-.59,1.05-1.13,1.61-1.66,1.13-1.04,2.4-1.94,3.78-2.64.13-.06.02-.24-.11-.19Z"/>
          <path class="cls-1" d="m82.04,26.2c-.98-.2-2.09-.16-3.08-.04-1.02.13-2.05.39-3.01.77-.11.04-.07.23.05.18.95-.36,1.91-.57,2.93-.6.48-.01.96,0,1.44.06.51.06.99.21,1.49.32.44.1.63-.59.18-.69Z"/>
          <path class="cls-1" d="m81.81,26.77s-.05.02-.07.04c.04,0,.04,0,0,0-.05,0-.1.01-.15.02-.1.01-.2.03-.3.05-.19.03-.39.06-.58.09-.4.07-.81.13-1.2.21-.02,0-.01.04,0,.03.4-.04.78-.06,1.18-.02.19.02.39.04.58.08.09.02.18.04.28.07.05.01.09.02.14.04.06.02,0-.02.05.03.11.09.24.14.39.11.16-.04.27-.18.3-.34.04-.33-.31-.55-.6-.4Z"/>
          <path class="cls-1" d="m84.06,26.43c-.26-.55-.62-1.06-1.01-1.52-.8-.96-1.72-1.76-2.86-2.3-.15-.07-.29.15-.13.23,1.02.56,2,1.36,2.64,2.33.32.49.56,1,.79,1.53.23.53.31,1.15.59,1.65.14.24.45.11.48-.13.07-.6-.25-1.27-.5-1.8Z"/>
          <path class="cls-1" d="m84.75,26.3c-.4-.68-.9-1.31-1.45-1.88-.07-.07-.16.03-.1.1.49.59.87,1.26,1.16,1.97.28.7.42,1.42.64,2.14.09.31.62.28.59-.08-.07-.8-.42-1.58-.82-2.26Z"/>
          <path class="cls-1" d="m86.62,28.01c-.12-.32-.26-.63-.42-.93-.32-.59-.71-1.13-1.19-1.61-.09-.09-.23.05-.14.14.43.47.8,1,1.07,1.58.26.56.49,1.21.52,1.83.02.32.52.25.43-.06-.09-.32-.16-.65-.28-.96Z"/>
          <path class="cls-1" d="m87.37,27.19c-.06-.12-.23-.02-.18.1.2.44.39.89.53,1.35.14.46.26.92.37,1.38.08.33.62.18.5-.13-.35-.92-.77-1.83-1.22-2.7Z"/>
          <path class="cls-1" d="m53.1,55.96c-2.37-1.31-4.26-3.11-5.8-5.33-1.65-2.36-2.74-5.04-3.91-7.66-.07-.17-.36-.05-.3.12,1.84,5.07,4.29,11.27,9.57,13.65.52.23.96-.5.44-.78Z"/>
          <path class="cls-1" d="m55.98,56.39c-.93-.49-1.89-.92-2.79-1.47-.9-.54-1.71-1.2-2.47-1.92-1.53-1.44-2.8-3.15-3.75-5.03-.14-.27-.53-.03-.41.24.92,1.98,2.2,3.77,3.77,5.29.78.75,1.63,1.43,2.51,2.06.88.64,1.82,1.21,2.85,1.57.44.15.69-.54.29-.75Z"/>
          <path class="cls-1" d="m60.17,57.32c-1.9-.44-3.7-1.12-5.35-2.19-1.77-1.15-3.24-2.8-4.68-4.32-.13-.14-.33.07-.21.21,1.46,1.71,2.94,3.37,4.65,4.84,1.55,1.34,3.36,2.43,5.44,2.61.66.06.79-1,.15-1.15Z"/>
          <path class="cls-1" d="m64.66,58.46c-.38-.34-.86-.33-1.34-.42-.5-.09-1-.21-1.49-.33-1.01-.24-1.99-.58-2.93-1.01-1.91-.86-3.61-2.02-5.04-3.56-.15-.17-.39.08-.25.25,1.38,1.63,3.06,3.07,4.93,4.11.93.52,1.91.94,2.92,1.27.51.17,1.03.29,1.57.39.51.09,1.07.26,1.54,0,.24-.13.31-.51.09-.7Z"/>
          <path class="cls-1" d="m66.74,57.79c-.42-.18-.85-.2-1.3-.25-.47-.06-.94-.15-1.41-.23-.93-.17-1.84-.4-2.73-.72-1.7-.6-3.22-1.51-4.67-2.57.02,0,.03-.03.01-.05-.1-.05-.2-.1-.3-.16-.12-.06-.22.08-.14.18,1.27,1.48,2.97,2.65,4.74,3.44.87.39,1.79.71,2.72.93.87.21,2.11.48,2.97.18.3-.1.46-.6.1-.75Z"/>
          <path class="cls-1" d="m66.87,57.51c-1.3-.37-2.61-.73-3.88-1.2-1.29-.47-2.55-1.09-3.75-1.76-.17-.09-.3.15-.14.25,1.19.75,2.41,1.42,3.66,2.07,1.24.65,2.5,1.24,3.83,1.68.66.22.96-.86.28-1.06Z"/>
          <path class="cls-1" d="m34.07,44.09c-.8-4.94-2.07-9.74-3.8-14.44-.04-.11-.21-.06-.17.05,1.6,4.67,2.69,9.58,3.17,14.5.23,2.39.36,4.8.4,7.2.04,2.47-.12,4.92-.2,7.39-.02.74,1.03.69,1.11,0,.62-4.83.28-9.91-.5-14.7Z"/>
          <path class="cls-1" d="m36.44,56.55c0-.92,0-1.84-.05-2.75-.08-1.63-.21-3.26-.46-4.88-.53-3.52-1.16-7-2.06-10.44-.02-.06-.11-.04-.1.03.87,3.42,1.48,6.95,1.59,10.49.05,1.72.1,3.44.06,5.15-.02.8-.04,1.61-.07,2.41-.03.77-.22,1.55.09,2.27.13.3.58.25.72,0,.39-.67.26-1.51.27-2.27Z"/>
          <path class="cls-1" d="m37.19,49.42c-.25-3.2-.81-6.34-1.71-9.42-.05-.17-.3-.1-.26.07.72,3.12,1.16,6.32,1.24,9.52.04,1.53,0,3.06-.12,4.59-.13,1.58-.51,3.16-.58,4.73-.03.67.98.78,1.15.15.4-1.54.39-3.3.41-4.88.02-1.59,0-3.17-.13-4.76Z"/>
          <path class="cls-1" d="m38.57,50.99c-.14-2.56-.54-5.12-1.09-7.62-.03-.13-.22-.08-.2.05.47,2.56.61,5.12.49,7.71-.06,1.25-.16,2.5-.31,3.75-.15,1.22-.57,2.49-.57,3.71,0,.71.93.74,1.16.15.44-1.15.42-2.64.5-3.86.08-1.3.09-2.59.02-3.89Z"/>
          <path class="cls-1" d="m39.51,49.7c-.15-3.18-.7-6.34-1.52-9.42-.04-.15-.28-.09-.24.06.79,3.12,1.14,6.31,1.09,9.53-.02,1.6-.14,3.2-.35,4.79-.11.78-.24,1.56-.39,2.33-.13.65-.34,1.25-.25,1.92.06.43.66.42.85.11.4-.65.41-1.51.51-2.26.1-.77.18-1.54.24-2.32.12-1.58.14-3.16.06-4.74Z"/>
          <path class="cls-1" d="m39.9,44.5c-.04-.2-.33-.12-.3.08.4,2.76.59,5.56.47,8.35-.06,1.33-.15,2.65-.31,3.97-.09.7-.19,1.39-.31,2.08-.11.66-.33,1.34-.3,2.01.02.44.71.73.91.24.49-1.19.47-2.74.56-4.02.1-1.43.15-2.86.12-4.28-.06-2.83-.33-5.65-.84-8.43Z"/>
          <path class="cls-1" d="m41.89,53.11c-.16-2.75-.56-5.47-.91-8.2-.01-.11-.21-.09-.2.03.28,2.71.27,5.45.21,8.18-.03,1.34-.08,2.68-.14,4.02-.06,1.39-.25,2.79-.25,4.17,0,.64,1.04.82,1.15.15.44-2.7.29-5.62.14-8.34Z"/>
          <path class="cls-1" d="m42.37,53.51c0-.32,0-.64-.02-.96-.02-.7-.04-1.39-.06-2.09-.04-1.39-.08-2.78-.12-4.17,0-.28-.44-.28-.44,0-.02,1.39-.03,2.78-.05,4.17,0,.7-.02,1.39-.02,2.09,0,.32,0,.64,0,.96,0,.34-.05.72.07,1.04.11.28.47.29.58,0,.11-.32.06-.7.06-1.04Z"/>
          <path class="cls-1" d="m47.94,8.86c-3.65,4.34-6.61,9.65-8.06,15.15-.17.63.82.89.98.26.7-2.73,1.52-5.45,2.77-7.99,1.25-2.54,2.83-4.93,4.6-7.13.17-.21-.12-.5-.29-.29Z"/>
          <path class="cls-1" d="m46.24,9.37c-3.79,4.65-6.74,10.39-8,16.28-.14.66.87.94,1.02.27.68-2.96,1.49-5.88,2.76-8.65,1.24-2.7,2.78-5.26,4.54-7.65.14-.19-.18-.43-.33-.25Z"/>
          <path class="cls-1" d="m42.67,12.26c-3.11,4.37-5.4,9.48-6.3,14.78-.11.66.91.93,1.01.27.79-5.34,2.59-10.37,5.65-14.84.15-.22-.21-.42-.36-.21Z"/>
          <path class="cls-1" d="m39.51,15.34c-1.29,2.32-2.31,4.76-3.1,7.29-.77,2.47-1.5,5.21-1.52,7.82,0,.68.95.64,1.02,0,.16-1.31.19-2.63.38-3.93.18-1.25.44-2.5.75-3.73.65-2.52,1.63-4.95,2.83-7.25.12-.23-.22-.43-.35-.2Z"/>
          <path class="cls-1" d="m35.01,27.26c.12-1.81.3-3.63.79-5.39.02-.08-.1-.12-.13-.03-1.19,3.49-2.03,7.14-1.51,10.85.07.51.9.39.88-.11-.06-1.78-.15-3.53-.03-5.32Z"/>
          <path class="cls-1" d="m75.24,10.13c-1.43.34-2.82.82-4.14,1.43-.66.31-1.32.62-1.96.97-.65.36-1.34.71-1.89,1.21-.23.21.07.61.34.44.62-.38,1.17-.87,1.77-1.28.58-.39,1.19-.76,1.82-1.07,1.32-.64,2.7-1.14,4.12-1.51.13-.03.08-.24-.05-.21Z"/>
          <path class="cls-1" d="m73.2,9.64c-1.55.45-3.09,1.05-4.53,1.78-.73.37-1.44.78-2.12,1.23-.67.43-1.43.88-1.97,1.47-.22.24.07.68.36.48.66-.44,1.23-1.02,1.86-1.49.64-.47,1.3-.91,1.99-1.31,1.41-.83,2.89-1.48,4.45-1.97.12-.04.07-.22-.05-.19Z"/>
          <path class="cls-1" d="m70.01,9.76c-1.51.6-2.97,1.32-4.36,2.18-.69.42-1.36.87-2.02,1.34-.33.24-.67.47-1.01.72-.33.24-.68.44-.9.79-.17.27.16.54.41.41.34-.17.57-.48.84-.74.28-.27.56-.54.86-.79.65-.53,1.32-1.03,2.02-1.49,1.34-.87,2.75-1.62,4.22-2.24.1-.04.03-.22-.07-.18Z"/>
          <path class="cls-1" d="m69.23,8.95c-3.93,1.58-7.67,4.02-10.37,7.33-.36.44.28,1.07.63.63,2.64-3.35,5.87-6.09,9.82-7.76.11-.05.03-.24-.08-.2Z"/>
          <path class="cls-1" d="m67,8.87c-2.19.89-4.29,2.08-6.15,3.53-1.88,1.47-3.66,3.14-4.93,5.18-.31.49.46.92.78.44,1.31-1.92,2.69-3.78,4.45-5.32,1.78-1.55,3.75-2.8,5.93-3.7.09-.04.01-.17-.08-.14Z"/>
          <path class="cls-1" d="m61.84,10.98c-1.61.99-3.14,2.27-4.37,3.72-.61.71-1.16,1.48-1.64,2.28-.26.43-.5.86-.73,1.31-.22.44-.47.9-.54,1.39-.07.52.6.88.9.37.23-.39.34-.84.49-1.26.15-.43.33-.86.52-1.28.4-.84.87-1.65,1.4-2.41,1.11-1.58,2.43-2.9,4.03-3.98.08-.05,0-.18-.07-.13Z"/>
          <path class="cls-1" d="m86.88,16.83c-.21-.38-.44-.76-.69-1.12-.49-.7-1.05-1.35-1.68-1.92-.08-.08-.21.04-.13.13.57.62,1.06,1.3,1.47,2.03.2.35.37.71.53,1.08.17.39.27.81.44,1.21.15.34.7.11.6-.24-.11-.4-.34-.8-.54-1.16Z"/>
          <path class="cls-1" d="m88.36,17.74c-.29-.74-.65-1.46-1.05-2.15-.8-1.37-1.84-2.59-3.07-3.59-.09-.08-.23.05-.14.14,1.14,1.03,2.09,2.25,2.8,3.61.35.67.61,1.37.82,2.09.21.75.27,1.52.45,2.28.1.45.85.37.82-.11-.05-.77-.35-1.56-.63-2.27Z"/>
          <path class="cls-1" d="m90.13,20c-.1-.54-.22-1.07-.38-1.59-.31-1.02-.73-2.01-1.23-2.95-.99-1.89-2.34-3.63-3.92-5.08-.14-.13-.36.08-.21.21,1.51,1.47,2.7,3.17,3.54,5.1.42.95.73,1.93.97,2.94.12.48.22.95.3,1.44.08.46.03,1.07.37,1.42.17.17.44.12.56-.08.26-.4.07-.96-.02-1.4Z"/>
          <path class="cls-1" d="m91.14,18.87c-.19-1.02-.5-2.02-.89-2.98-.78-1.89-1.96-3.49-3.37-4.95-.01-.01-.03,0-.02.02,1.3,1.46,2.23,3.27,2.82,5.13.29.91.5,1.86.61,2.81.1.94-.01,1.87.08,2.8.05.52.88.73.98.13.17-.95-.03-2.01-.21-2.95Z"/>
          <path class="cls-1" d="m92.79,20.17c-.19-.7-.4-1.39-.64-2.07-.48-1.33-.97-2.63-1.62-3.89-.07-.14-.29-.02-.22.12.63,1.25,1.2,2.56,1.54,3.92.16.65.3,1.31.4,1.98.1.68.11,1.41.3,2.07.1.34.6.27.61-.08.02-.69-.19-1.4-.37-2.06Z"/>
          <path class="cls-1" d="m94.86,21.94c-.14-.62-.29-1.24-.49-1.84-.38-1.17-.87-2.29-1.47-3.36-.09-.15-.32-.02-.23.13.58,1.07,1.05,2.2,1.39,3.37.16.55.3,1.11.41,1.67.11.6.08,1.25.24,1.83.07.26.44.2.45-.06.03-.57-.18-1.2-.3-1.75Z"/>
          <path class="cls-1" d="m92.55,14.44c-.07-.08-.22.03-.15.11,2.22,2.96,3.44,6.52,3.44,10.22,0,.39.62.38.6,0-.21-3.74-1.57-7.39-3.89-10.34Z"/>
          <path class="cls-1" d="m127.84,25.82c-2.64,2.27-3.51,5.6-4.25,8.88-.75,3.37-1.53,7.17-4.48,9.36-.69.51-.06,1.69.67,1.18,6.44-4.44,3.31-13.8,8.38-19.09.21-.22-.1-.52-.33-.33Z"/>
          <path class="cls-1" d="m114.36,26.45c-.05-.41-.12-.81-.24-1.2-.23-.75-.63-1.45-1.12-2.06-.13-.17-.4.05-.29.22.39.63.62,1.32.79,2.04.08.34.12.69.14,1.03.02.38-.06.78.02,1.15.03.15.18.26.33.26.17,0,.27-.11.33-.26.14-.36.08-.81.04-1.18Z"/>
          <path class="cls-1" d="m115.34,27.58c-.02-.46-.06-.91-.12-1.37-.13-.91-.39-1.79-.75-2.63-.12-.28-.61-.08-.5.2.32.8.54,1.65.64,2.51.05.43.07.86.06,1.29,0,.22-.02.43-.04.65-.02.22-.07.42-.02.64.06.28.49.35.62.08.19-.39.13-.94.11-1.36Z"/>
          <path class="cls-1" d="m116.48,27.99c-.08-1.26-.4-2.5-.9-3.66-.04-.09-.18-.03-.15.06.35,1.17.48,2.38.44,3.6-.02.6-.1,1.19-.22,1.77-.13.59-.37,1.16-.5,1.74-.1.49.62.85.86.35.27-.57.35-1.24.42-1.86.08-.66.1-1.33.06-2Z"/>
          <path class="cls-1" d="m117.07,25.5c-.08-.26-.47-.16-.4.11.46,1.85.44,3.77-.03,5.62-.23.91-.55,1.78-.99,2.61-.44.84-1.04,1.49-1.57,2.26-.41.59.52,1.28,1,.76.66-.7,1.12-1.71,1.5-2.59.4-.94.7-1.91.87-2.91.33-1.95.2-3.96-.38-5.85Z"/>
          <path class="cls-1" d="m118.31,27.45c-.03-.18-.33-.14-.31.04.31,3.22-.46,6.52-2.13,9.29-.31.51.53.99.81.46,1.59-3.03,2.14-6.41,1.62-9.79Z"/>
          <path class="cls-1" d="m119.2,30.39c-.02-.18-.3-.19-.29,0,.05,1.52-.06,3.1-.43,4.58-.19.74-.42,1.48-.71,2.18-.29.68-.71,1.32-.97,2-.15.41.45.59.67.27.42-.6.65-1.43.87-2.13.24-.75.44-1.52.59-2.3.29-1.54.4-3.06.27-4.62Z"/>
          <path class="cls-1" d="m119.49,35.5c-.02.93-.18,1.85-.46,2.74-.13.43-.28.86-.46,1.27-.09.2-.18.4-.28.6-.11.21-.25.42-.31.65-.06.21.21.37.37.21.32-.32.49-.86.66-1.28.18-.44.33-.88.43-1.34.21-.93.3-1.89.28-2.85,0-.15-.23-.15-.24,0Z"/>
          <path class="cls-1" d="m119.94,37.05c-.07,1.03-.26,2.05-.53,3.05-.14.49-.3.98-.49,1.45-.18.46-.5.92-.63,1.4-.13.48.49.66.75.31.16-.23.25-.54.34-.8.09-.24.17-.48.24-.72.16-.5.29-1.01.4-1.53.21-1.04.29-2.1.26-3.16,0-.23-.33-.22-.35,0Z"/>
          <path class="cls-1" d="m120.39,39.64c-.03.88-.18,1.72-.41,2.56-.11.41-.24.81-.39,1.2-.16.4-.46.83-.45,1.26,0,.26.31.48.55.32.41-.28.56-.83.73-1.27.16-.42.29-.85.39-1.29.22-.9.28-1.86.26-2.78,0-.44-.67-.44-.69,0Z"/>
          <path class="cls-1" d="m123.02,55.03c-.84-.29-1.61-.79-2.25-1.4-.64-.62-1.19-1.35-1.52-2.18-.09-.22-.44-.14-.37.1.29.93.8,1.79,1.51,2.46.71.67,1.59,1.15,2.53,1.39.24.06.33-.29.1-.37Z"/>
          <path class="cls-1" d="m123.81,54.65c-.76-.5-1.54-.97-2.17-1.64-.62-.66-1.14-1.45-1.44-2.31-.09-.24-.45-.15-.39.1.22.99.66,1.9,1.33,2.66.65.75,1.5,1.43,2.5,1.61.26.05.4-.28.18-.43Z"/>
          <path class="cls-1" d="m125.23,54.83c-1.16-.95-2.3-1.89-3.17-3.13-.87-1.23-1.54-2.6-1.88-4.07-.05-.23-.39-.13-.35.09.27,1.54.82,3.04,1.69,4.34.86,1.28,1.97,2.51,3.37,3.2.27.13.6-.23.34-.44Z"/>
          <path class="cls-1" d="m127.71,55.51c-.31-.35-.73-.61-1.08-.91-.34-.29-.68-.59-1-.91-.68-.67-1.28-1.4-1.84-2.17-1.09-1.53-1.96-3.23-2.5-5.04-.06-.2-.36-.12-.32.08.46,1.92,1.24,3.75,2.4,5.35.56.77,1.18,1.49,1.87,2.16.65.62,1.44,1.42,2.3,1.74.18.07.28-.18.17-.3Z"/>
          <path class="cls-1" d="m129.97,56.12c-1.88-1.46-3.48-3.11-4.69-5.18-1.19-2.03-1.99-4.28-2.34-6.61-.02-.16-.29-.12-.28.04.49,4.71,2.94,9.42,6.71,12.36.43.33,1.04-.27.6-.6Z"/>
          <path class="cls-1" d="m131.83,56.94c-.56-.79-1.31-1.46-1.91-2.22-.62-.79-1.19-1.62-1.71-2.48-1.05-1.72-1.91-3.54-2.55-5.45-.08-.23-.43-.14-.37.1.52,1.96,1.25,3.87,2.19,5.66.47.9,1,1.77,1.58,2.6.56.81,1.16,1.79,1.91,2.44.43.37,1.24-.12.86-.65Z"/>
          <path class="cls-1" d="m131.34,53.42c-1.03-1.39-2.04-2.81-2.68-4.43-.12-.3-.59-.19-.49.13.57,1.73,1.29,3.43,2.42,4.86.33.41,1.06-.14.74-.57Z"/>
          <path class="cls-1" d="m109.28,63.27c-1.14,4.28-3.16,8.52-5.61,12.21-1.22,1.84-2.57,3.6-4.05,5.24-.72.8-1.47,1.6-2.3,2.29-.79.65-1.93.98-2.62,1.72-.25.27-.18.83.24.89,1.95.28,3.99-2.08,5.11-3.41,1.51-1.8,2.87-3.74,4.07-5.76,1.2-2.03,2.28-4.15,3.18-6.33.92-2.22,1.56-4.48,2.18-6.8.04-.13-.17-.19-.21-.05Z"/>
          <path class="cls-1" d="m100.89,70.48c-.08,2.98-1.04,5.97-2.58,8.51-.74,1.23-1.61,2.39-2.61,3.43-1.04,1.08-2.3,1.87-3.38,2.88-.34.32,0,1.02.48.84,1.39-.55,2.63-1.74,3.64-2.82,1.08-1.15,2.01-2.44,2.73-3.84,1.45-2.8,2.12-5.85,2.04-9,0-.21-.32-.21-.33,0Z"/>
          <path class="cls-1" d="m99.09,73.13c-.68,2.44-2.05,4.91-3.76,6.78-.85.93-1.79,1.81-2.79,2.57-.51.39-1.05.74-1.6,1.06-.52.31-1.16.51-1.52,1.01-.22.31.09.71.42.72.64.01,1.29-.51,1.8-.85.53-.35,1.04-.72,1.53-1.12,1.06-.85,1.99-1.82,2.8-2.91.8-1.07,1.52-2.21,2.1-3.42.59-1.23.93-2.47,1.23-3.79.03-.13-.17-.19-.21-.05Z"/>
          <path class="cls-1" d="m96.73,76.08c-2.65,4.7-7.8,7.61-12.94,8.74-.81.18-.47,1.35.32,1.23,2.78-.44,5.39-1.66,7.57-3.44,2.2-1.8,3.85-3.97,5.18-6.46.04-.08-.08-.15-.13-.07Z"/>
          <path class="cls-1" d="m94.57,76.68c-1.81,1.95-4.04,3.52-6.42,4.71-1.17.59-2.38,1.08-3.62,1.48-1.29.42-2.62.58-3.92.93-.51.14-.43.94.12.93,1.32-.03,2.7-.46,3.95-.87,1.31-.43,2.6-.99,3.8-1.67,2.42-1.36,4.5-3.18,6.32-5.28.13-.15-.08-.37-.22-.22Z"/>
          <path class="cls-1" d="m90.26,77.94c-2.02,1.63-4.17,2.95-6.54,4-1.18.52-2.39.95-3.64,1.28-1.13.3-2.49.69-3.55,0-.54-.36-1.21.49-.7.92,1.04.88,2.29.84,3.56.52,1.4-.36,2.76-.9,4.07-1.51,2.59-1.21,5.01-2.95,7-5,.13-.13-.06-.31-.2-.2Z"/>
          <path class="cls-1" d="m86.73,78.28c-1.97,1.72-4.23,2.97-6.76,3.64-1.19.32-2.41.52-3.65.57-1.17.05-2.57-.3-3.66.17-.42.18-.32.76,0,.97,1.03.66,2.69.28,3.82.11,1.34-.21,2.66-.56,3.93-1.03,2.45-.92,4.76-2.28,6.69-4.05.25-.23-.12-.6-.37-.37Z"/>
          <path class="cls-1" d="m71.76,72.24c-3.48,1.15-6.76,2.82-9.61,5.13-.19.15.06.49.26.35,2.9-2.1,6.08-3.82,9.49-4.91.36-.11.21-.68-.15-.57Z"/>
          <path class="cls-1" d="m77.59,71.72c-.5-.19-1.01-.05-1.51.05-.63.12-1.25.27-1.86.43-1.16.32-2.29.72-3.39,1.2-2.24.98-4.29,2.28-6.13,3.89-.19.16.07.51.27.35,1.85-1.41,3.89-2.62,6.03-3.52,1.08-.45,2.19-.84,3.32-1.15.58-.16,1.17-.3,1.76-.42.54-.11,1.12-.12,1.58-.46.15-.11.13-.32-.05-.38Z"/>
          <path class="cls-1" d="m78.35,71.52c-.51-.1-.97.12-1.44.29-.52.19-1.03.39-1.53.61-1,.43-1.98.96-2.94,1.49-1.89,1.05-3.7,2.26-5.36,3.63-.21.18.09.47.3.3,1.67-1.31,3.46-2.45,5.39-3.35.95-.44,1.9-.79,2.89-1.12.51-.17,1.01-.33,1.53-.48.48-.14,1.01-.2,1.38-.55.26-.25.14-.75-.22-.83Z"/>
          <path class="cls-1" d="m79.7,71.84c-1.8.33-3.55,1.2-5.14,2.08-1.62.9-3.06,2-4.45,3.22-.1.09.05.23.15.15,1.4-1.11,3.01-2.04,4.63-2.79,1.63-.76,3.35-1.18,5.06-1.72.6-.19.37-1.06-.25-.95Z"/>
          <path class="cls-1" d="m82.85,71.06c-1.18.06-2.41.73-3.46,1.24-1.16.56-2.27,1.19-3.34,1.91-2.11,1.42-4,3.09-5.75,4.93-.19.2.1.49.3.3,1.79-1.68,3.82-3.12,5.95-4.35,1.02-.59,2.07-1.13,3.13-1.64.56-.27,1.14-.51,1.71-.75.56-.24,1.18-.43,1.68-.79.33-.24.27-.86-.22-.84Z"/>
          <path class="cls-1" d="m84.71,70.79c-.98.11-1.96.65-2.82,1.11-.91.49-1.77,1.05-2.62,1.64-1.68,1.17-3.21,2.52-4.47,4.13-.09.11.05.26.16.16,1.44-1.35,2.98-2.62,4.67-3.64.81-.49,1.67-.91,2.54-1.28.91-.39,1.95-.62,2.79-1.12.42-.25.29-1.05-.26-.99Z"/>
          <path class="cls-1" d="m87.72,70.2c-.8-.16-1.71.41-2.4.76-.78.39-1.51.86-2.22,1.38-1.37,1.02-2.57,2.33-3.69,3.63-.07.08.05.2.12.12.58-.63,1.19-1.24,1.9-1.72.67-.46,1.38-.89,2.09-1.3.7-.4,1.42-.76,2.15-1.1.38-.18.77-.35,1.16-.5.39-.15.8-.28,1.08-.61.18-.21.14-.59-.18-.65Z"/>
          <path class="cls-1" d="m109.91,66.04c-1.42,6.19-4.71,11.67-8.89,16.37-.26.29.13.68.42.42,4.84-4.29,7.72-10.42,8.69-16.73.02-.14-.18-.2-.22-.06Z"/>
          <path class="cls-1" d="m110.67,68.4c-.82,3.79-2.46,7.31-4.75,10.42-.16.22.2.49.38.29,2.65-2.96,4.24-6.74,4.62-10.68.01-.15-.22-.18-.25-.03Z"/>
          <path class="cls-1" d="m111.57,70.35c-.06.59-.2,1.18-.42,1.74-.22.55-.54,1.05-.83,1.57-.11.2.16.42.33.25.44-.46.73-1.07.93-1.68.21-.61.32-1.24.34-1.88,0-.23-.33-.22-.35,0Z"/>
          <path class="cls-1" d="m128.08,83.36c-.46,1.07-1.15,2.05-1.94,2.9-.8.86-1.75,1.53-2.75,2.13-.42.26-.06.84.37.66,2.29-.99,3.91-3.24,4.55-5.59.04-.14-.18-.23-.24-.1Z"/>
          <path class="cls-1" d="m126.44,84.71c-.11-.06-.26-.02-.31.09-.21.39-.47.72-.81,1.01-.06.05-.04.04-.1.08-.04.03-.08.06-.13.09-.09.06-.19.12-.29.17-.1.05-.2.1-.3.15-.05.02-.09.05-.14.07-.03.01-.06.03-.08.04-.01,0-.09.04-.04.02-.15.06-.28.21-.22.38.05.15.22.28.38.22.24-.08.47-.18.68-.33.21-.14.41-.31.59-.49.35-.35.64-.74.85-1.18.05-.11.03-.25-.09-.31Z"/>
          <path class="cls-1" d="m79.55,91.97c-.99-.64-2.51-.75-3.66-.88-1.21-.14-2.42-.18-3.64-.14-2.48.08-4.91.6-7.25,1.4-.13.04-.08.24.05.21,2.36-.52,4.79-.65,7.2-.5,1.16.08,2.31.24,3.45.48.59.13,1.19.27,1.78.42.57.14,1.12.36,1.71.36.76,0,.94-.97.36-1.36Z"/>
          <path class="cls-1" d="m78.47,92.25c-1.39-.14-2.86-.04-4.25.03-1.32.06-2.65.17-3.96.34-1.34.17-2.68.46-3.98.83-1.29.37-2.47.95-3.7,1.49-.14.06-.04.3.1.25,2.44-.97,5.26-1.29,7.87-1.5,1.32-.1,2.64-.13,3.96-.1,1.32.03,2.65.21,3.97.21,1.02,0,.97-1.45,0-1.55Z"/>
          <path class="cls-1" d="m77.3,92.98c-.57-.36-1.22-.19-1.85-.11-.62.08-1.23.2-1.84.33-1.27.27-2.52.61-3.77.95-2.49.67-4.89,1.6-7.25,2.62-.12.05-.04.26.09.22,2.4-.89,4.88-1.51,7.39-1.98,1.28-.24,2.56-.36,3.86-.45.62-.05,1.25-.08,1.87-.12.63-.05,1.16-.03,1.65-.46.32-.28.19-.79-.13-.99Z"/>
          <path class="cls-1" d="m30.65,91.02c-.85-1.01-1.81-1.88-2.56-2.98-.74-1.09-1.39-2.27-1.88-3.5-1-2.51-1.35-5.25-.99-7.92.03-.21-.29-.3-.33-.09-.53,2.78-.34,5.64.51,8.34.42,1.35,1,2.64,1.77,3.82.75,1.17,1.66,2.42,2.82,3.21.56.38,1.05-.43.68-.89Z"/>
          <path class="cls-1" d="m32.59,91.34c-2.57-2.57-4.25-5.63-5.1-9.16-.95-3.95-.92-8.2-.68-12.23.01-.2-.29-.19-.3,0-.37,4.27-.7,8.51.19,12.74.73,3.5,2.29,7.12,5.05,9.5.58.5,1.41-.3.85-.85Z"/>
          <path class="cls-1" d="m37.18,93.7c-1.06-1.3-2.46-2.32-3.55-3.62-1.12-1.34-2.09-2.78-2.9-4.32-1.64-3.13-2.56-6.62-2.6-10.16,0-.2-.3-.2-.3,0-.04,3.6.66,7.15,2.1,10.45.73,1.68,1.65,3.28,2.76,4.75,1.03,1.36,2.28,2.99,3.82,3.79.58.3,1.06-.4.67-.88Z"/>
          <path class="cls-1" d="m41.41,96.29c-.31-.73-1.3-1.2-1.91-1.67-.67-.52-1.32-1.07-1.93-1.66-1.29-1.23-2.45-2.6-3.45-4.07-1.99-2.93-3.43-6.25-4.06-9.74-.03-.19-.32-.11-.29.08.52,3.68,1.71,7.2,3.67,10.36.94,1.52,2.04,2.95,3.25,4.26.64.68,1.31,1.35,2.02,1.95.62.53,1.38,1.3,2.23,1.32.45.01.63-.46.48-.82Z"/>
          <path class="cls-1" d="m47.38,99.99c-.61-.68-1.25-1.33-1.91-1.96-1.36-1.3-2.8-2.51-4.22-3.74-2.78-2.41-5.45-5.17-6.43-8.82-.05-.19-.33-.11-.29.08.76,3.55,2.92,6.52,5.36,9.11,1.31,1.4,2.74,2.68,4.14,4,.7.66,1.38,1.33,2.03,2.04.62.68,1.19,1.59,1.98,2.06.41.25.9-.17.8-.61-.2-.82-.91-1.55-1.46-2.16Z"/>
          <path class="cls-1" d="m38.33,88.31c-.13-.19-.43-.02-.31.18,1.62,2.69,3.79,4.81,5.84,7.16,2.1,2.4,3.89,5.17,3.93,8.46,0,.73,1.1.72,1.12,0,.23-7.1-7.11-10.64-10.58-15.8Z"/>
          <path class="cls-1" d="m44.83,91.68c-3.08-3.53-6.85-6.98-7.92-11.74-.05-.22-.37-.13-.34.09.75,4.44,3.56,7.93,6.39,11.27,3.11,3.68,6.09,7.57,5.97,12.63-.02.78,1.09.73,1.18,0,.59-4.64-2.38-8.93-5.28-12.24Z"/>
          <path class="cls-1" d="m10.44,59.3c-1.69-1.45-3.88-2.25-6.1-2.25-.22,0-.22.33,0,.34,2.12.11,4.15.89,5.81,2.21.2.16.5-.12.29-.29Z"/>
          <path class="cls-1" d="m17.15,63.61c-1.76-1.4-3.88-2.46-5.94-3.33-2.11-.88-4.27-1.48-6.52-1.89-.08-.01-.11.1-.03.12,2.19.53,4.35,1.31,6.4,2.25,2.03.94,3.85,2.13,5.73,3.32.28.18.64-.26.36-.48Z"/>
          <path class="cls-1" d="m23.57,69.4c-2.22-2.62-5.38-4.57-8.41-6.11-3.1-1.57-6.43-2.64-9.83-3.34-.18-.04-.25.23-.07.27,3.35.76,6.53,2.05,9.54,3.71,3.03,1.67,5.58,3.86,8.31,5.94.33.25.75-.14.47-.47Z"/>
          <path class="cls-1" d="m23.49,70.8c-3.26-5.4-10.31-6.39-15.63-8.69-.08-.03-.15.08-.07.12,5.38,2.34,11.3,4.01,14.8,9.07.37.53,1.23.07.89-.51Z"/>
          <path class="cls-1" d="m22.36,70.51c-.98-.95-2.21-1.66-3.39-2.33-2.61-1.46-5.27-2.59-8.17-3.35-.09-.02-.13.11-.04.14,2.55.8,5.08,1.98,7.32,3.45,1.07.7,2.1,1.51,3.03,2.39.42.4.81.83,1.11,1.32.3.49.33,1.09.63,1.56.17.26.62.33.77,0,.5-1.09-.52-2.46-1.27-3.19Z"/>
          <path class="cls-1" d="m22.37,72.39c-.51-.54-1.13-.98-1.76-1.37-1.43-.9-2.99-1.56-4.55-2.21-.18-.08-.34.19-.16.27,1.46.68,2.98,1.35,4.23,2.38.53.44,1.01.94,1.45,1.47.47.55.79,1.21,1.28,1.74.29.32.73-.02.67-.38-.12-.73-.67-1.38-1.16-1.9Z"/>
          <path class="cls-1" d="m22.85,75.6c-.13-.31-.28-.61-.45-.9-.35-.56-.78-1.07-1.26-1.52-1.06-1-2.43-1.64-3.7-2.32-.21-.11-.37.19-.18.31,1.17.74,2.27,1.53,3.25,2.51.42.43.8.89,1.1,1.42.14.25.28.51.38.79.11.3.13.74.45.89.22.1.41.03.55-.15.22-.29,0-.73-.13-1.03Z"/>
          <path class="cls-1" d="m21.91,75.62c-.42-.38-.86-.74-1.31-1.08-.93-.72-1.94-1.34-2.98-1.9-2.09-1.11-4.26-1.76-6.55-2.32-.15-.04-.21.19-.06.23,2.17.56,4.29,1.65,6.19,2.84.95.6,1.84,1.27,2.71,1.97.42.34.82.69,1.21,1.05.39.36.79.85,1.31.98.3.08.57-.2.5-.5-.13-.53-.63-.93-1.02-1.27Z"/>
          <path class="cls-1" d="m22.67,79.43c-.19-.24-.39-.48-.59-.71-.42-.46-.87-.88-1.36-1.27-.97-.76-2.06-1.35-3.24-1.73-.18-.06-.31.24-.13.32,1.07.47,2.07,1.12,2.92,1.93.41.39.8.81,1.13,1.27.17.24.34.48.48.74.17.29.35.61.73.61.13,0,.26-.07.32-.19.2-.37-.03-.69-.26-.97Z"/>
          <path class="cls-1" d="m22.26,81.1c-1.13-1.17-2.4-2.13-3.8-2.94-1.39-.8-2.8-1.49-4.35-1.94-.17-.05-.24.21-.07.27,1.47.5,2.99,1.18,4.23,2.13,1.21.93,2.31,2.03,3.25,3.23.41.52,1.23-.25.75-.75Z"/>
          <path class="cls-1" d="m23.62,85.24c-.35-.81-1.05-1.57-1.64-2.22-.62-.69-1.29-1.34-2.01-1.93-1.41-1.16-3-2.06-4.72-2.69-.21-.08-.35.27-.15.36,1.65.7,3.19,1.66,4.54,2.84.66.57,1.26,1.19,1.8,1.87.57.71.99,1.54,1.55,2.25.3.38.78-.1.62-.47Z"/>
          <path class="cls-1" d="m25.87,87.4c-1.08-1.3-2.58-2.3-4.01-3.18-1.43-.89-2.99-1.55-4.55-2.18-.15-.06-.25.19-.11.26,1.5.7,2.86,1.62,4.19,2.59,1.34.98,2.49,2.16,3.76,3.21.5.41,1.12-.21.71-.71Z"/>
          <path class="cls-1" d="m28.49,90.6c-2.68-2.58-5.91-4.31-9.26-5.87-.11-.05-.2.1-.09.17,3.16,1.79,6.01,4.11,8.92,6.26.32.24.71-.29.43-.56Z"/>
          <path class="cls-1" d="m33.45,97.1c-.74-.97-1.63-1.84-2.5-2.7-.93-.91-1.89-1.79-2.91-2.59-1.99-1.56-4.14-2.88-6.35-4.1-.11-.06-.21.11-.1.18,2.15,1.3,4.15,2.82,6.05,4.46.91.78,1.82,1.56,2.69,2.39.92.87,1.75,1.83,2.65,2.71.23.22.67-.08.46-.35Z"/>
          <path class="cls-1" d="m35.57,97.73c-.87-1.44-1.98-2.73-3.18-3.91-.57-.56-1.18-1.1-1.84-1.56-.71-.5-1.37-1.07-2.07-1.58-.04-.03-.09.04-.05.07.65.5,1.33,1.01,1.88,1.62.56.62,1.14,1.21,1.7,1.82,1.13,1.21,2.18,2.5,3.26,3.76.14.17.41-.05.3-.23Z"/>
          <path class="cls-1" d="m37.92,97.69c-1.57-2.29-3.52-4.3-5.77-5.93-.16-.12-.32.16-.16.27,2.19,1.6,4.1,3.58,5.61,5.83.13.19.44.01.31-.18Z"/>
          <path class="cls-1" d="m39.85,97.47c-.32-.47-.71-.89-1.08-1.32-.37-.42-.74-.84-1.14-1.24-.8-.8-1.67-1.55-2.56-2.25-.14-.11-.32-.13-.45,0-.11.11-.14.35,0,.45.89.69,1.73,1.43,2.54,2.2.39.38.79.76,1.17,1.15.4.41.76.86,1.16,1.28.17.18.5-.06.35-.27Z"/>
          <path class="cls-1" d="m42.71,98.29c-.09-.16-.18-.3-.31-.44-.12-.12-.25-.24-.37-.36-.25-.24-.51-.46-.77-.69l-1.55-1.36c-.17-.15-.42-.16-.58,0-.15.15-.17.43,0,.58.52.47,1.04.93,1.57,1.39.26.23.51.46.78.68.14.12.29.24.44.35.15.11.31.18.49.25.23.09.41-.21.31-.4Z"/>
          <path class="cls-1" d="m31.23,97.84c-1.28-1.43-2.7-2.72-4.16-3.96-1.44-1.22-2.95-2.32-4.57-3.29-.06-.03-.1.05-.05.09,1.54,1.11,3.04,2.31,4.43,3.61,1.37,1.27,2.58,2.71,3.73,4.18.34.44,1.02-.2.63-.63Z"/>
          <path class="cls-1" d="m28.74,98.34c-2.97-3.05-6.45-5.66-10.09-7.87-.17-.1-.31.16-.15.26,3.59,2.3,6.8,5.03,9.84,8.01.26.26.66-.14.41-.41Z"/>
          <path class="cls-1" d="m24.89,98.2c-.31-.39-.66-.74-1-1.1-.35-.37-.71-.74-1.08-1.09-.73-.7-1.48-1.37-2.25-2.02-.12-.1-.29.06-.17.17.73.69,1.44,1.41,2.12,2.15.34.37.68.73,1.01,1.1.34.38.66.78,1.01,1.15.24.25.57-.11.37-.37Z"/>
          <path class="cls-1" d="m94.79,97.6c-2.49,1.79-4.98,3.62-7.87,4.75-2.91,1.14-6.06,1.75-9.18,1.93-6.21.36-12.36-1.13-18.11-3.42-1.59-.63-3.12-1.41-4.67-2.13-1.61-.75-3.21-1.5-4.72-2.45-.73-.46-1.62.66-.94,1.23,1.27,1.07,2.53,2.18,3.92,3.09,1.37.9,2.82,1.61,4.33,2.24,3.07,1.29,6.26,2.17,9.58,2.56,6.43.76,13.22.32,19.43-1.55,1.74-.52,3.4-1.24,5.02-2.06,1.64-.83,2.92-1.94,3.98-3.42.32-.45-.33-1.1-.77-.77Z"/>
          <path class="cls-1" d="m52.01,97.7c-1.1-1.06-2.26-2.07-3.28-3.22-.21-.23-.64.08-.44.34.94,1.24,1.92,2.48,3.14,3.47.17.14.42.17.59,0,.16-.16.16-.43,0-.59Z"/>
          <path class="cls-1" d="m57.14,100.54c-3.5-2.62-6.85-5.39-9.85-8.59-.14-.15-.35.07-.22.22,2.81,3.39,6.08,6.45,9.85,8.75.25.15.45-.22.22-.39Z"/>
          <path class="cls-1" d="m60.15,101.4c-1.13-1.13-2.46-2.05-3.7-3.06-1.28-1.04-2.54-2.1-3.8-3.17-2.48-2.1-4.95-4.23-7.38-6.39-.17-.15-.42.09-.25.25,2.37,2.29,4.78,4.53,7.26,6.71,1.2,1.06,2.42,2.1,3.64,3.13,1.24,1.05,2.44,2.19,3.82,3.08.33.21.69-.28.42-.55Z"/>
          <path class="cls-1" d="m51.87,91.88c-2.62-1.94-5.37-3.69-7.9-5.76-.17-.14-.4.1-.24.24,2.49,2.15,5.02,4.34,7.86,6.02.33.19.57-.29.28-.5Z"/>
          <path class="cls-1" d="m48.27,87.57c-1.96-1.44-3.97-2.8-6.04-4.08-.16-.1-.36.15-.21.27,1.87,1.61,3.81,3.14,5.8,4.6.2.15.51.02.62-.17.13-.23.03-.47-.17-.62Z"/>
          <path class="cls-1" d="m46.25,83.89c-1.58-.94-3.13-1.89-4.61-2.99-.31-.23-.73.3-.42.55,1.45,1.16,2.98,2.27,4.61,3.17.47.26.88-.45.42-.73Z"/>
          <path class="cls-1" d="m95.07,96.89c-4.73.68-9.76-.07-13.72-2.87-.12-.09-.24.12-.12.21,4.02,3,9.09,4.64,14.1,3.67.67-.13.38-1.09-.26-1Z"/>
          <path class="cls-1" d="m95.09,97.38c-5.43,2.52-10.99-.12-15.9-2.65-.21-.11-.37.19-.18.31,2.62,1.65,5.26,3.32,8.31,4.08,2.65.66,5.86.57,8.23-.94.51-.33.08-1.06-.46-.81Z"/>
          <path class="cls-1" d="m93.49,99.17c-1.65.37-3.23.75-4.94.78-1.6.03-3.21-.22-4.76-.61-2.92-.73-5.7-2.08-7.91-4.16-.09-.08-.22.05-.14.14,2.22,2.16,4.83,3.93,7.84,4.79,3.12.89,7.03.93,10.09-.22.44-.17.29-.83-.19-.72Z"/>
          <path class="cls-1" d="m92.12,100.84c-3.17.51-6.23.73-9.39.04-3.05-.67-6.21-1.96-8.64-3.93-.08-.06-.19.04-.11.11,2.47,2.3,5.2,3.98,8.5,4.78,3.16.77,6.77.88,9.83-.28.45-.17.29-.8-.19-.72Z"/>
          <path class="cls-1" d="m89.4,101.87c-3.3.71-6.45.76-9.73-.1-2.8-.73-5.58-2.09-7.69-4.1-.12-.11-.3.06-.18.18,2.18,2.21,4.63,3.99,7.6,4.98,3.22,1.07,7.06,1.11,10.28.06.65-.21.4-1.17-.27-1.02Z"/>
          <path class="cls-1" d="m84.84,103.18c-1.25.27-2.48.56-3.77.59-1.27.02-2.5-.16-3.72-.5-2.1-.59-4.29-1.76-5.85-3.31-.12-.12-.29.06-.18.18.78.95,1.54,1.79,2.55,2.5,1.01.71,2.15,1.26,3.33,1.62,2.49.76,5.56.8,7.96-.29.46-.21.13-.88-.32-.79Z"/>
          <path class="cls-1" d="m75.51,104.11c-.87.07-1.73-.05-2.57-.31-.82-.25-1.69-.61-2.34-1.19-.17-.15-.42.09-.25.25.32.33.66.67,1.03.96.39.31.81.54,1.27.73.9.37,1.89.5,2.86.43.56-.04.56-.92,0-.88Z"/>
          <path class="cls-1" d="m114.04,94.77c-2.74,1.69-5.91,2.73-9.08,3.24-1.59.25-3.21.34-4.82.3-1.61-.04-3.18-.42-4.78-.45-.44,0-.68.7-.23.88,1.43.6,3.17.67,4.71.72,1.7.05,3.4-.12,5.08-.43,3.38-.64,6.45-2.04,9.31-3.92.2-.13.02-.46-.19-.33Z"/>
          <path class="cls-1" d="m113.72,96.68c-3.13,2.08-6.89,3.28-10.63,3.56-1.82.13-3.68.08-5.47-.28-1.86-.37-3.58-1.07-5.36-1.69-.7-.25-1.13.85-.49,1.2,3.31,1.83,7.76,2.14,11.45,1.76,3.92-.41,7.55-1.81,10.74-4.11.26-.19.02-.62-.25-.44Z"/>
          <path class="cls-1" d="m113.26,99.47c-3.48,1.55-7.28,2.45-11.1,2.55-1.86.05-3.73-.07-5.57-.37-1.86-.3-3.6-.86-5.39-1.4-.91-.27-1.24,1.1-.37,1.41,3.62,1.3,7.85,1.53,11.64,1.19,3.83-.34,7.55-1.32,11.02-2.97.28-.13.04-.55-.24-.42Z"/>
          <path class="cls-1" d="m112.23,102.05c-7.49,3.9-16.71,3.77-24.2-.04-.87-.44-1.63.92-.75,1.32,8,3.67,17.41,3.2,25.13-.95.21-.11.03-.43-.18-.32Z"/>
          <path class="cls-1" d="m107.56,104.89c-7.27,2.78-15.6,2.3-22.3-1.77-.67-.41-1.3.68-.61,1.07,7,3.92,15.75,4.53,23.09,1.17.26-.12.08-.57-.19-.46Z"/>
          <path class="cls-1" d="m108.43,106.36c-8.8,4.38-20.14,3.9-28.16-2.01-.64-.47-1.35.68-.63,1.11,4.37,2.61,9.1,4.36,14.23,4.62,5.12.26,10.26-.93,14.81-3.28.29-.15.04-.58-.25-.44Z"/>
          <path class="cls-1" d="m98.32,110.71c-3.6.92-7.34.76-10.85-.46-1.7-.59-3.31-1.46-4.79-2.5-.76-.54-1.45-1.16-2.12-1.82-.61-.6-1.15-1.35-1.85-1.83-.6-.41-1.23.38-.94.94.41.81,1.31,1.49,2.02,2.04.75.59,1.54,1.11,2.36,1.6,1.6.97,3.35,1.69,5.15,2.21,3.6,1.06,7.5,1.23,11.16.34.34-.08.2-.61-.14-.52Z"/>
          <path class="cls-1" d="m90.84,112.31c-2.78.22-5.66-.37-8.13-1.66-1.2-.63-2.3-1.4-3.26-2.36-.48-.48-.93-1-1.35-1.53-.42-.53-.73-1.29-1.42-1.47-.46-.12-.81.23-.85.66-.07.72.65,1.35,1.11,1.83.52.56,1.08,1.04,1.69,1.5,1.18.9,2.47,1.68,3.83,2.28,2.69,1.17,5.54,1.6,8.45,1.22.26-.03.2-.47-.06-.45Z"/>
          <path class="cls-1" d="m82.68,113.62c-1.82-.26-3.51-1.18-4.68-2.61-.57-.7-1-1.54-1.28-2.4-.15-.44-.27-.9-.3-1.37-.04-.49.08-1.05-.06-1.51-.22-.76-1.27-.74-1.5,0-.16.52.02,1.18.15,1.7.12.51.27,1.02.47,1.52.41,1.02,1.01,1.95,1.78,2.73,1.43,1.45,3.33,2.33,5.35,2.55.34.04.42-.55.08-.6Z"/>
          <path class="cls-1" d="m124.95,68.15c-1.23,3.2-4.45,5.02-6.49,7.64-2.11,2.71-3.23,5.92-3.48,9.34-.03.38.61.47.66.09.46-3.56,2.03-6.93,4.3-9.69,1.94-2.36,4.34-4.29,5.31-7.29.06-.2-.23-.27-.3-.08Z"/>
          <path class="cls-1" d="m119.72,72.8c-1.17,1-2.24,2.11-3.11,3.38-.87,1.27-1.51,2.69-1.99,4.16-.18.56.7.79.88.23.87-2.75,2.46-5.44,4.53-7.46.2-.2-.1-.49-.31-.31Z"/>
          <path class="cls-1" d="m132.52,63.72c-.83-2.12-2.26-3.96-3.71-5.7-.1-.12-.3.04-.21.16,1.26,1.71,2.35,3.53,2.91,5.59.27,1,.43,2.02.4,3.06-.03,1.03-.29,1.99-.58,2.97-.2.68.81,1.1,1.16.47,1.06-1.94.82-4.56.03-6.56Z"/>
          <path class="cls-1" d="m132.2,67.63c-.14-1.4-.49-2.75-1.06-4.04-1.03-2.32-2.77-4.32-4.88-5.71-.23-.15-.43.22-.21.37,1.98,1.4,3.52,3.35,4.32,5.65.43,1.23.66,2.54.66,3.84,0,1.31-.37,2.52-.52,3.81-.08.67,1.04.98,1.3.34.54-1.32.53-2.88.38-4.27Z"/>
          <path class="cls-1" d="m126.06,59.9c-.11-.1-.26.06-.16.16,1.47,1.4,2.77,2.91,3.62,4.77.87,1.93,1.18,4.07.53,6.12-.24.75,1.01,1.08,1.19.31,1.06-4.56-1.98-8.49-5.17-11.36Z"/>
          <path class="cls-1" d="m130.73,69.98c-.06-.51-.15-1.01-.27-1.51-.25-1-.62-1.98-1.08-2.91-.91-1.79-2.32-3.43-3.9-4.67-.08-.06-.19.04-.11.11,1.52,1.33,2.59,2.95,3.3,4.85.33.88.57,1.8.69,2.74.06.46.1.92.11,1.38.01.51-.08,1.04.02,1.54.13.66,1.11.61,1.27,0,.13-.49.03-1.05-.03-1.54Z"/>
          <path class="cls-1" d="m22.01,10.31c-.17-.38-.36-.75-.57-1.1-.22-.35-.44-.71-.66-1.06-.12-.19-.41-.03-.3.17.19.36.35.72.49,1.1.14.38.3.75.44,1.13.07.18.24.3.44.22.19-.08.24-.28.16-.46Z"/>
          <path class="cls-1" d="m22.04,8.78c-.46-.92-1.04-1.78-1.69-2.58-.13-.16-.42.06-.29.22.6.8,1.11,1.66,1.52,2.57.41.93.64,1.89.92,2.86.11.38.63.22.58-.15-.14-1.01-.57-2.02-1.03-2.93Z"/>
          <path class="cls-1" d="m23.39,9.87c-.28-.87-.61-1.74-.99-2.57-.02-.04-.09-.01-.07.03.34.85.6,1.71.78,2.61.18.92.21,1.82.22,2.75,0,.58.9.49.8-.1-.17-.92-.45-1.83-.74-2.72Z"/>
          <path class="cls-1" d="m24.56,9.36c-.5-1.28-1.11-2.53-1.83-3.71-.08-.14-.3-.01-.22.12.72,1.19,1.3,2.42,1.72,3.74.41,1.31.61,2.64.73,4.01.02.2.12.33.3.39.11.04.21.03.3-.04.16-.11.23-.27.19-.46-.24-1.39-.7-2.75-1.21-4.06Z"/>
          <path class="cls-1" d="m25.57,7.52c-.11-.22-.41-.03-.32.18.49,1.16.73,2.38.92,3.62.03.17.24.27.39.23.18-.05.25-.22.23-.39-.17-1.27-.65-2.5-1.22-3.64Z"/>
        </g>
        <path class="cls-1" d="m21.99,36.28c-.1-1.98-.43-3.98-.94-5.89-.53-1.98-1.4-3.78-2.32-5.59-.09-.18-.34-.03-.26.15,1.56,3.55,2.27,7.64,2.41,11.49.13,3.83-.47,7.71-1.63,11.36-.13.42.56.72.73.3,1.57-3.76,2.23-7.75,2.02-11.82Z"/>
        <path class="cls-1" d="m22.49,30.23c-.05-.2-.34-.12-.3.08,1.4,7.06.52,14.48-1.46,21.33-.19.68.79.9,1.03.27,1.34-3.44,1.98-7.13,2.12-10.81.14-3.72-.45-7.28-1.39-10.87Z"/>
        <path class="cls-1" d="m25.52,38.49c-.11-1.17-.42-2.24-.67-3.38-.07-.3-.51-.18-.46.12.19,1.06.18,2.19.23,3.26.05,1.08.05,2.15-.02,3.23-.15,2.16-.74,4.23-1.06,6.36-.06.39.48.69.69.28,1-2,1.25-4.31,1.35-6.52.05-1.11.04-2.24-.07-3.35Z"/>
        <path class="cls-1" d="m135.78,39.78c-.36-2.78-1.23-5.36-2.08-8.01-.04-.13-.24-.08-.21.05.68,2.63.93,5.4,1.23,8.09.29,2.66.26,5.3.31,7.97.01.68.97.65,1.03,0,.27-2.67.06-5.45-.29-8.11Z"/>
        <path class="cls-1" d="m133.89,38.87c-.19-1.3-.52-2.55-.86-3.82-.09-.34-.59-.2-.52.14.25,1.24.35,2.55.4,3.81.05,1.26.07,2.52.02,3.79-.03.73,1.1.73,1.14,0,.06-1.31.01-2.62-.18-3.91Z"/>
        <path class="cls-1" d="m50.19,74.83c-2.82-2.24-6.03-4.18-8.44-6.89-.21-.23-.63.08-.44.34,1.02,1.38,2.14,2.61,3.43,3.75,1.35,1.19,2.82,2.24,4.23,3.36,2.64,2.11,5.07,4.4,6.65,7.43.12.23.49.08.42-.17-.82-3.24-3.31-5.79-5.85-7.81Z"/>
        <path class="cls-1" d="m53.47,81.98c-.3-.77-.83-1.45-1.35-2.09-.53-.66-1.12-1.28-1.72-1.88-1.2-1.2-2.53-2.23-3.9-3.22-.28-.2-.64.26-.37.49,1.24,1.06,2.39,2.23,3.51,3.41.56.58,1.08,1.2,1.63,1.79.55.6,1.07,1.27,1.72,1.77.19.15.6.02.48-.28Z"/>
        <path class="cls-1" d="m58.1,3.77c-2.83,1.84-5.42,4.15-7.57,6.74-2.18,2.63-3.85,5.57-5.22,8.7-.05.1.1.19.16.09,3.32-5.72,8-10.74,13.13-14.87.36-.29-.11-.91-.5-.66Z"/>
        <path class="cls-1" d="m56.05,7.67c-.74.37-1.36.95-1.96,1.51-.64.59-1.23,1.21-1.81,1.85-.56.63-1.1,1.27-1.61,1.94-.52.68-.97,1.41-1.42,2.14-.17.27.25.61.46.35.53-.64,1.11-1.25,1.65-1.89.54-.64,1.1-1.28,1.66-1.9.55-.61,1.11-1.2,1.68-1.8.58-.61,1.2-1.19,1.67-1.89.14-.21-.13-.42-.32-.32Z"/>
        <path class="cls-1" d="m101.77,20.52c-1.35-1.25-2.42-2.75-3.44-4.27-1.01-1.52-1.99-3.03-2.78-4.68-.25-.52-1-.08-.77.44.73,1.68,1.63,3.39,2.79,4.81,1.18,1.45,2.59,2.67,4.01,3.88.13.11.31-.07.18-.18Z"/>
        <path class="cls-1" d="m103.84,22.04s-.06-.08-.1-.11c-.03-.04-.08-.07-.12-.11-.08-.07-.15-.13-.23-.2l-.46-.4c-.07-.06-.16-.11-.26-.11-.09,0-.2.04-.26.11-.06.07-.11.16-.11.26,0,.09.03.2.11.26.16.13.32.27.48.4.08.07.16.13.23.2.06.05.11.1.18.14.05.03.09.06.14.09.14.09.33.04.43-.09.1-.14.08-.31-.03-.43Z"/>
        <path class="cls-1" d="m111.18,39.86c-1.43-1.6-2.91-3.16-4.3-4.8-1.37-1.63-2.71-3.31-4.01-5-.14-.19-.44.05-.33.25,2.15,3.71,4.9,7.23,8.17,10.02.32.28.76-.15.47-.47Z"/>
        <path class="cls-1" d="m107.29,37.61c-.92-.98-1.8-1.98-2.48-3.15-.18-.31-.62-.05-.48.27.58,1.27,1.34,2.51,2.37,3.46.39.36.95-.2.59-.59Z"/>
      </g>
      <path class="cls-1" d="m57.55,99.83c-3.29-2.67-5.26-6.33-7.29-9.96-2.02-3.61-4.22-7.45-7.4-10.17-.13-.11-.28-.17-.44-.21-.12-.17-.24-.34-.36-.51-.37-.5-1.18-.09-.86.49.05.09.09.18.14.26-.25.22-.39.56-.24.98.81,2.31,1.94,4.47,3.52,6.31.82,1.94,1.67,3.86,2.75,5.68,1.09,1.82,2.35,3.57,3.86,5.07.75.74,1.57,1.43,2.49,1.94.95.52,1.95.88,2.95,1.28.68.28,1.6-.58.88-1.16Z"/>
      <path class="cls-1" d="m121.33,37.69c-.3-1.11-.55-2.23-.68-3.37-.25-2.14-.36-4.3-1.16-6.32-.68-1.71-1.75-3.3-3.13-4.51-1.58-1.39-3.43-2.21-5.45-2.73-.5-.13-.65.58-.2.76,3.73,1.48,6.58,5.41,7.3,9.27.47,2.5.48,5,1.3,7.44.36,1.06.8,2.23.56,3.37-.08.4-.23.81-.49,1.13-.3.37-.72.57-1,.97-.42.6.18,1.23.76,1.3.92.11,1.72-.79,2.14-1.52.43-.75.63-1.63.64-2.49.02-1.12-.3-2.23-.59-3.3Z"/>
      <path class="cls-1" d="m117.44,28.3c-.65-1.37-1.52-2.65-2.56-3.75-1.12-1.19-2.58-2.01-3.6-3.3-.5-.63-1.48.17-1.1.84.74,1.29,1.87,2.28,2.84,3.39.92,1.06,1.68,2.26,2.32,3.51.62,1.22,1.05,2.53,1.32,3.87.28,1.41.23,2.77.21,4.19,0,.82.92,1.35,1.63.95.25-.14.43-.4.5-.69v.02c.52-3-.27-6.32-1.55-9.03Z"/>
      <path class="cls-1" d="m117.79,29.39c-.27-1.51-1.06-2.93-1.89-4.2-.84-1.29-1.82-2.49-3-3.48-.76-.64-1.75.34-1.09,1.09.92,1.06,1.76,2.17,2.44,3.4.72,1.3,1.13,2.57,1.74,3.92.2.44.81.59,1.22.42.47-.2.67-.66.58-1.15Z"/>
      <path class="cls-1" d="m120.68,43.18c.17-1.37.07-2.75-.31-4.04,0-.03.01-.05.01-.08-.02-1.1-.71-2.16-1.51-2.86-.41-.36-.98-.44-1.43-.1-.35-.89-.5-1.79-.46-2.79.06-1.47.28-2.92-.12-4.37-.28-1.02-1.78-.61-1.58.41.28,1.4-.16,2.82-.31,4.21-.14,1.31.07,2.52.59,3.72.84,1.99,2.67,3.72,2.93,5.93.06.55.37,1.02.96,1.08.5.06,1.12-.25,1.21-.8.01-.09.02-.19.03-.28h0s0-.01,0-.02Z"/>
      <path class="cls-1" d="m58.02,23.35c-.51.19-.97.31-1.45.6-.47.28-.9.62-1.3.99-.78.72-1.43,1.56-1.98,2.47-1.34,2.25-1.87,4.79-1.93,7.38-.06,2.59.25,5.22.83,7.74.29,1.26.66,2.49,1.11,3.71.45,1.22.91,2.59,1.64,3.68.63.94,2.41.42,1.97-.8-.39-1.09-.97-2.11-1.38-3.2-.41-1.09-.76-2.2-1.05-3.33-.58-2.3-.9-4.65-.92-7.02-.02-2.27.23-4.67,1.07-6.8.36-.9.86-1.78,1.45-2.55.59-.77,1.4-1.66,2.2-2.22.29-.21.14-.79-.26-.64Z"/>
      <path class="cls-1" d="m55.96,25.18c-.72,1.25-1.36,2.54-1.91,3.87-.57,1.36-.97,2.78-1.49,4.16-.18.48.18,1.05.62,1.22.48.19,1.02.01,1.29-.44.26-.45.44-.96.66-1.43.04-.09.08-.19.13-.28.53.1,1.13-.12,1.26-.76.06-.32.11-.63.16-.95.02-.16.02-.32-.01-.48.11-.76.3-1.51.56-2.25.15-.4,0-.76-.28-1.01.14-.29.27-.58.42-.86.47-.91-.87-1.68-1.39-.79Z"/>
      <path class="cls-1" d="m42.97,45.4c-.11-.2-.26-.32-.41-.41-.51-1.93-1.47-3.74-2.81-5.25-.36-.41-1.04-.41-1.45-.09-.07.06-.12.12-.17.19-.51-.83-1.07-1.62-1.66-2.43-.17-.24-.56-.04-.41.23.71,1.28,1.11,2.74,1.49,4.14.37,1.4.59,2.83.8,4.26.46,3.12.47,6.26.26,9.4-.05.76-.12,1.52-.19,2.28-.07.72-.3,1.57.11,2.24.36.58,1.18.82,1.78.48.7-.4.86-1.23,1.04-1.94.71-2.75,1-5.62.86-8.46.23-.09.43-.26.58-.47.88-1.23.9-2.87.17-4.17Z"/>
      <path class="cls-1" d="m118.99,53.63c-.16-.91-1.55-1.06-1.96-.26-2.05,4.05-7.15,4.91-11.05,6.23-2.38.8-4.56,1.86-6.44,3.55-1.75,1.57-3.35,3.52-5.77,4-.58.11-.79.68-.71,1.18-1.96.55-3.94,1.08-5.68,2.13-.52.31-.08,1.07.46.81,2.26-1.09,4.78-1.08,7.19-1.61,2.53-.56,4.53-1.82,6.47-3.49,1.88-1.62,3.78-3.08,6.11-4,2.41-.96,5.05-1.16,7.43-2.19,2.53-1.1,4.46-3.48,3.94-6.34Z"/>
      <path class="cls-1" d="m93.55,97.43c-4.39-1.26-8.78-2.52-13.16-3.79-.11-.13-.26-.24-.47-.29-.51-.13-1-.21-1.5-.28,0,0-.02,0-.03,0,0,0,0,0,0,0-.09-.01-.18-.03-.28-.04-.79-.08-1.15.63-1.05,1.27-1.6-.06-3.05.35-4.46,1.15-.51.29-.07,1.03.44.78,1.57-.76,3.65-.42,5.26.07,1.8.56,3.43,1.48,5.13,2.27,3.24,1.5,7.01,2.68,10.39.88.87-.46.63-1.77-.26-2.02Z"/>
      <path class="cls-1" d="m86.87,94.76s-.08-.04-.12-.06c-.05-.13-.13-.26-.24-.35-.25-.2-.5-.4-.79-.55-.27-.14-.55-.25-.83-.35-.51-.18-1.06-.26-1.59-.28-.47-.01-.97.36-1.07.82-.04.19-.04.37,0,.56.05.25.29.57.52.68.52.24,1.04.48,1.55.71.49.22.98.47,1.49.67,0,0,.01,0,.02.01.01,0,.03,0,.04.01.07.03.14.07.22.09,0,0,0-.01,0-.02.45.11.98-.07,1.2-.49.27-.52.11-1.16-.4-1.46Z"/>
      <path class="cls-1" d="m114.38,92.85c-2.32.17-4.26,1.31-6.11,2.63-1.76,1.25-3.69,2.88-5.95,2.99-1.13.06-2.18-.38-3.27-.6-1.14-.23-2.3-.23-3.41.13-2.09.67-3.77,2.18-5.33,3.67-.1.1-.17.21-.22.33-.19-.06-.39-.11-.58-.17-.57-.18-.94.71-.4.97,4.16,2.02,8.83,2.93,13.43,2.46,2.28-.23,4.53-.71,6.69-1.48,1.05-.37,2.1-.8,2.93-1.57.67-.63,1.1-1.46,1.37-2.33.51-1.64.25-3.92,1.63-5.16.69-.62.16-1.96-.78-1.89Z"/>
      <path class="cls-1" d="m45.76,99.01c-4.06-2.02-8.61-3.35-13.03-4.28-.27-.06-.56-.11-.85-.16.74-.42.75-1.81-.26-2.03-.74-.16-1.49-.27-2.23-.4-.04,0-.08,0-.12,0-.75-.3-1.52-.52-2.32-.65-.02,0-.04,0-.05,0-.35-.15-.7-.32-1.03-.51-1.09-.62-2.12-1.58-2.57-2.79-.15-.41-.48-.55-.78-.52-.14-1.7.11-3.45.51-5.07.14-.55-.69-.73-.85-.2-.66,2.27-1.71,4.59-1.39,7.02.29,2.21,1.34,4.06,3.25,5.25,1.75,1.09,3.86,1.42,5.85,1.76,2.39.41,4.75.94,7.07,1.62,2.67.78,5.21,1.82,7.79,2.86,1.27.51,2.31-1.29,1.02-1.93Z"/>
      <path class="cls-1" d="m39.79,96.05c-1.67-.71-3.31-1.5-4.98-2.21-1.6-.68-3.24-1.28-4.86-1.91-.23-.09-.47-.19-.71-.29-.02-.1-.05-.2-.1-.31-.79-1.56-2.01-2.83-3.52-3.71-.28-.16-.54-.19-.78-.13-.27-.47-.49-.97-.65-1.51-.36-1.17-2.19-1.01-2.17.28.03,2.18,1.13,3.9,2.67,5.21-.53.45-.67,1.33.13,1.76.55.3,1.11.59,1.66.89.71.38,1.34-.03,1.54-.63.04.02.08.04.12.05,3.62,1.53,7.38,2.62,11.1,3.85.78.26,1.33-1.02.55-1.36Z"/>
      <path class="cls-1" d="m25.85,91.15c-.04-.12-.1-.24-.15-.35-.03-.12-.06-.23-.11-.32-.06-.1-.14-.2-.22-.28-.05-.07-.1-.15-.16-.23-.09-.11-.18-.21-.29-.3-.1-.11-.22-.19-.36-.23-.13-.06-.26-.09-.41-.09-.09.01-.18.02-.28.04-.14.03-.27.1-.38.19-.09.05-.15.12-.2.2-.1.11-.16.23-.2.38-.06.27-.05.57.11.81.05.08.12.15.18.23,0,0,0,0,0,0,0,0,0,0,0,0,.05.07.1.14.16.21.03.08.06.16.1.22.04.07.09.14.13.21.04.07.09.14.13.21.05.07.1.14.13.22.06.07.11.14.17.22.1.1.21.17.34.21.08.04.16.07.25.07.13.03.26.02.39-.02.17-.05.33-.14.46-.26.1-.1.17-.21.21-.34.06-.12.09-.24.08-.38.02-.21-.03-.43-.09-.64Z"/>
      <path class="cls-1" d="m63.82,110.2c-.55-1.41-1.91-2.65-3.04-3.62-1.24-1.07-2.57-2.02-3.86-3.02-2.48-1.92-4.7-3.95-6.19-6.74-.18-.34-.66-.1-.6.24.51,3.05,2.81,5.64,5.07,7.6,1.23,1.06,2.51,2.06,3.75,3.11.63.54,1.26,1.09,1.87,1.65.6.56,1.14,1.22,1.8,1.7.55.4,1.45-.28,1.2-.92Z"/>
      <path class="cls-1" d="m60.75,107.36c-.48-.36-1.04-.63-1.55-.97-.47-.31-.93-.62-1.37-.96-.92-.71-1.79-1.5-2.6-2.34-1.6-1.66-3.14-3.56-4.3-5.56-.35-.61-1.46-.22-1.19.48.47,1.19.95,2.36,1.61,3.47.66,1.12,1.5,2.15,2.38,3.11.86.93,1.8,1.8,2.8,2.58,1.04.82,2.17,1.69,3.4,2.19.49.2,1.1-.19,1.27-.64.21-.54-.01-1.02-.46-1.35Z"/>
      <path class="cls-1" d="m59.15,106.35c-3.7-1.56-6.89-4.38-8.69-8.02-.34-.68-1.53-.22-1.25.51.39,1.02.81,2.02,1.37,2.96.58.96,1.31,1.86,2.08,2.68,1.25,1.32,2.74,2.44,4.37,3.28.01.02.01.04.02.05.48.7,1.36.9,2.09.45.64-.39.81-1.57,0-1.91Z"/>
      <path class="cls-1" d="m56.94,106.14c-1.39-.51-2.7-.97-3.96-1.85-.13-.09-.18-.13-.26-.19-.13-.11-.26-.22-.39-.34-.25-.23-.51-.46-.73-.72-.39-.48-.66-1.05-.81-1.65-.21-.87-1.51-.51-1.34.35.3,1.48,1.19,2.88,2.34,3.85,1.13.97,2.44,1.64,3.78,2.25.11.09.23.18.38.23.15.05.3.1.45.14.54.14,1.19-.19,1.31-.77.13-.61-.2-1.1-.77-1.31Z"/>
      <path class="cls-1" d="m54.57,105.81c-.48-.67-1.08-1.21-1.8-1.61-.68-.37-1.6-.74-2.38-.56-.02-.06-.03-.11-.05-.17-.01-.05-.02-.1-.03-.15,0-.02-.03-.19-.02-.09-.04-.32-.26-.64-.63-.63-.31.01-.66.28-.63.63.06.56.22,1.09.46,1.6.22.46.53.96.9,1.31.44.43.96.74,1.53.96.55.22,1.13.35,1.72.29.39-.04.72-.18.92-.53.17-.29.21-.75,0-1.04Z"/>
      <path class="cls-1" d="m48.72,91.96c-.14-.55-.64-.79-1.12-.77-.09-.52-.17-1.04-.3-1.55-.33-1.39-2.36-.81-2.12.56.6,3.43.93,6.81.71,10.29-.05.87.88,1.24,1.54.98,0,.36,0,.72-.02,1.08-.06,1.25,1.78,1.42,2.12.27,1.06-3.57.1-7.37-.82-10.86Z"/>
      <path class="cls-1" d="m133.52,68.66c-.09-.62-1.16-.49-1.09.14.06.54.08,1.1.11,1.65-.16-.02-.32-.02-.47.02-1.12-.06-2.18.82-2.41,1.99-.16.84.01,1.68.11,2.52.1.93.17,1.86.21,2.79.14,3.59-.22,7.18-1.05,10.68-.17.73.35,1.34,1.07,1.39.56.04,1.12.07,1.68.11.49.03.95-.37,1.07-.83.88-3.35,1.42-6.77,1.57-10.23.16-3.46-.28-6.81-.78-10.22Z"/>
      <path class="cls-1" d="m139.64,46.37c-.05-.67-1.08-.69-1.06,0,.12,3.97-.45,7.91-1.55,11.71-.37-.79-1.68-.94-1.96.13-.35,1.32-.8,2.67-.98,4.02-.06.47.12.83.4,1.05-.1.4-.2.79-.32,1.18-.59,1.95-1.45,3.76-2.51,5.5-.74,1.21,1.12,2.23,1.9,1.08,4.94-7.21,6.75-16.05,6.07-24.67Z"/>
      <path class="cls-1" d="m136.3,83.02c-.24-2.49-.55-4.97-.98-7.43-.22-1.25-.47-2.49-.73-3.74-.13-.62-.3-1.23-.47-1.84-.16-.57-.26-1.19-.57-1.7-.36-.6-1.25-.17-1.14.39-.04.5.08,1.02.14,1.51.06.52.11,1.05.18,1.57.16,1.08.33,2.16.47,3.25.27,2.07.52,4.14.74,6.22-.52-.15-1.15.06-1.39.64-.37.15-.64.48-.6.98.05.68.1,1.36.15,2.05-.14,1.38-.8,2.71-1.93,3.54-.71.53-.77,1.81.27,2.03,1.85.41,4.15.61,5.42-1.12,1.27-1.73.64-4.38.45-6.34Zm-1.93,4.24c-.11.88-.67,1.21-1.36,1.29.33-.48.62-1,.83-1.54.29-.16.51-.44.55-.87.02.38.03.76-.02,1.12Z"/>
    </g>
  </g>
</svg>